<svg version="1.1" width="466" height="556" viewBox="0 0 466 556" fill="none" xmlns="http://www.w3.org/2000/svg">
<path d="M334.785 555.097L331.987 551.948L325.707 548.209L314.815 543.483L312.417 542.861L307.391 542.661L304.703 542.029L301.44 542.476L298.21 543.716L290.961 548.29L278.706 529.67L276.165 526.502L273.163 523.87L261.81 519.833L259.051 517.638L256.851 514.746L252.101 504.866L250.04 501.626L246.306 497.907L234.878 488.582L232.517 484.588L231.553 480.802L232.009 474.371L231.254 471.449L229.344 469.084L223.616 467.953L222.357 468.2L215.54 472.138L209.347 476.769L206.758 479.52L204.72 482.422L201.438 488.654L194.693 514.261L193.453 517.253L191.32 519.572L188.594 520.636L185.582 520.631L182.238 519.306L178.633 516.893L164.83 502.647L162.326 498.8L160.564 495.223L159.372 491.988L157.538 488.692L154.717 485.737L150.561 483.524L146.965 482.697L123.704 482.369L120.398 481.481L117.235 479.8L114.095 475.986L112.627 472.813L110.784 467.146L109.682 465.502L107.483 463.056L103.578 460.771L100.163 459.821L96.933 459.617L87.015 460.923L84.1982 460.159L81.7473 457.883L80.441 453.656L80.1607 450.036L80.3507 446.497L83.4668 427.825L83.2625 424.695L82.6877 421.831L81.1535 419.394L75.3681 417.774L58.6907 419.09L63.9443 399.335L64.5617 394.936L64.4478 390.861L63.4549 386.177L53.3184 355.34L51.6702 352.295L49.1717 349.74L46.2979 348.111L43.2484 346.999L36.9404 345.807L30.4995 345.28L14.3733 345.555L11.4329 344.748L8.54494 343.133L6.04643 340.52L4.3223 337.447L3.13001 334.217L2.30346 330.982L1.47705 324.489L2.48393 288.056L2.98752 285.273L4.20343 283.648L6.52625 284.846L9.11492 286.845L12.0695 288.36L14.9433 288.427L17.741 287.049L25.1747 281.426L31.7155 277.549L35.0167 276.419L38.185 275.863L41.4862 275.754L57.888 277.549L59.9258 277.445L62.2153 276.956L64.994 275.754L67.6967 273.745L69.7819 271.013L71.1785 267.978L76.204 252.047L76.2278 248.166L75.2635 244.347L68.9983 233.754L68.1717 230.648L67.7822 226.463L67.9865 222.749L72.5322 202.314L72.8552 199.165L72.67 195.978L71.6631 192.615L69.9388 189.489L67.7395 186.82L65.8585 185.48L63.7019 184.582L60.8757 184.103L54.658 184.435L48.0364 187.133L62.9705 154.653L65.146 146.867L65.9488 135.624L67.1173 131.392L69.4306 127.155L72.5798 124.139L90.1263 111.817L93.1996 108.829L96.6148 104.027L97.5837 100.108L97.104 96.4747L95.2372 93.6057L91.594 89.8343L90.5396 85.0605L90.264 80.9612L97.3083 56.7268L100.011 61.2297L115.154 92.4325L117.605 95.5722L120.469 98.0992L123.5 99.8805L126.754 100.921L130.957 100.622L135.907 99.0255L143.934 94.5177L148.917 90.9504L186.371 56.8549L215.669 40.8664L219.773 37.475L225.44 31.6989L229.154 29.1814L233.263 27.3906L238.635 26.3504L247.812 26.1509L250.059 25.752L253.061 24.8114L262.038 20.9165L266.85 19.4962L273.158 18.7742L277.4 18.9832L281.209 19.8145L290.752 23.1015L295.036 22.7405L300.133 21.0446L323.394 7.26488L339.083 1.16125L360.686 20.584L368.828 30.1409L373.511 37.7457L382.275 49.5352L394.544 63.0632L396.501 66.8633L397.394 70.2641L397.67 73.1569L397.622 76.1732L397.508 76.8192L396.387 80.0683L395.143 82.8422L386.479 96.5508L383.605 102.569L377.829 129.549L377.801 133.458L378.884 138.393L381.197 142.227L389.709 152.297L403.954 176.146L462.056 229.945L464.621 231.779L464.645 251.491L464.07 256.578L462.902 260.126L461.505 262.065L459.182 263.927L449.388 269.118L445.949 272.101L442.296 277.782L441.313 281.915L441.403 285.696L446.59 305.546L447.255 312.519L447.279 317.953L446.704 323.81L445.721 328.09L444.267 331.932L442.458 335.001L440.121 337.993L437.37 340.72L430.901 345.076L424.108 348.477L417.568 350.785L407.317 352.894L403.949 354.324L400.411 356.737L397.247 360.233L395.209 364.009L391.718 372.412L389.951 375.632L388.189 378.24L383.529 383.218L366.899 397.354L342.997 422.724L339.145 427.763L336.19 433.392L334.899 437.738L334.737 441.643L336.281 448.45L338.528 455.371L339.972 461.726L340.385 468.257L336.604 502.709L335.222 508.903L335.108 513.173L335.545 516.897L338.509 526.397L338.874 534.634L334.808 550.214L334.785 555.097Z" fill="springgreen" stroke="#808080" stroke-linecap="round" stroke-linejoin="round"/>
</svg>
