<svg width="185" height="222" viewBox="0 0 185 222" fill="none" xmlns="http://www.w3.org/2000/svg">
<path d="M183.313 22.746L176.269 46.9805L176.545 51.0798L177.599 55.8536L181.242 59.6249L183.109 62.494L183.589 66.1278L182.62 70.0465L179.205 74.8488L176.131 77.8365L158.585 90.158L155.436 93.1743L153.122 97.4113L151.954 101.644L151.151 112.887L148.976 120.672L134.042 153.153L129.976 155.124L124.841 155.86L110.985 155.841L107.997 156.349L105.451 157.618L103.941 158.834L102.221 160.995L98.2267 167.825L88.7314 192.962L85.2496 209.806L84.1049 212.855L82.2857 215.696L79.5591 218.023L76.5572 219.515L73.389 220.508L70.0449 220.992L66.5822 220.954L62.6539 220.156L59.1246 218.494L55.9564 215.948L46.6654 203.446L43.1361 200.154L31.7552 194.041L30.0594 192.749L27.789 190.359L26.1834 187.291L25.4947 184.104L25.3094 181.059L26.1788 168.063L25.7892 164.819L23.0769 154.639L22.8727 151.314L24.5446 135.202L24.3452 131.816L23.4664 128.434L22.0699 125.346L20.2602 122.838L19.0204 121.679L18.3555 121.19L7.26892 117.955L4.35714 116.407L1.99649 113.899L1.03223 111.03L1.46913 108.013L3.48797 105.04L14.793 93.35L18.0989 90.7613L21.8799 88.885L26.402 87.5408L40.8039 85.2751L44.2477 84.2728L47.7057 82.6673L51.2682 79.5181L53.1017 76.3782L57.1819 66.0375L67.6699 47.2797L68.677 43.1092L68.7435 41.5084L68.4014 36.7918L65.7889 27.3773L64.5681 20.8269L64.3639 17.3785L64.6156 14.4097L65.3471 11.7212L66.1737 9.87339L67.6462 7.5555L69.9594 4.96669L72.895 2.663L76.0869 1.33301L79.6399 0.938721L83.2831 1.56088L87.7149 3.59871L90.9259 6.32524L93.3151 9.51245L97.899 22.5228L99.6185 25.6482L101.552 28.3652L103.775 30.2937L105.698 30.9398L108.776 31.0537L113.199 29.7142L120.447 26.736L124.413 25.7242L129.235 25.0403L145.062 24.9072L148.268 23.9525L151.484 22.5274L165.221 14.7613L168.46 13.9015L172.127 14.4667L175.001 15.5117L183.313 22.746Z" fill="springgreen" stroke="#808080" stroke-linecap="round" stroke-linejoin="round"/>
</svg>
