<svg width="1584" height="1936" viewBox="0 0 1584 1936" fill="none" xmlns="http://www.w3.org/2000/svg">
<path d="M868.629 722.144L879.44 740.08L886.474 748.079L893.908 751.247L902.776 752.525L911.141 752.473L918.826 749.856L928.849 741.795L929.196 743.125L936.762 742.013L938.145 742.926L939.361 744.631L940.658 745.571L942.32 744.237L942.477 745.495L942.31 746.963L941.731 748.174L940.767 748.668L939.935 749.49L940.225 751.228L940.909 752.81L941.303 753.114L940.857 758.686L941.722 759.46L944.334 758.563L946.343 757.042L950.4 749.88L952.48 747.771L954.371 746.474L955.539 744.64L955.454 740.902L957.629 742.042L960.346 742.279L962.631 742.797L963.605 744.797L964.327 746.949L966.132 747.248L968.431 747.276L970.682 748.678V749.889L968.288 751.005L965.234 751.946L962.612 753.361L961.505 755.955L960.93 755.959L957.563 759.683L956.864 760.999L956.119 763.141L955.458 764.22L946.723 770.718L945.35 772.641L944.956 773.42L943.056 776.09L942.325 777.529L942.025 779.121L941.712 782.721L941.313 784.274L941.242 785.205L941.375 786.293L941.327 787.21L940.771 787.599L939.185 787.514L938.487 787.661L938.211 788.155L938.102 791.646L938.244 793.465L938.748 794.244L948.025 795.081L951.407 794.244L953.221 793.109L954.461 792.041L955.834 791.238L958.062 790.92L967.842 792.967L970.487 795.005L974.805 799.873L981.194 801.835L982.111 808.067L982.063 812.247L981.759 822.635L982.552 826.844L984.766 830.653L993.183 841.616L1000.88 851.648L1008.6 861.68L1016.3 871.712L1024.01 881.721L1031.72 891.734L1039.44 901.732L1047.14 911.745L1054.85 921.744L1062.55 931.733L1070.27 941.727L1077.97 951.721L1085.68 961.701L1093.37 971.667L1101.08 981.641L1108.79 991.612L1116.51 1001.58L1124.43 1011.79L1127.39 1014.39L1131.03 1015.59L1154.79 1018.76L1175.34 1021.5L1195.88 1024.25L1216.45 1026.99L1237 1029.73L1257.55 1032.48L1278.12 1035.22L1298.67 1037.96L1319.21 1040.7L1339.8 1043.44L1360.34 1046.19L1380.89 1048.92L1401.45 1051.66L1421.99 1054.41L1442.54 1057.14L1463.1 1059.87L1483.66 1062.62L1503.87 1065.31L1506.11 1064.91L1515.93 1052.07L1525.33 1067.79L1537.26 1087.78L1549.22 1107.75L1561.15 1127.71L1573.1 1147.64L1580.95 1160.75L1582.48 1164.23L1582.55 1167.89L1577.02 1185.88L1576.29 1188.28L1575.31 1191.43L1572.57 1200.32L1568.31 1214.13L1562.78 1232.01L1556.24 1253.17L1548.94 1276.75L1541.15 1301.95L1539.25 1308.07L1533.09 1327.94L1525.02 1353.9L1517.21 1379.01L1509.93 1402.47L1503.37 1423.47L1497.84 1441.22L1493.6 1454.88L1490.85 1463.67L1489.87 1466.77L1485.12 1481.97L1462.87 1489.86L1437.57 1498.84L1412.27 1507.79L1387 1516.75L1361.69 1525.71L1336.38 1534.66L1311.07 1543.61L1285.79 1552.57L1260.48 1561.51L1235.2 1570.45L1209.88 1579.39L1184.6 1588.33L1159.3 1597.27L1133.98 1606.2L1108.7 1615.13L1083.41 1624.05L1058.11 1632.98L1041.66 1638.76L1018.31 1642.09L994.627 1645.45L970.943 1648.83L947.26 1652.19L923.576 1655.56L899.912 1658.93L876.247 1662.3L852.545 1665.66L828.885 1669.04L805.202 1672.4L781.518 1675.76L757.835 1679.13L734.151 1682.49L710.487 1685.86L686.803 1689.22L663.12 1692.58L639.436 1695.95L620.36 1698.66L606.618 1703.71L600.035 1707.12L578.783 1718.06L553.418 1731.1L525.094 1745.68L499.701 1758.73L480.758 1768.48L477.433 1770.82L465.966 1785.29L452.543 1802.12L429.173 1831.54L407.109 1859.24L392.731 1877.28L390.232 1882.08L383.24 1901.4L373.355 1928.74L369.009 1934.59L369.023 1934.48L415.806 1554.9L455.583 1244.11L497.696 899.106L498.508 863.048L496.3 843.374L492.699 831.855L486.481 817.662L480.264 807.298L474.35 799.603L437.001 761.935L384.679 724.144L382.057 721.076L380.086 717.793L379.008 715.266L377.725 707.999L374.396 488.368L373.503 483.124L372.538 479.999L371.142 476.973L369.218 474.023L367.133 471.891L365.29 470.542L317.994 451.513L314.892 449.722L312.19 446.659L308.247 440.408L283.818 416.472L280.626 414.325L277.234 413.252L273.629 413.086L251.589 417.052L248.188 416.914L244.797 416.387L241.215 415.195L237.8 413.651L201.329 387.35L191.948 381.978L185.479 379.707L178.962 378.377L154.532 377.646L148.177 376.297L144.971 374.81L138.544 370.411L124.455 356.969L115.302 345.707L112.414 343.028L109.198 341.323L105.783 340.662L95.0053 339.708L88.1891 337.656L46.3274 313.369L42.9359 310.234L39.3545 305.569L37.4543 301.185L33.4597 286.788L31.5122 282.855L28.9472 279.373L22.7295 273.412L10.0944 264.111L8.59818 263.299L6.6982 261.152L2.84593 255.476L1.55392 252.108L1.00293 248.807L1.03613 245.738L1.37344 243.026L2.50383 238.153L6.28493 228.733L9.37718 223.185L34.2481 193.061L41.5109 182.464L93.5662 84.091L102.42 70.7483L113.887 57.7998L128.479 44.3335L149.165 32.829L219.156 6.3573L221.066 4.12001L223.664 3.56431L230.129 2.18206L236.608 0.799805L253.123 2.85176L269.625 4.89901L286.117 6.95105L302.656 9.0125L317.372 10.9505L332.102 12.898L346.831 14.8456L361.547 16.7883L369.798 17.8856H369.812L369.888 17.9045L369.902 17.9093L371.712 21.011L378.832 33.209L387.031 55.724L387.719 59.9753L388.285 69.0621L389.705 74.1968L391.724 79.1653L393.961 82.9795L397.115 85.9008L400.506 88.2995L403.271 91.197L404.501 95.662L412.438 95.5861L438.715 95.3058L465.002 95.0255L491.288 94.7548L517.537 94.484L521.028 98.189L522.857 99.5048L526.681 101.272L527.26 102.493L528.609 109.85L528.633 115.474L527.331 119.227L523.94 117.982L523.218 119.089L523.037 119.574L522.857 120.277L525.745 120.481L528.201 119.854L530.039 118.282L531.013 115.683L532.723 116.833L532.637 118.339L531.013 121.421L530.11 125.81L530.001 127.786L530.761 131.748L532.637 135.111L544.978 148.796L545.738 150.81L543.61 154.025L542.517 157.165L542.384 160.452L543.215 164.029L544.693 166.694L549.371 173.158L550.359 174.897L550.141 176.859L549.96 177.49L552.283 178.901L557.337 181.191L558.947 181.376L564.001 181.191L565.298 181.571L568.257 183.205L570.039 183.58L570.642 184.031L570.571 185.071L570.091 186.23L569.535 187.005L568.585 187.442L567.588 187.38L566.505 187.005L563.968 188.278L563.308 189.346L563.498 191.674L564.918 193.906L567.877 196.956L571.269 199.654L574 200.818L574.071 201.559L577.392 206.57L583.348 212.503L584.046 214.189L582.735 217.557L582.555 219.68L582.674 221.646L583.168 222.501L582.845 223.684L581.51 226.335L579.634 229.099L577.624 230.586L578.66 228.629L578.879 227.223L578.555 223.124L579.002 220.777L579.857 219.433L580.351 218.065L579.653 215.657L577.463 217.984L575.055 224.197L572.575 225.926L575.292 218.72L575.606 216.801L574.874 213.638L573.682 213.875L572.433 216.146L569.64 227.893L569.545 230.586L569.207 230.994L568.704 232.096L568.885 233.008L570.556 232.871L571.373 232.068L572.418 229.27L573.501 228.211V235.664L574.09 237.435L575.463 237.203L576.86 235.782L577.629 234.011L578.665 235.844L578.831 238.058L578.555 240.841L580.422 241.563L581.842 240.737L582.925 239.122L583.685 237.435L583.747 240.314L583.434 241.335L582.674 242.095L583.396 243.61L583.239 244.627L582.275 245.178L580.65 245.301L582.156 248.954L582.674 249.966L579.078 248.151L577.586 248.18L576.542 249.966L579.648 251.277L582.308 251.115L584.379 249.543L585.714 246.555H586.725L587.737 248.93L585.932 250.764L585.319 254.036L586.151 256.725L588.749 256.806L589.832 255.585L589.181 254.417L588.036 253.277L587.737 252.151L588.891 250.617L590.478 249.747L593.884 248.935L596.757 248.664L598.705 249.629L603.973 254.531L609.421 257.352L610.865 259.342L608.015 261.371L610.119 262.373L611.995 262.15L612.884 260.976L612.052 259.091L614.542 260.216L617.116 260.924L622.735 261.371L623.975 261.01L626.597 259.442L627.789 259.091L629.342 259.281L632.268 260.136L633.869 260.326L636.852 261.214L639.127 263.337L642.519 268.192L643.588 269.127L644.647 269.712L645.621 270.415L646.547 271.711L646.917 272.98L647.207 275.948L647.639 277.293L645.773 277.388L644.666 276.575L644.257 275.008L644.533 272.847H643.521L640.415 276.59L632.268 275.72L629.371 278.542H628.288L627.276 275.682L624.716 275.654L619.111 278.542L620.336 279.245L623.585 280.171L625.257 280.912L626.568 281.886L627.433 282.755L628.469 283.539L630.297 284.318L631.261 285.61L632.007 286.194L632.824 285.923L635.327 283.425L635.351 283.078L636.144 282.366L636.482 281.397L636.914 280.86L637.902 281.43L639.033 282.427L640.405 283.078L639.37 285.382L637.964 286.531L636.505 287.363L635.351 288.764L634.919 290.593L634.824 294.915L634.43 296.825L636.007 296.392L637.74 295.471L639.45 294.226L640.942 292.844L642.628 292.25L644.6 292.806L647.644 294.554L646.476 297.789L646.922 300.986L647.991 304.23L648.571 307.621L648.281 314.727L649.098 317.715L651.601 317.364L651.435 320.394L652.446 321.525L654.033 321.159L655.643 319.639L654.897 317.15L656.232 315.554L658.531 315.407L660.673 317.368L661.585 316.129L662.369 318.005L661.937 319.682L661.129 321.449L660.673 323.619L660.17 324.892L658.897 325.434L657.249 325.462L655.648 325.22L656.826 327.139L660.412 327.861L661.59 329.856L663.082 328.958L664.032 327.571L665.728 324.189L665.846 324.93L665.979 325.025L666.231 324.978L666.734 325.215L665.252 328.184L666.478 328.678L670.245 327.486L672.553 327.904L676.548 329.642L678.928 329.851L674.923 325.472L673.707 322.869L675.921 320.679L677.75 320.603L679.179 321.529L680.476 322.631L681.953 323.049L683.108 322.536L685.972 319.644L685.454 322.28L684.096 326.317L683.977 328.716L684.865 332.516L685.673 334.611L686.48 335.523L689.249 336.829L691.943 339.945L700.474 353.397L704.806 358.817L706.103 359.829L710.301 361.691L711.66 362.793L713.826 365.054L715.355 366.227L724.547 370.464L730.285 374.691L733.567 375.057L736.996 374.862L740.678 375.38L745.238 378.031L749.522 382.234L756.923 392.342L759.45 396.869L770.218 404.688L772.659 407.414L773.163 411.656L766.484 405.68L762.912 403.405L754.828 402.393L752.733 401.681L751.303 399.824L750.173 393.72L748.876 394.755L747.527 397.558L746.829 400.246L746.71 402.313L746.758 404.293L747.237 406.113L748.297 407.704L749.774 409.276L750.173 410.112L749.56 420.23L749.779 422.989L753.759 435.563L755.422 438.232L757.854 440.631L760.547 442.312L773.225 446.72L777.557 450.601L780.169 456.216L781.252 463.74L781.167 481.685L780.611 485.599L779.096 488.881L776.198 490.739L776.127 488.207L774.973 487.342L773.396 487.917L772.085 489.727L773.035 493.869L772.65 500.229L771.472 506.694L770.137 511.178L767.838 509.449L767.187 507.098L767.249 504.509L767.021 502.086L765.986 500.106L764.661 498.795L763.264 497.745L762.062 496.477L761.255 495.854H760.571L760.115 495.451L759.825 490.886L759.526 489.779L758.946 488.497L757.792 486.872L755.987 485.067L754.025 483.989L752.339 484.549L748.477 492.045L747.285 493.09L745.661 494.116L746.42 496.334L747.983 498.476L748.838 499.279L749.161 500.486L750.534 502.856L750.776 504.438L750.282 504.846L749.261 505.212L748.225 505.886L747.755 507.14L748.102 509.539L748.658 511.867L748.776 514.242L747.755 516.792L750.244 517.657L752.339 516.351L753.398 513.881L752.795 511.168L754.215 511.596L755.227 512.432L756.923 514.541L757.716 514.916L758.353 514.755L758.785 514.883L758.941 516.175L758.956 517.172L759.122 517.695L759.554 517.89L760.457 517.904L764.209 518.816L765.715 521.029L766.484 523.955L768.109 526.891V528.017L765.159 531.104L766.722 538.809L770.208 547.311L773.158 552.797L782.05 563.523L785.779 569.745L787.294 577.54H786.368L783.784 569.731L782.748 568.477L780.958 568.068L778.792 567.047L776.949 565.784L775.096 563.015L772.764 561.157L770.622 560.896L770.128 564.102L771.211 566.392L775.001 569.156L776.193 570.824L776.977 569.17L777.205 568.477H778.217L783.836 580.281L800.68 602.083L804.565 605.513L804.133 603.328L803.159 600.782L802.751 598.663L804.047 597.785L805.61 597.044L806.285 597.409L806.888 601.01L807.634 601.888L808.356 602.368L808.679 602.763L809.871 605.033L812.616 606.325L817.67 607.845L818.943 609.436L821.808 616.789L820.701 617.906L822.506 620.423L824.501 624.755L826.159 629.467L826.857 633.082L826.686 635.119L825.917 638.753L825.75 640.9L826.073 642.981L826.757 644.458L827.441 645.57L828.272 648.391L830.4 652.353L830.776 654.851L829.859 661.529L831.051 668.165L832.338 671.937L833.901 673.889L835.032 670.74L838.855 673.913L842.874 679.019L844.546 681.689L847.035 684.149L849.956 694.922L853.675 697.368L856.611 700.176L857.884 706.407L858.221 716.382L858.834 718.273L860.097 721.114L861.66 723.835L863.247 725.369L865.437 725.322L868.629 722.144ZM684.965 293.438L687.877 294.678L695.757 296.953L703.205 299.105L700.488 300.145L698.227 299.618L696.051 298.554L693.596 297.979L691.154 298.311L688.869 299.252L686.775 300.667L684.97 302.415L683.792 301.138L683.635 301.247L682.951 301.38L681.749 300.506L680.956 300.145L680.932 300.14V299.105L682.903 298.25L683.288 297.338L682.661 296.316L682.025 295.675L681.436 295.086L679.92 294.369L678.296 294.625L676.719 295.248L675.337 295.599L673.46 296.373L671.594 298.335L669.96 300.948L668.829 303.655L668.444 299.323L671.19 295.058L675.484 291.975L679.925 291.153L681.583 291.443L682.847 292.051L684.965 293.438Z" fill="springgreen" stroke="#808080" stroke-linecap="round" stroke-linejoin="round"/>
</svg>
