<svg width="1048" height="619" viewBox="0 0 1048 619" fill="none" xmlns="http://www.w3.org/2000/svg">
<path d="M355.215 88.8838L354.925 88.5703L335.688 67.6371L316.45 46.6896L322.122 44.9891L353.073 35.7028L389.695 24.7066L426.318 13.6961L434.991 11.0884L462.94 2.6856L468.27 1.14185L450.467 67.3141L449.802 73.1186L450.628 83.8346L451.36 88.3708L451.497 89.4586L452.001 91.6816L453.084 94.5363L455.445 97.5526L468.179 106.768L472.673 111.242L477.561 118.115L481.755 125.554L484.434 131.548L489.412 140.436L492.024 143.632L495.174 146.368L498.427 148.359L501.729 149.769L508.36 151.261L515.451 151.755L581.31 145.119L626.801 138.327L646.456 138.821L746.377 154.296L751.289 155.602L754.794 157.545L758.286 160.105L769.087 169.947L772.935 172.023L777.917 174.032L791.835 176.996L872.675 178.996L881.529 177.771L896.007 177.6L901.745 179.153L906.514 181.347L935.993 205.183L939.935 207.221L944.961 208.869L952.988 209.909L964.958 210.028L982.376 212.45L986.822 213.989L992.308 217.49L995.311 220.649L999.044 225.342L1000.82 228.182L1007.63 243.701L1011.77 251.31L1014.45 255.029L1021.59 262.017L1043.7 279.245L1046.43 282.313L1047.48 285.653L1046.75 289.035L1044.23 292.592L1037.62 299.447L1025.31 309.26L901.849 386.424L885.837 398.764L882.256 402.308L879.358 405.818L877.297 409.352L876.176 412.972L875.577 416.544L871.834 472.95L871.606 474.137L870.965 476.565L869.611 479.695L867.113 483.291L846.279 504.039L837.012 501.835L833.758 502.196L777.808 525.247L722.984 556.635L697.134 563.827L641.208 590.465L637.607 592.707L634.263 595.305L618.113 613.084L612.332 608.387L610.271 607.408L607.606 606.563L603.873 606.373L598.776 607.137L594.534 608.401L579.049 616.3L575.282 617.692L571.639 618.309L568.11 617.849L564.847 615.635L562.624 613.07L558.444 603.029L551.936 603.181L549.2 602.905L546.037 601.675L541.125 598.815L537.686 597.937L532.865 599.195L528.97 601.238L524.058 602.782L518.743 602.976L489.217 599.974L480.088 598.06L463.847 592.403L456.988 588.57L447.265 580.328L444.562 577.046L442.287 573.545L440.52 570.116L438.25 564.43L436.644 557.229L435.58 547.515L435.167 532.719L436.616 505.587L435.951 501.74L434.269 498.453L431.543 496.139L428.332 495.408L425.092 496.671L415.963 505.378L406.007 511.767L403.052 514.484L400.801 517.776L399.034 521.291L393.115 536.733L391.258 540.143L388.897 543.06L385.382 544.846L381.302 545.786L355.818 544.285L343.52 541.72L321.115 534.192L312.626 532.923L300.922 532.966L265.416 540.704L249.266 546.907L246.839 547.05L243.281 546.827L237.139 544.832L236.132 544.271L235.206 543.321L197.13 493.375L192.356 489.024L185.702 484.53L182.172 482.816L153.197 475.657L143.564 475.686L131.96 477.866L112.343 479.111L82.0234 484.948L75.7153 486.934L70.6186 489.565L65.5076 494.406L62.9664 495.788L59.2898 496.448L38.2616 494.439L26.2584 491.442L21.1189 491.271L16.0791 492.23L3.56762 492.501H3.5391L3.42038 491.646L0.9646 490.872V489.836L3.1401 486.112L5.53413 479.12L6.64085 471.948L4.97836 467.696V465.383L6.67412 462.239L8.0801 458.586L11.0394 443.443L11.7233 441.244L13.3716 437.448L13.1531 436.394L13.3716 433.976L14.7919 432.551L18.2071 430.623L17.1953 427.773L16.8106 424.049L17.3664 421.574L19.1001 422.519L19.2711 421.973L19.2949 421.503L19.4849 421.256L20.2069 421.36L19.0906 418.843L18.6916 415.974L19.2901 413.466L35.6871 416.349L53.2431 419.408L76.2378 423.393L96.7864 426.965L118.727 430.756L136.202 433.8L144.624 435.268L161.657 438.213L177.028 440.878L181.075 440.721L184.866 439.173L200.906 425.901L216.534 412.934L233.724 398.674L245.124 389.217L254.61 373.11L263.825 357.454L270.622 345.892L278.797 331.965L282.326 328.151L286.392 326.108L299.212 323.429L312.37 320.698L333.636 316.257L354.735 311.849L374.519 307.721L391.937 304.097L395.115 301.256L401.684 285.182L406.572 273.274L411.887 260.316L416.224 249.69L418.148 246.593L421.572 243.724L437.627 234.676L455.487 224.62L466.303 218.54L467.296 217.927L467.434 217.875L467.495 217.804L467.448 217.69L460.128 209.078L443.916 189.978L427.676 170.864L411.45 151.722L395.238 132.546L394.763 131.995L394.307 131.444L393.832 130.893L393.372 130.347L374.134 109.47L355.215 88.8838Z" fill="springgreen" stroke="#808080" stroke-linecap="round" stroke-linejoin="round"/>
</svg>
