<svg width="859" height="594" viewBox="0 0 859 594" fill="none" xmlns="http://www.w3.org/2000/svg">
<path d="M833.009 277.96L826.882 283.674L815.415 299.416L813.558 301.102L810.936 302.703L807.91 303.396L804.633 303.244L794.719 301.126L779.424 300.404L775.772 299.302L769.279 295.302L750.402 280.045L739.852 268.598L734.414 264.028L731.069 262.095L727.668 260.908L724.344 260.413L720.924 260.67L717.461 261.463L710.212 264.285L654.124 293.098L643.095 300.309L635.889 307.296L630.655 314.012L624.536 327.179L622.361 330.946L619.212 334.684L614.139 338.299L580.328 352.815L562.597 364.306L523.675 395.936L506.333 415.948L502.134 423.149L499.635 429.024L498.604 432.516L496.605 435.461L493.717 437.085L486.696 438.776L483.053 439.08L479.538 438.695L476.308 438.752L473.411 440.192L471.278 442.871L467.953 449.673L465.568 456.655L464.941 460.023L464.699 463.371L464.927 466.654L467.563 480.068L467.725 481.493L467.772 484.058L467.293 486.998L465.507 489.511L462.656 490.428L459.265 490.242L455.726 489.435L444.075 484.879L441.552 484.196L438.427 484.547L434.874 486.176L431.131 490.238L429.207 493.928L428.38 497.762L428.722 501.353L429.777 504.948L436.66 517.816L437.529 519.887L437.942 522.433L437.139 525.103L434.527 527.349L431.126 528.356L416.862 529.795L412.202 531.154L406.635 533.505L382.985 546.478L377.845 547.869L368.991 548.91L363.049 550.9L357.321 556.153L344.562 552.558L303.294 546.06L277.72 547.138L273.54 548.088L268.5 549.969L264.529 552.448L261.161 555.446L250.336 568.974L247.325 571.814L244.46 573.985L241.781 575.462L239.782 576.289L236.87 577.163L233.844 577.766L227.465 578.359L209.847 577.913L202.437 579.224L165.729 592.182L162.266 592.776L158.851 592.909L155.521 592.415L152.382 591.427L149.703 590.059L147.974 588.757L145.589 586.287L143.618 583.314L141.936 579.371L141.143 574.887L142.473 531.344L139.875 514.9L135.22 496.807L134.626 492.85L134.74 487.839L142.953 432.573L142.473 429.02L141.115 425.685L137.885 423.011L134.379 422.844L127.292 424.322L123.915 424.032L120.752 422.73L117.978 420.189L116.41 416.703L116.21 412.722L118.02 407.645L123.359 397.803L124 395.841L125.316 389.846L125.454 386.141L125.012 381.985L124.395 378.803L121.735 371.749L123.958 370.086L126.485 366.557L129.282 361.28L137.795 334.523L142.274 325.455L148.919 316.482L167.069 300.584L169.885 297.435L172.199 294.072L173.529 290.719L174.032 287.213L173.391 283.798L170.161 279.874L166.831 277.001L148.919 267.434L143.305 263.439L140.982 261.316L138.669 258.138L137.063 254.889L121.027 189.562L119.445 185.952L117.498 182.423L108.772 173.74L91.4155 159.391L82.5092 155.025L77.973 151.867L74.6907 148.546L74.1397 147.767L70.8622 144.124L65.3095 141.06L57.282 137.911L9.66801 126.54L6.12928 125.133L3.67825 123.642L1.11328 120.08L17.2633 102.3L20.6072 99.702L24.2078 97.46L80.1342 70.822L105.984 63.6305L160.808 32.2425L216.758 9.19074L220.012 8.82972L229.28 11.0337L246.185 18.1777L254.834 20.4577L258.259 20.51L336.753 2.32696L347.369 0.958984L353.425 1.12525L358.337 1.89948L394.166 13.6367L399.329 14.4869L403.319 14.5487L407.062 13.9835L424.932 9.32374L441.011 8.34049L444.725 8.578L495.189 20.4339L502.005 23.1842L505.373 25.3265L508.679 28.1052L526.639 49.7177L530.957 53.4322L535.997 56.5625L543.359 59.289L548.707 60.0965L553.633 59.8495L557.994 58.7617L562.212 57.142L574.144 50.4397L578.248 48.6395L582.542 47.6895L587.7 47.7038L590.778 49.3757L592.132 50.9195L592.474 52.278L593.115 64.799L593.529 67.117L594.512 70.7317L596.849 75.743L600.226 79.6712L605.299 82.906L609.422 84.0507L613.293 84.4782L627.999 83.0152L633.096 83.4427L637.129 84.673L652.866 92.938L658.532 94.9378L662.475 95.3035L665.738 94.8427L671.728 91.9025L688.947 80.7352L693.103 78.9635L698.176 78.5455L702.047 80.0323L705.462 82.7207L708.061 86.041L733.017 131.337L745.448 164.373L750.568 171.569L754.097 174.942L758.068 177.92L763.156 180.442L767.198 181.834L812.779 188.769L817.842 190.793L824.588 194.507L827.955 196.806L852.432 218.998L856.313 223.516L858.331 228.351L849.729 231.591L849.406 231.771L847.459 233.286L842.751 237.732L838.923 242.591L834.905 249.308L832.544 254.524L830.986 259.72L830.506 263.002L830.368 266.479L830.572 269.947L832.107 275.78L833.009 277.96Z" fill="springgreen" stroke="#808080" stroke-linecap="round" stroke-linejoin="round"/>
</svg>
