<svg width="261" height="304" viewBox="0 0 261 304" fill="none" xmlns="http://www.w3.org/2000/svg">
<path d="M236.853 254.638L236.91 254.88L236.007 257.758L233.485 258.238L227.548 256.419L223.852 255.725L221.957 256.533L221.225 258.651L221.026 261.914L220.432 264.831L216.613 274.906L214.765 277.551L211.573 279.96L205.109 283.803L202.938 284.582L197.195 285.65L195.623 286.334L195.058 288.348L195.457 290.69L195.623 293.184L194.355 295.654L190.55 298.314L185.354 300.537L178.285 303.04L178.081 302.622L178.105 297.045L177.069 295.445L179.093 290.419L178.105 287.484L170.937 279.361L169.298 275.875L168.748 272.92L168.89 266.161L170.624 259.582L170.576 256.756L167.907 256.1L168.895 254.951L167.113 253.274L165.631 250.899L165.285 248.695L166.895 247.57L165.992 246.026L161.841 242.307L160.9 241.195L159.024 238.407L155.561 234.516L154.55 233.79L149.823 231.177L148.341 231.001L146.707 231.866L141.668 224.812L143.724 218.006L142.665 215.521L142.679 207.931L142.029 205.29L140.599 204.364L139.179 203.646L138.552 201.594L137.374 200.236L134.681 200.022L131.65 200.198L129.546 200.008L127.741 198.379L126.259 195.89L124.416 191.567L123.755 189.301L123.01 183.996L122.312 181.872L120.963 180.67L114.308 177.745L114.678 180.414L115.747 182.87L118.345 187.249L115.348 189.149L116.839 199.267L115.229 202.122L114.389 198.906L114.303 188.304L113.69 185.131L111.705 179.112L109.121 158.108L108.171 154.398L107.511 151.653L108.389 143.934L108.171 140.642L107.088 137.194L106.147 135.755L104.694 135.161L103.178 135.085L102.024 134.771L101.278 134.016L101.012 132.662L100.096 130.886L84.169 117.13L82.8342 116.693L82.402 117.534L81.3902 116.194L79.8037 112.945L76.8825 108.798L76.018 106.186L75.4053 104.984L74.3223 104.466L70.964 105.174L69.4488 104.809L68.7979 102.875L68.0523 101.536L61.6539 94.8383L61.3879 95.1467L60.4618 95.5744L59.3455 95.8973H58.5285L57.1082 94.477L52.5624 87.9458L51.0472 87.1242L42.2882 78.8401L39.0868 80.1653L33.553 76.294L30.1852 76.8118L28.8124 72.7365L26.2142 70.1382L23.0364 67.9389L20.0772 65.0557L13.869 57.0757L12.9285 54.4442L13.1469 52.4823L13.5792 50.7486L13.337 49.5089L11.4466 49.0291L10.3634 48.5684L10.145 47.4285L10.2163 46.0603L9.98828 44.8824L3.75622 39.2583L1.48096 36.0379L2.81573 33.1167L2.01774 32.1145L2.04151 32.0811L2.05572 32.0574L4.73469 25.5737L6.26893 22.8947L8.56798 20.3344L11.3894 18.3917L20.4953 13.3567L23.1553 10.5636L24.9745 8.20764L27.6773 2.09923L44.3544 0.783447L50.14 2.40321L51.6743 4.83996L52.249 7.7042L52.4533 10.8344L49.3373 29.5067L49.1472 33.0454L49.4274 36.665L50.7338 40.8923L53.1847 43.1676L56.0014 43.9324L65.9195 42.6263L69.1494 42.8304L72.5647 43.7804L76.4693 46.0653L78.6684 48.5113L79.7704 50.1548L81.6134 55.8216L83.0813 58.9947L86.2209 62.8088L89.3845 64.4904L92.6904 65.3787L115.951 65.7063L119.547 66.5328L123.703 68.7463L126.525 71.7009L128.358 74.9975L129.55 78.2321L131.313 81.8088L133.816 85.6563L147.62 99.9017L151.225 102.315L154.569 103.64L157.58 103.644L160.307 102.581L162.439 100.263L163.679 97.2701L170.424 71.6629L173.706 65.4308L175.744 62.5288L178.333 59.7783L184.527 55.1472L191.343 51.2093L192.602 50.9625L198.33 52.0929L200.24 54.4584L200.995 57.3796L200.539 63.8111L201.503 67.5968L203.864 71.5916L215.293 80.9159L219.026 84.6352L221.088 87.8748L225.838 97.7545L228.037 100.647L230.797 102.842L242.149 106.879L245.151 109.511L247.692 112.679L259.947 131.299L254.195 134.928L241.313 146.057L234.207 154.835L233.789 155.548L242.239 158.35L245.142 160.583L246.671 163.903L246.144 167.005L242.828 168.653L239.451 169.423L235.542 171.095L232.478 173.541L231.576 176.595L231.713 180.172L230.873 183.312L227.771 189.434L226.902 192.641L227.495 195.134L228.654 197.709L229.495 201.119L229.481 204.492L228.84 207.456L226.455 213.422L225.462 217.265L226.042 219.882L229.158 225.91L230.944 231.553L232.649 232.958L238.135 234.493L239.655 235.69L240.658 237.367L240.857 239.371L240.23 240.991L239.114 241.803L237.755 242.402L236.425 243.366L234.302 246.572L234.625 248.695L235.969 251.047L236.853 254.638ZM89.1375 251.446L89.1185 253.626L88.6958 256.4L87.6744 259.763L88.0497 262.347L89.3987 266.921L87.9262 270.032L87.9738 270.284L84.6155 270.051L80.4972 265.054L77.139 263.833L73.9708 263.61L72.3985 262.209L76.5738 260.461L78.9678 258.499L78.0035 255.317L74.2558 253.303L70.4842 253.868L66.1189 254.229L63.136 254.998L60.3477 256.561L57.9585 257.929L54.9898 256.917L51.6457 253.716L49.2849 251.517L45.9172 250.7L41.97 247.893L38.417 245.09L36.6501 241.903L35.6904 237.134L33.1207 235.329L30.5367 235.31L28.7745 234.901L29.1592 233.875L28.9787 230.536L26.8127 227.743L25.44 224.755L25.6584 221.977L27.8435 222.589L28.632 223.786L30.4132 225.187L36.1607 227.81L39.3147 231.405L40.887 233.6L41.457 237.371L41.3667 239.152L44.0029 242.15L46.5632 244.349L47.5512 244.952L52.9092 244.397L54.6714 247.185L57.645 247.408L60.6279 246.439L63.2072 246.263L64.979 248.064L64.9648 249.85L66.7507 249.864L71.1302 247.916L66.9739 247.09L64.7937 243.684L66.5844 240.901L67.6912 236.502L68.6554 234.992L70.774 234.664L71.7097 235.039L72.8878 235.514L76.9633 238.041L77.139 240.62L79.0959 243.812L78.8063 245.47L82.4447 246.021L83.409 249.004L89.1375 251.446ZM49.589 238.226L47.4183 236.426L45.257 233.633L41.5188 228.845L38.3742 224.456L37.182 222.708V222.694L38.8444 221.221L42.4165 221.007L45.0147 220.214L46.9291 218.58L48.4205 215.854L49.9358 215.977L50.2112 216.001L51.0044 212.933L49.8835 209.213L47.898 208.306L45.9125 207.399L43.9983 207.242L40.6638 206.51L38.835 206.349L38.4739 205.67L39.6045 204.425L41.001 203.855L41.3619 205.195L46.15 205.665L49.9168 207.195L52.4295 210.149L52.5624 210.776L53.4649 214.875L53.5125 217.815L52.6907 221.183L53.2655 223.967L58.0203 225.197L59.3835 228.579L53.3082 228.669L51.565 230.93L52.4295 233.557L56.049 234.825L58.1058 236.084L60.8939 237.319L61.8582 241.095L61.844 242.881L57.5025 240.269L52.1587 238.64L49.589 238.226Z" fill="springgreen" stroke="#808080" stroke-linecap="round" stroke-linejoin="round"/>
</svg>
