<svg width="788" height="802" viewBox="0 0 788 802" fill="none" xmlns="http://www.w3.org/2000/svg">
<path d="M276.44 652.053L276.003 648.733L275.447 644.206L274.578 640.682L274.236 637.808L271.756 635.157L270.664 633.372L270.193 630.702L269.989 628.075L266.693 629.952L265.239 629.006H264.033L264.175 631.709L265.572 633.125L269.291 634.502V635.618L264.346 635.153L261.102 632.108L260.978 624.266L254.419 615.754L250.946 604.667L249.911 600.995L249.26 597.001L248.177 593.253L245.869 590.337L244.401 589.586L242.8 589.23L240.33 588.394L238.934 586.769L238.25 584.446L237.067 581.616L235.271 579.283L232.84 578.518L230.446 577.834L228.441 576.709L226.992 575.578L225.548 572.856L223.149 570.016L221.976 569.042L219.539 567.266L216.518 566.335L214.096 566.012L210.576 563.661L208.667 562.231L205.75 559.481L202.938 555.923L199.912 553.571L197.39 551.23L192.959 546.94L191.766 546.342L190.555 546.029L189.239 546.627L188.023 547.425L184.694 545.121L182.385 543.264L176.3 539.374L171.702 535.825L172.562 533.892L175.117 532.087L178.761 531.508L177.312 530.04L175.122 530.752L172.324 532.187L171.242 530.116L172.952 527.337L173.569 524.796L171.992 524.178L171.018 525.385L169.199 525.736L168.344 527.309L169.189 528.164L169.669 529.622L169.902 531.683L170.016 533.142L169.161 534.106L165.893 532.871L161.404 534.058L154.683 528.905L152.65 527.033L146.912 522.473L145.592 519.196L143.658 517.856L141.117 516.635L138.457 515.168L136.286 513.101L133.384 511.149L129.869 511.258L128.188 511.073L125.974 512.736L125.494 514.878L126.33 518.151L120.032 518.374L118.464 515.947L114.109 513.876L110.712 514.959L107.449 511.558L105.397 507.914L102.134 503.302L96.923 498.804L95.232 493.341L96.695 490.069L97.7875 490.434L100.699 492.382L101.92 489.836L100.951 486.801L90.0355 470.831L90.3537 469.763L92.1588 460.277L93.1658 457.237L94.7713 454.334L97.208 451.75L100.234 450.235L103.169 449.489L115.31 449.513L120.972 448.744L124.259 447.818L127.765 446.464L131.37 444.036L134.966 440.55L138.913 435.52L142.077 432.185L145.33 430.233L148.57 429.658L151.847 429.829L158.526 430.998L165.613 431.321L169.37 430.656L172.952 428.955L176.367 426.205L179.302 422.025L180.756 418.956L181.35 416.643L179.516 362.935L184.741 325.761L184.418 322.517L183.297 319.591L181.397 317.629L179.397 316.504L176.281 315.843L166.947 315.402L164.611 314.741L163.67 314.338L163.19 313.863L161.875 310.623L156.673 290.616L152.175 278.238L149.862 273.654L147.753 270.552L145.04 267.279L125.822 251.096L123.3 247.994L121.481 244.674L120.198 241.202L117.928 232.22L117.514 231.588L116.574 230.624L114.213 228.847L87.803 213.6L84.5018 213.096L81.3858 214.288L76.0373 218.678L73.7002 219.276L72.5793 217.309L71.653 214.445L70.1425 207.79L68.0098 201.05L59.4075 183.66L58.4243 180.188L58.125 176.82L58.3768 173.424L59.0418 170.061L61.7445 163.33L70.8027 148.354L71.957 145.732L72.6695 142.283L72.4843 138.355L70.988 134.341L68.3518 131.458L65.1645 129.615L48.188 124.613L44.673 123.093L41.3955 120.894L38.2035 117.835L35.7287 114.538L33.7575 111.133L32.361 107.665L31.3065 104.027L30.689 100.103L30.4135 93.1587L33.5295 70.6152L33.8288 61.3859L33.4868 57.1679L31.24 46.9982L29.9718 43.9962L28.7795 42.1105L26.5565 39.6785L23.944 37.9067L21.2793 36.876L19.517 36.5909L16.7668 36.7049L7.11002 38.548L3.9418 38.3152L1.41953 36.6052L0.802002 33.9262L1.74249 30.9955L4.30753 28.459L7.45676 26.9247L24.4523 22.645L62.3905 4.65673L65.744 3.61172L69.753 3.49771L74.3463 4.40972L80.9298 7.23119L93.427 15.1447L97.7875 16.9782L103.953 18.1039L107.259 18.2464L110.717 17.7192L114.023 16.5555L141.687 1.52171L144.252 1.34595L147.012 2.15344L150.931 5.05094L153.016 7.91047L154.308 10.637L158.454 25.8655L161.319 32.8005L164.259 38.415L172.472 51.069L175.816 54.014L180.086 56.199L186.48 57.4055L201.414 58.0373L204.629 58.5455L207.698 59.6142L210.196 61.4905L211.526 63.9177L211.802 65.8605L211.826 66.6775L211.735 67.3995L211.688 68.6772L211.939 71.3372L213.046 74.249L215.454 76.871L224.513 82.6517L227.035 85.4019L228.066 88.5133L228.09 91.881L227.676 95.3437L227.653 98.5405L229.03 101.025L232.042 101.937L236.649 100.744L240.506 98.303L253.816 87.682L255.877 86.6607L258.993 86.0527L262.613 86.3282L267.524 87.7817L278.439 93.0305L282.045 94.2038L285.46 94.5029L289.179 92.8357L289.868 90.1472L289.502 86.9647L288.79 83.7157L288.994 80.7802L290.761 78.904L293.535 79.1605L296.96 82.1054L298.608 85.421L301.059 92.09L304.46 95.2297L309.685 97.885L328.4 104.72L346.231 118.452L351.846 120.362L359.256 121.321L374.028 121.26L435.479 111.703L438.809 112.149L442.177 114.201L444.742 116.377L449.743 123.744L452.403 130.798L453.021 133.98L453.463 138.136L453.325 141.841L452.009 147.836L451.368 149.798L446.029 159.64L444.219 164.718L444.419 168.698L445.986 172.184L448.76 174.726L451.924 176.027L455.301 176.317L462.388 174.84L465.893 175.006L469.123 177.68L470.482 181.015L470.962 184.568L462.749 239.834L462.635 244.845L463.229 248.802L467.884 266.895L470.482 283.339L469.152 326.882L469.945 331.366L471.627 335.309L473.598 338.282L475.983 340.752L477.711 342.054L480.39 343.422L483.53 344.41L486.86 344.904L490.275 344.771L493.738 344.177L530.446 331.219L537.856 329.908L555.474 330.355L561.853 329.761L564.879 329.158L567.79 328.284L569.79 327.457L572.469 325.98L575.333 323.809L578.345 320.969L589.17 307.441L592.538 304.443L596.509 301.964L601.549 300.083L605.729 299.133L631.303 298.055L672.571 304.553L685.329 308.148L688.906 309.436L708.4 314.1L714.941 316.418L717.814 318.446L720.085 321.6L721.301 325.609L721.781 329.447L718.983 371.822L719.558 375.47L720.84 379.175L723.795 383.669L726.963 386.376L730.354 388.234L749.506 393.354L751.915 394.579L753.596 395.719L753.872 396.009L756.418 400.526L758.916 406.877L766.668 437.52L769.518 444.217L771.423 447.086L773.874 449.47L786.813 459.113L786.837 464.784L785.07 471.905L783.089 476.622L782.747 477.234L775.888 486.221L773.617 490.021L772.772 492.634L772.568 495.032L772.843 496.291L774.952 501.616L775.09 505.421L774.563 511.643L771.926 523.87L770.117 551.524L770.573 566.501L751.216 563.589L741.897 564.131L738.529 565.613L735.617 567.793L733.618 570.724L732.905 574.044L733.204 577.417L737.038 588.004L737.703 591.348L738.045 594.778L737.769 601.879L736.691 605.85L734.71 610.154L730.839 616.162L727.196 619.791L723.614 622.532L697.328 634.098L678.176 644.966L671.611 649.825L667.042 654.728L665.484 658.661L666.4 662.028L668.999 664.821L672.229 667.239L688.331 675.969L690.758 678.606L691.675 682.168L690.184 686.638L687.343 689.711L683.923 691.664L666.742 698.052L662.8 700.688L658.254 704.389L637.634 725.151L595.521 758.468L589.621 765.241L579.024 781.704L575.21 785.842L571.704 787.462L568.099 787.67L545.442 780.622L541.884 780.17L537.367 781.025L531.263 784.859L516.215 797.66L513.123 799.479L512.434 799.783L508.667 800.733L505.413 801.065H501.97L492.427 799.678L491.762 799.503L488.807 797.607L487.04 794.957L486.413 791.836L486.812 788.601L488.304 782.194L489.173 775.216L489.059 771.758L488.328 768.347L486.884 765.127L484.561 762.039L481.744 759.379L479.084 757.389L474.586 755.114L464.791 752.103L461.903 750.758L459.923 748.203L459.443 745.02L460.222 741.724L468.363 722.505L469.166 719.603L470.159 711.908L470.021 707.011L469.484 704.085L468.43 701.049L466.687 698.176L464.008 695.957L460.882 695.007L457.652 694.818L443.839 696.551L412.28 706.45L401.037 708.55L397.645 707.025L396.04 704.37L395.536 697.777L394.819 694.665L393.261 691.986L390.487 690.424L386.055 690.295L370.295 693.145L364.495 693.601L359.65 692.723L356.073 690.419L352.744 687.484L341.187 673.766L329.284 663.311L327.35 661.216L321.095 651.165L318.202 648.401L314.331 647.227L309.808 647.641L299.396 650.063L280.976 651.464L276.44 652.053Z" fill="springgreen" stroke="#808080" stroke-linecap="round" stroke-linejoin="round"/>
</svg>
