<svg width="745" height="928" viewBox="0 0 745 928" fill="none" xmlns="http://www.w3.org/2000/svg">
<path d="M438.022 927.124L436.245 924.901L435.186 923.191L434.778 921.167L434.127 920.27L432.825 919.809L431.994 918.854L432.678 916.436L429.671 916.118L426.807 915.372L427.23 914.703L427.458 914.19L427.809 913.738L428.641 913.244L427.729 911.382L426.403 910.504L424.717 910.461L422.67 911.131L423.62 909.668L424.342 908.167L424.484 906.799L423.677 905.716L424.594 903.621L423.729 902.562L421.829 902.277L419.544 902.528L420.015 900.4L419.521 897.427L418.423 894.468L417.065 892.425L416.39 890.563L415.474 884.65L415.065 883.386L414.742 882.061L414.514 873.71L414.167 872.808L413.745 872.133L413.07 871.73L411.987 871.592L411.203 871.007L410.928 869.687L410.842 868.229L410.567 867.227L405.214 863.526L404.406 862.538L404.164 860.909L403.442 858.98L402.321 857.361L400.022 856.335L399.157 855.565L398.497 854.805L398.269 854.463L397.352 854.772L395.813 856.378L395.234 856.677L393.624 856.069L391.99 855.062L390.451 853.779L389.258 852.33L385.302 843.496L383.63 841.097L381.753 839.064L380.818 837.254L380.675 835.121L381.107 832.091L384.632 821.85L385.15 818.658L385.596 817.432L386.38 816.881L386.56 815.983L385.154 813.77L384.542 813.651L381.269 811.884L381.112 811.637L375.061 810.131L373.531 805.234L373.446 804.313L370.581 800.499L369.921 799.995L369.812 798.366L370.03 796.679L370.933 793.587L371.655 791.868L372.377 790.685L372.918 789.464L373.232 786.6L373.954 783.346L375.844 779.527L374.557 777.205L371.84 775.404L368.914 774.169L362.525 772.298L359.889 770.45L358.374 766.132L356.279 762.821L355.69 761.349L355.761 759.611L356.868 756L356.773 754.48L355.909 751.616L355.69 750.035L355.087 748.671L352.379 747.194L351.743 745.807L351.092 742.492L349.491 740.781L347.216 739.566L343.221 736.331L343.487 735.846L343.682 733.942L343.345 732.369L341.901 729.932L341.564 728.593L341.336 726.935L340.528 724.418L340.623 722.665L341.621 721.083L342.993 719.824L343.715 718.675L342.67 717.412L343.031 715.725L342.718 714.086L341.901 712.761L341.564 710.885L328.919 706.368L325.418 704.468L317.913 696.668L314.327 694.726V693.747L315.928 693.97L319.357 695.894L320.269 689.463L319.885 681.601L318.825 678.191L312.028 668.306L309.154 666.382L301.55 665.48L298.6 665.584L297.265 667.095L298.975 671.056L296.762 669.218L294.847 665.931L293.622 662.796L293.489 661.395L291.37 660.051L285.357 651.192L280.787 648.346L279.823 647.349L279.966 646.218L281.818 642.072L280.93 639.255L279.172 637.578L274.674 635.631L269.117 632.211L267.782 631.717L266.423 629.57L265.127 629.085L263.778 628.335L260.096 623.129L258.904 622.525L255.261 621.609L253.988 621.461L251.257 620.725L248.259 618.963L241.51 613.519L236.228 607.496L237.216 605.217L234.712 603.487L230.841 602.39L226.281 601.697L225.417 600.908L224.034 598.89L221.726 596.795L220.401 595.279L220.543 594.581L219.004 593.617L214.311 589.271L211.917 588.121L208.597 588.188L204.93 588.829L201.971 589.917L200.731 591.252L197.192 589.926L190.875 586.098L187.592 584.701L187.773 586.701L188.637 587.817L189.839 588.601L191.065 589.651L191.772 589.983L193.202 590.957L194.09 591.964L193.14 592.429L190.552 591.736L176.093 582.835L174.012 581.034L172.074 580.103L169.139 579.262L166.445 577.985L164.161 573.197L161.61 570.713L153.658 564.514L149.654 560.514L140.871 546.217L137.96 543.761V542.588L139.437 542.683L140.605 542.469L141.46 541.775L142.002 540.431L139.727 540.018L137.85 538.926L134.421 535.624L133.457 533.876L132.578 529.259L131.894 527.483L126.949 521.868L126.503 519.237L128.882 515.518L123.757 513.769L121.71 513.456L122.071 514.691L122.755 515.579L123.657 516.216L124.717 516.7L121.819 515.769L118.57 513.903L116.632 511.523L117.668 509.038L116.295 508.364L115.682 507.405L115.815 506.208L116.656 504.816L117.307 506.037L118.437 506.925L119.938 507.542L121.705 507.955L120.983 506.075L120.765 505.215L120.693 504.232L120.404 502.73L119.705 502.678L118.708 502.973L117.663 502.56L115.677 499.691L114.87 499.634L114.628 502.564L111.474 500.546L107.241 497.149L104.197 493.221L104.448 489.602L105.061 490.414L106.182 491.406L107.227 491.753L107.55 490.68L107.047 488.804L106.215 488.091L105.132 487.725L103.94 486.899L102.52 486.196L100.981 486.467L99.4181 487.103L97.9884 487.44L97.9503 486.809L93.7893 480.382L92.8536 478.088L92.4308 475.432L92.3453 471.623L91.8656 470.188L89.8468 468.801L89.4003 467.338L89.2198 465.443L88.664 464.759L87.6999 464.431L81.4678 460.004L79.8338 458.161L78.8933 453.815L77.5206 450.704L77.1975 448.861L77.5206 448.063L78.9266 446.049L79.2163 445.066L78.1951 442.781L72.6519 434.136L70.6188 432.896L65.9971 425.472L77.701 415.183L79.3493 411.326L79.5441 406.263L78.4136 401.674L76.1906 399.256V398.378L77.7771 396.981L77.5586 394.863L75.1646 389.6L73.2883 392.987L71.773 393.414L70.3766 391.628L69.0276 388.408L70.1201 387.424L67.7023 383.933L67.1751 379.273L67.3936 374.319L67.0943 369.958L65.5078 365.646L65.7976 363.29L68.5763 362.259L69.3696 361.347L70.1153 359.19L70.1865 356.697L69.0323 354.754L67.9019 358.069L67.1323 359.456L66.0018 360.192L63.9308 360.283L63.451 359.518L63.4891 358.264L62.9856 356.915L62.0356 356.046L61.3848 355.571L60.7816 354.948L60.0358 353.661L59.5894 352.189L59.3708 349.553L58.9386 348.223L58.6488 348.147L56.9151 347.135L56.6158 346.598L56.2073 345.392L55.9081 344.86L50.8968 338.49L46.6171 328.957L43.9048 315.543L44.1138 312.493L48.0278 311.016L52.0273 316.15L54.9058 316.188L55.547 312.664V309.557L55.9081 307.857L56.5208 307.249L58.5063 305.815L58.9386 304.998L59.2378 301.981L60.6343 295.65L60.9573 292.415H60.031L57.9268 297.868L56.9151 295.526L57.4186 293.788L58.3923 292.073L58.9339 289.745V283.195L60.0263 278.887L64.8856 273.239L66.4008 266.466L67.4458 264.893L68.7806 263.559L70.1153 261.882L72.1388 257.412L74.6753 254.823L75.1551 254.149V252.13L74.3619 250.297L72.9179 249.256L71.0416 249.674L70.0441 251.223L69.0228 255.778L68.0681 257.417L64.4391 258.115L64.2871 253.531L66.1871 246.848L65.0281 238.099L66.1063 229.164L64.9949 224.78L63.85 222.637L59.7603 217.009L55.8986 208.045L53.0248 203.253L51.9419 200.735L52.3266 198.792L56.2263 195.173L55.9841 193.919L48.8876 185.977L45.9996 183.588L44.7123 184.367L45.2538 185.26L47.8521 188.015L48.8401 189.449L49.3198 191.159L49.4765 192.788L49.8376 194.384L50.8493 196.009L49.7568 197.106L47.8093 192.608L43.6911 186.186L39.6631 181.669L32.0346 167.78L32.0583 165.604L36.3808 167.974L41.1783 178.652L43.7908 179.488L45.4011 180.486L46.8213 180.258L47.9756 179.108L48.8401 177.294L47.3011 175.451L44.7978 170.606L43.2588 169.627L42.1759 169.162L40.9741 167.979L40.0621 166.374L39.6631 164.635L38.3758 162.089L35.4166 160.859L32.0488 160.028L29.5693 158.655L26.5958 159.263L24.4298 156.703L21.3993 149.882L23.0476 148.248L24.2968 146.11L25.1376 143.764L25.4368 141.512L25.071 136.914L24.3728 134.439L24.2446 132.454L22.5156 131.656L21.1808 134.112L19.3331 130.606L16.7585 127.091L14.0321 121.738L11.3958 118.603L10.289 115.059L8.47931 112.613L8.0661 110.428L6.78358 107.649L6.80736 105.322L5.6911 100.51L3.69133 96.7054L1.80085 92.0455L1.40186 89.0246L5.94283 88.4736L24.3634 87.0723L34.7753 84.6498L39.2973 84.2366L43.1686 85.4098L46.0613 88.1743L52.3171 98.2253L54.2503 100.32L66.1538 110.775L77.7105 124.493L81.0403 127.428L84.6171 129.732L89.462 130.611L95.2618 130.155L111.022 127.305L115.454 127.433L118.228 128.996L119.786 131.675L120.503 134.786L121.007 141.379L122.612 144.034L126.004 145.559L137.247 143.46L168.806 133.56L182.619 131.827L185.849 132.017L188.975 132.967L191.654 135.185L193.397 138.059L194.451 141.094L194.988 144.02L195.126 148.917L194.133 156.612L193.33 159.515L185.189 178.733L184.41 182.03L184.89 185.212L186.87 187.768L189.758 189.112L199.553 192.123L204.051 194.399L206.711 196.389L209.528 199.049L211.851 202.136L213.295 205.357L214.026 208.767L214.14 212.225L213.271 219.203L211.779 225.611L211.38 228.846L212.007 231.966L213.774 234.617L216.729 236.512L217.394 236.688L226.937 238.075H230.38L233.634 237.742L237.401 236.792L238.09 236.488L241.182 234.669L256.23 221.868L262.334 218.035L266.851 217.18L270.409 217.631L293.066 224.68L296.671 224.471L300.177 222.851L303.991 218.714L314.588 202.25L320.488 195.477L362.601 162.16L383.221 141.398L387.767 137.698L391.709 135.062L408.89 128.673L412.31 126.721L415.151 123.647L416.642 119.178L415.725 115.615L413.298 112.979L397.196 104.248L393.966 101.831L391.367 99.0376L390.451 95.6698L392.009 91.7368L396.578 86.8349L403.143 81.9756L422.295 71.1076L448.581 59.5414L452.163 56.8006L455.806 53.1716L459.677 47.1628L461.658 42.8592L462.736 38.8883L463.012 31.787L462.67 28.3576L462.005 25.0136L458.171 14.4258L457.872 11.0533L458.585 7.73305L460.584 4.80228L463.496 2.62211L466.864 1.14005L476.183 0.598633L495.54 3.51027L494.024 18.8243L494.48 28.9514L495.559 32.2145L497.302 34.5136L498.931 35.986L504.394 39.2636L507.533 41.6861L510.545 44.8923L513.366 49.8275L521.19 75.3778L525.018 83.7568L526.348 87.8323L530.709 110.789L549.747 156.394L551.219 158.631L553.328 161.077L556.145 163.49L559.332 165.438L562.595 166.934L565.759 167.955L571.131 168.872L594.05 168.445L626.279 171.124L632.948 172.511L636.505 173.793L640.172 175.736L644.215 179.037L646.3 182.486L646.941 185.782L646.347 188.689L644.124 195.705L643.298 212.012L643.436 215.831L644.4 220.02L647.654 225.867L650.779 228.798L654.08 230.893L660.483 233.083L663.899 233.434L667.361 233.106L684.822 228.299L688.052 227.867L691.354 227.995L708.933 231.373L712.121 232.351L714.918 233.866L717.127 236.37L717.265 237.025L713.18 260.457L713.156 267.107L720.542 320.406L720.452 323.537L719.996 327.023L719.032 330.306L717.612 333.502L715.816 336.538L711.37 342.428L709.513 345.42L708.344 348.503L708.04 351.794L709.883 378.371L708.853 385.159L702.934 408.334L702.706 411.512L702.891 414.836L703.761 418.062L705.48 421.33L744.088 479.175L728.399 485.279L705.138 499.059L700.041 500.755L695.757 501.115L686.214 497.829L682.405 496.997L678.163 496.788L671.855 497.51L667.043 498.931L658.066 502.826L655.064 503.766L652.817 504.165L643.64 504.365L638.268 505.405L634.159 507.195L630.444 509.713L624.778 515.489L620.674 518.881L591.376 534.869L553.922 568.964L548.939 572.532L540.912 577.04L535.962 578.636L531.758 578.935L528.505 577.894L525.474 576.113L522.61 573.586L520.159 570.447L505.016 539.244L502.313 534.741L494.01 527.506L491.136 526.461L487.469 525.896L484.23 526.756L470.493 534.522L467.277 535.947L464.071 536.902L448.244 537.035L443.423 537.719L439.456 538.731L432.208 541.709L427.786 543.048L424.708 542.935L422.784 542.288L420.561 540.36L418.628 537.643L416.908 534.518L412.324 521.507L409.935 518.32L406.724 515.593L402.292 513.556L398.649 512.934L395.096 513.328L391.904 514.658L388.969 516.961L386.655 519.55L385.183 521.868L384.356 523.716L383.625 526.405L383.373 529.373L383.577 532.822L384.798 539.372L387.411 548.787L387.753 553.503L387.686 555.104L386.679 559.275L376.191 578.032L372.111 588.373L370.277 591.513L366.715 594.662L363.257 596.268L359.813 597.27L345.411 599.54L340.889 600.884L337.108 602.761L333.802 605.349L322.497 617.039L320.478 620.013L320.041 623.029L321.006 625.898L323.366 628.406L326.278 629.955L337.365 633.189L338.03 633.679L339.269 634.838L341.079 637.346L342.476 640.433L343.354 643.815L343.554 647.202L341.882 663.314L342.086 666.639L344.798 676.818L345.188 680.062L344.319 693.058L344.504 696.103L345.193 699.29L346.798 702.354L349.069 704.743L350.764 706.035L362.145 712.149L365.675 715.44L374.966 727.942L378.134 730.488L381.663 732.151L385.591 732.949L389.054 732.987L392.398 732.502L395.566 731.509L398.568 730.018L401.295 727.691L403.114 724.85L404.259 721.801L407.741 704.957L417.236 679.82L421.231 672.99L422.95 670.828L424.461 669.612L427.007 668.344L429.994 667.836L443.85 667.855L448.985 667.118L453.051 665.147L459.672 662.449L465.89 662.117L468.716 662.596L470.873 663.494L472.754 664.834L474.953 667.503L476.677 670.629L477.684 673.992L477.87 677.179L477.547 680.328L473.001 700.763L472.797 704.477L473.186 708.662L474.013 711.769L480.278 722.361L481.242 726.18L481.218 730.061L476.193 745.992L474.796 749.028L472.711 751.759L470.008 753.768L467.23 754.97L464.94 755.459L462.902 755.563L446.501 753.768L443.199 753.877L440.031 754.433L436.73 755.563L430.189 759.439L422.755 765.063L419.958 766.441L417.084 766.374L414.129 764.859L411.541 762.859L409.218 761.663L408.002 763.287L407.498 766.07L406.491 802.503L407.318 808.996L408.144 812.231L409.337 815.461L411.061 818.534L413.559 821.147L416.447 822.762L419.388 823.569L435.514 823.294L441.955 823.821L448.263 825.013L451.312 826.125L454.186 827.754L456.685 830.31L458.333 833.354L468.469 864.191L469.462 868.875L469.576 872.95L468.959 877.349L463.705 897.104L461.002 903.212L459.183 905.568L456.523 908.362L447.417 913.397L444.596 915.339L442.297 917.9L440.763 920.579L438.084 927.062L438.069 927.086L438.022 927.124Z" fill="springgreen" stroke="#808080" stroke-linecap="round" stroke-linejoin="round"/>
</svg>
