<svg width="609" height="405" viewBox="0 0 609 405" fill="none" xmlns="http://www.w3.org/2000/svg">
<path d="M561.071 380.567L560.924 380.766L544.071 390.651L525.935 401.315L521.565 403.087L516.754 403.766L497.279 402.92L495.208 402.83L493.336 401.633L480.839 384.21L469.9 368.911L460.352 355.554L454.866 352.362L422.015 356.912L397.586 360.304L361.714 356.599L333.755 353.711L297.019 349.925L265.692 346.685L258.938 344.443L234.903 330.364L226.514 328.659L201.672 328.483L197.995 328.46L179.746 328.331L149.802 328.132L146.577 328.844L137.309 332.369L133.148 332.616L123.002 330.512L113.982 330.16L99.6751 331.675L88.3227 334.326L85.5107 334.521L79.2786 332.701L76.2671 332.317L74.0917 333.884L71.9304 337.717L69.6837 340.501L66.8574 341.821L63.0147 341.261L57.3384 338.325L54.8161 338.045L51.6242 339.75L49.3775 342.425L47.4821 345.45L45.1737 347.745L41.6919 348.262L39.9438 347.878L39.0651 347.407L38.5759 346.661L37.9869 345.422L38.367 342.339V340.643L37.4881 340.235L34.0207 341.275L31.4367 341.394L25.5847 340.867L20.0557 341.498L17.3767 341.475L14.4222 340.425L8.30897 335.556L0.789688 327.087L0.822884 322.232L4.88897 306.652L4.52324 298.416L1.55913 288.916L1.12222 285.192L1.23616 280.922L2.61848 274.728L6.39944 240.276L5.98616 233.745L4.54223 227.389L2.29537 220.468L0.751709 213.662L0.913193 209.757L2.20521 205.411L5.15961 199.782L9.01188 194.742L32.9139 169.373L49.5437 155.237L54.2034 150.259L55.9657 147.651L57.7327 144.43L61.2239 136.028L63.2617 132.251L66.4251 128.755L69.9639 126.342L73.3317 124.913L83.5821 122.804L90.123 120.495L96.9154 117.094L103.385 112.738L106.135 110.012L108.472 107.019L110.282 103.951L111.735 100.108L112.719 95.8284L113.293 89.9716L113.27 84.5376L112.605 77.5647L107.418 57.7143L107.327 53.9334L108.311 49.8009L111.963 44.1198L115.402 41.1369L125.197 35.9452L127.52 34.0832L128.916 32.1451L130.085 28.597L130.659 23.5096L130.636 3.79718L171.766 29.6562L182.339 34.9002L190.229 37.8452L204.18 41.2366L242.37 43.8728L588.635 6.38585L607.878 0.880615L561.095 380.463L561.071 380.567Z" fill="springgreen" stroke="#808080" stroke-linecap="round" stroke-linejoin="round"/>
</svg>
