<svg width="1268" height="797" viewBox="0 0 1268 797" fill="none" xmlns="http://www.w3.org/2000/svg">
<path d="M728.387 272.836L739.516 282.507L739.531 282.516L739.545 282.526L739.559 282.535L755.191 295.313L768.225 305.976L781.245 316.616L794.27 327.256L807.304 337.892L824.233 351.695L841.176 365.489L858.119 379.274L875.048 393.053L882.221 398.886L891.987 406.824L908.925 420.575L925.854 434.317L942.783 448.054L956.872 459.468L970.965 470.882L985.072 482.282L999.137 493.682L1010.51 502.869L1011.46 503.23L1012.4 503.605L1013.33 503.98L1014.3 504.346L1027.82 505.567L1039.62 506.645L1051.38 507.704L1063.14 508.782L1074.91 509.846L1090.07 511.229L1105.21 512.597L1120.37 513.979L1135.51 515.347L1150.66 516.715L1165.82 518.097L1180.98 519.47L1196.12 520.843L1207.4 521.864L1218.64 522.88L1229.91 523.911L1241.17 524.928L1256.74 526.334L1263.21 524.956L1267.08 524.134L1265.17 526.371L1195.17 552.843L1174.49 564.348L1159.9 577.814L1148.43 590.762L1139.58 604.105L1087.52 702.478L1080.26 713.075L1055.39 743.2L1052.29 748.748L1048.51 758.167L1047.38 763.04L1047.05 765.753L1047.01 768.821L1047.56 772.122L1048.86 775.49L1052.71 781.166L1054.61 783.313L1048.47 792.105L1045.39 794.025L1041.54 795.716L1038.16 795.321L1035.02 793.896L1032.36 791.83L1030.04 789.004L1029.83 788.643L1029.08 787.816L1026.35 785.346L1024.33 780.511L1020.45 775.994L995.974 753.802L992.606 751.503L985.861 747.788L980.797 745.765L935.216 738.83L931.174 737.438L926.087 734.916L922.116 731.937L918.587 728.565L913.466 721.369L901.035 688.332L876.079 643.036L873.481 639.716L870.065 637.028L866.194 635.541L861.121 635.959L856.965 637.73L839.746 648.898L833.756 651.838L830.493 652.299L826.551 651.933L820.884 649.933L805.147 641.668L801.114 640.438L796.018 640.011L781.312 641.474L777.44 641.046L773.317 639.901L768.244 636.667L764.867 632.738L762.53 627.727L761.547 624.112L761.134 621.794L760.492 609.273L760.15 607.915L758.797 606.371L755.719 604.699L750.56 604.685L746.266 605.635L742.162 607.435L730.23 614.137L726.012 615.757L721.652 616.845L716.726 617.092L711.377 616.284L704.015 613.558L698.975 610.428L694.657 606.713L676.698 585.101L673.392 582.322L670.024 580.18L663.208 577.429L612.744 565.573L609.029 565.336L592.95 566.319L575.081 570.979L571.338 571.544L567.348 571.482L562.185 570.632L526.355 558.895L521.444 558.121L515.388 557.954L504.771 559.322L426.278 577.505L422.853 577.453L414.203 575.173L397.298 568.029L418.131 547.281L420.63 543.685L421.984 540.555L422.625 538.128L422.853 536.94L426.596 480.534L427.194 476.962L428.315 473.343L430.358 469.818L433.27 466.313L436.851 462.769L452.863 450.429L576.321 373.265L588.637 363.451L595.245 356.597L597.767 353.039L598.498 349.657L597.444 346.318L594.717 343.25L572.601 326.021L565.467 319.034L562.788 315.315L558.641 307.705L551.83 292.187L550.058 289.347L546.324 284.654L543.322 281.495L537.836 277.994L533.39 276.455L515.972 274.033L504.002 273.914L495.974 272.874L490.949 271.225L487.006 269.188L457.528 245.352L452.759 243.158L447.021 241.604L432.543 241.775L423.689 243.001L342.849 241.001L328.931 238.037L323.948 236.028L320.101 233.952L309.299 224.11L305.808 221.55L302.303 219.607L297.391 218.301L197.47 202.825L177.815 202.331L132.324 209.124L66.4652 215.76L59.3734 215.266L52.7424 213.774L49.4412 212.363L46.1874 210.373L43.0381 207.637L40.4256 204.44L35.4476 195.553L32.7686 189.559L28.5744 182.12L23.6866 175.247L19.1931 170.772L6.45837 161.557L4.09765 158.541L3.01467 155.686L2.51115 153.463L2.37337 152.376L1.64191 147.839L0.81543 137.123L1.48043 131.319L19.2834 65.1465L47.1992 57.0478L80.4301 47.4005L113.647 37.739L146.892 28.0823L163.683 23.1898L163.698 23.1993V23.1708L168.818 21L186.374 4.26102L189.248 2.08552L190.744 1.59628L191.172 1.45852L191.599 1.31603L192.012 1.17353L192.411 1.04053L221.652 6.06603L250.879 11.0963L280.106 16.1265L309.318 21.1473L321.174 23.1755H321.208L321.222 23.185L321.25 23.1945L371.653 32.9368L379.614 36.0623L387.85 40.8835L403.055 50.0035L416.013 57.7888L428.999 65.5455L441.972 73.326L454.93 81.0923L467.902 88.8538L480.874 96.601L493.832 104.353L506.819 112.11L519.777 119.857L532.735 127.6L545.707 135.337L558.693 143.075L571.651 150.799L584.609 158.527L597.596 166.25L610.554 173.974L623.74 181.816L633.534 190.352L646.046 201.206L658.529 212.055L671.012 222.894L683.509 233.729L697.522 245.941L711.515 258.134L725.523 270.337L728.387 272.836Z" fill="springgreen" stroke="#808080" stroke-linecap="round" stroke-linejoin="round"/>
</svg>
