<svg width="510" height="449" viewBox="0 0 510 449" fill="none" xmlns="http://www.w3.org/2000/svg">
<path d="M477.009 18.96L486.576 23.2159L493.207 27.7522L499.311 33.0152L502.246 36.1359L504.768 39.5417L506.654 43.109L508.027 46.6667L508.872 50.0962L509.214 53.0602L509.167 55.6442L509.143 56.0005L508.592 58.1712L507.538 60.7125L505.581 63.4865L502.645 65.8282L499.254 67.5097L492.072 70.1744L488.376 72.1695L484.709 74.7677L478.078 80.8429L472.549 87.0559L461.771 102.902L459.249 105.187L457.477 106.146L451.725 107.338L448.163 108.455L444.861 110.445L442.135 114.159L441.698 117.95L442.8 125.431L442.914 132.732L439.764 154.159L439.831 157.65L440.496 160.99L442.13 164.329L444.557 167.587L456.276 179.258L459.767 183.747L472.905 205.773L484.149 220.935L484.4 221.633L485.246 226.772L483.574 234.429L482.956 239.103L483.963 242.994L488.086 250.423L490.081 255.196L491.673 261.029L493.026 270.819L493.235 276.586L492.936 281.293L492.224 284.737L491.169 287.762L489.488 290.28L486.761 291.425L483.621 291.814L470.131 290.584L434.943 293.125L403.47 288.921L396.611 288.974L393.243 289.634L390.004 290.674L387.073 292.123L384.641 293.7L382.708 295.286L380.394 297.723L376.404 303.181L370.942 314.248L368.03 318.823L364.905 321.991L354.421 328.812L346.484 336.35L342.817 339.048L336.875 341.799L287.508 353.607L284.026 355.27L280.374 357.787L266.404 371.989L252.097 391.075L250.073 395.578L249.342 399.501L249.983 402.812L251.437 406.113L255.284 412.806L256.362 416.677L256.201 420.981L253.84 427.051L250.838 431.108L247.28 434.148L243.818 435.877L240.716 436.665L237.852 436.627L226.314 433.378L219.293 432.951L198.303 436.1L190.941 436.309L164.217 433.44L153.715 430.818L147.174 428.419L131.485 420.344L128.298 419.751L124.83 420.306L121.415 421.902L117.444 425.028L115.406 427.047L105.588 441.924L102.79 448.132L89.8511 438.489L87.4001 436.105L85.4954 433.236L82.6454 426.538L74.8933 395.896L72.3948 389.545L69.8489 385.028L69.5733 384.738L67.8918 383.598L65.4836 382.373L46.3315 377.252L42.9401 375.395L39.7719 372.688L36.8173 368.194L35.5349 364.489L34.9601 360.841L37.7578 318.466L37.2781 314.629L36.0621 310.619L33.7916 307.465L30.9178 305.437L24.3771 303.119L4.8831 298.455L1.3064 297.167L7.03487 291.914L12.9771 289.924L21.8311 288.883L26.9706 287.492L50.6208 274.52L56.1878 272.168L60.8475 270.81L75.1119 269.37L78.5129 268.363L81.1253 266.117L81.9281 263.447L81.5148 260.901L80.6455 258.83L73.7629 245.962L72.7083 242.367L72.3663 238.776L73.1928 234.942L75.1166 231.252L78.8596 227.19L82.4126 225.561L85.538 225.21L88.0603 225.894L99.712 230.449L103.251 231.256L106.642 231.442L109.492 230.525L111.278 228.012L111.758 225.072L111.711 222.507L111.549 221.082L108.913 207.668L108.685 204.386L108.927 201.037L109.554 197.669L111.939 190.687L115.264 183.885L117.396 181.206L120.294 179.766L123.524 179.709L127.039 180.094L130.682 179.79L137.703 178.099L140.591 176.475L142.59 173.53L143.621 170.038L146.12 164.163L150.318 156.962L167.661 136.95L206.582 105.32L224.314 93.8295L258.125 79.3135L263.198 75.6987L266.347 71.9605L268.522 68.1937L274.64 55.0267L279.875 48.3102L287.081 41.323L298.11 34.1125L354.198 5.299L361.447 2.47745L364.909 1.68424L368.329 1.42773L371.654 1.92175L375.055 3.10925L378.399 5.04249L383.838 9.61195L394.388 21.0595L413.264 36.3165L419.758 40.316L423.41 41.4179L438.705 42.14L448.619 44.2585L451.896 44.4105L454.922 43.717L457.544 42.1162L459.401 40.43L470.868 24.6885L477.009 18.96Z" fill="springgreen" stroke="#808080" stroke-linecap="round" stroke-linejoin="round"/>
</svg>
