<svg width="938" height="1337" viewBox="0 0 938 1337" fill="none" xmlns="http://www.w3.org/2000/svg">
<path d="M393.009 52.96L392.116 50.7846L390.582 44.9516L390.378 41.484L390.516 38.007L390.995 34.7248L392.553 29.5283L394.914 24.3128L398.933 17.5963L402.761 12.737L407.468 8.29105L409.416 6.7758L409.739 6.59526L418.341 3.3558L421.068 5.82582L421.823 6.6523L422.027 7.01332L424.35 9.8395L427.01 11.9058L430.15 13.3308L433.527 13.725L437.379 12.034L440.457 10.1151L446.599 1.32275L448.095 2.13503L460.73 11.4356L466.948 17.3968L469.513 20.8785L471.46 24.8115L475.455 39.2088L477.355 43.593L480.937 48.2576L484.328 51.3925L526.19 75.6793L533.006 77.7313L543.784 78.686L547.199 79.3463L550.415 81.0515L553.303 83.7305L562.456 94.9928L576.545 108.435L582.971 112.834L586.177 114.321L592.533 115.67L616.962 116.401L623.479 117.731L629.949 120.002L639.33 125.374L675.8 151.675L679.216 153.218L682.797 154.411L686.189 154.938L689.59 155.076L711.63 151.109L715.235 151.276L718.626 152.349L721.818 154.496L746.248 178.431L750.19 184.682L752.893 187.746L755.995 189.537L803.29 208.565L805.133 209.914L807.29 212.009L809.214 214.959L810.61 217.985L811.575 221.11L812.468 226.354L815.797 445.985L817.08 453.252L818.158 455.779L820.129 459.061L822.751 462.13L875.072 499.921L912.422 537.588L918.335 545.283L924.553 555.648L930.771 569.841L934.371 581.36L936.58 601.034L935.768 637.091L893.655 982.098L853.878 1292.89L834.636 1298.39L488.37 1335.88L450.18 1333.24L436.23 1329.85L428.34 1326.91L417.766 1321.66L376.636 1295.8L374.071 1293.97L315.959 1240.17L301.714 1216.32L293.202 1206.25L290.889 1202.41L289.806 1197.48L289.834 1193.57L295.61 1166.59L298.484 1160.57L307.148 1146.86L308.393 1144.09L309.514 1140.84L309.628 1140.19L309.675 1137.18L309.4 1134.28L308.507 1130.88L306.55 1127.08L294.281 1113.55L285.517 1101.76L280.833 1094.16L272.692 1084.6L251.089 1065.18L212.481 1007.33L210.761 1004.07L209.892 1000.84L209.707 997.517L209.935 994.339L215.853 971.164L216.884 964.376L215.041 937.8L215.345 934.508L216.514 931.425L218.371 928.433L222.817 922.543L224.612 919.507L226.033 916.311L226.997 913.028L227.453 909.542L227.543 906.412L220.157 853.112L220.181 846.462L224.266 823.03L224.128 822.375L221.919 819.871L219.121 818.356L215.934 817.378L198.354 814L195.053 813.872L191.823 814.304L174.362 819.111L170.899 819.439L167.484 819.088L161.081 816.898L157.78 814.803L154.654 811.872L151.401 806.025L150.436 801.836L150.299 798.017L151.125 781.71L153.348 774.694L153.942 771.787L153.301 768.491L151.215 765.042L147.173 761.741L143.506 759.798L139.948 758.516L133.279 757.129L101.051 754.45L78.1318 754.877L72.7596 753.96L69.596 752.939L66.3329 751.443L63.1455 749.495L60.3288 747.082L58.2198 744.636L56.7473 742.399L37.7094 696.794L33.3489 673.837L32.0189 669.762L28.1904 661.383L20.3671 635.833L17.5456 630.897L14.5341 627.691L11.3943 625.269L5.93185 621.991L4.30251 620.519L2.55939 618.22L1.48104 614.956L1.02515 604.829L2.5404 589.515L2.08436 574.539L3.89402 546.884L6.53038 534.658L7.05759 528.435L6.91988 524.63L4.81088 519.306L4.53532 518.047L4.73956 515.648L5.58511 513.036L7.85559 509.236L14.7146 500.249L15.0565 499.636L17.0373 494.919L18.8043 487.799L18.7805 482.127L21.5784 475.919L31.3966 461.042L33.4344 459.023L37.4054 455.898L40.8206 454.302L44.288 453.746L47.4754 454.34L63.1646 462.415L69.7053 464.814L80.2076 467.436L106.931 470.305L114.294 470.096L135.284 466.946L142.304 467.374L153.842 470.623L156.706 470.661L159.808 469.872L163.271 468.143L166.829 465.103L169.831 461.047L172.191 454.976L172.353 450.673L171.275 446.802L167.427 440.109L165.974 436.808L165.332 433.497L166.064 429.573L168.087 425.07L182.394 405.985L196.364 391.782L200.017 389.265L203.499 387.602L252.865 375.794L258.808 373.044L262.475 370.346L270.412 362.807L280.895 355.986L284.02 352.818L286.932 348.244L292.395 337.176L296.385 331.718L298.698 329.282L300.631 327.695L303.063 326.118L305.994 324.67L309.234 323.629L312.601 322.969L319.46 322.917L350.934 327.121L386.122 324.579L399.612 325.81L402.751 325.42L405.478 324.275L407.16 321.758L408.214 318.732L408.927 315.288L409.226 310.581L409.017 304.815L407.663 295.025L406.072 289.192L404.077 284.418L399.954 276.989L398.947 273.099L399.564 268.425L401.236 260.768L400.391 255.628L400.139 254.93L388.896 239.768L375.757 217.742L372.266 213.254L360.548 201.583L358.121 198.324L356.487 194.985L355.822 191.646L355.755 188.155L358.904 166.727L358.79 159.427L357.688 151.945L358.125 148.155L360.852 144.44L364.153 142.45L367.716 141.334L373.468 140.142L375.24 139.182L377.762 136.897L388.54 121.051L394.068 114.838L400.7 108.763L404.367 106.165L408.062 104.17L415.244 101.505L418.636 99.8235L421.571 97.4818L423.528 94.7078L424.583 92.1665L425.134 89.9958L425.157 89.6395L425.205 87.0556L424.863 84.0915L424.017 80.662L422.645 77.1043L420.759 73.537L418.237 70.1313L415.301 67.0106L409.197 61.7475L402.566 57.2113L393.009 52.96Z" fill="springgreen" stroke="#808080" stroke-linecap="round" stroke-linejoin="round"/>
</svg>
