<svg width="829" height="738" viewBox="0 0 829 738" fill="none" xmlns="http://www.w3.org/2000/svg">
<path d="M416.026 736.827L406.626 723.061L397.525 710.359L393.217 704.603L392.998 700.1L393.502 698.907L393.621 697.292L393.478 695.677L392.998 694.537L391.915 694.005L390.001 695.929L388.448 696.152L385.85 694.561L383.935 691.939L381.399 686.154L385.166 686.225L388.486 686.766L391.797 686.866L395.525 685.593L397.364 682.857L397.582 674.621L400.817 667.724L400.385 664.047L397.544 657.212L396.608 653.293L397.544 643.674L397.278 639.979L396.494 636.492L395.231 633.258L393.497 630.251L390.718 626.888L389.023 625.268L387.436 624.123L386.04 622.831L384.657 619.772L383.418 618.48L380.473 616.181L377.551 612.947L375.001 609.246L373.219 605.598L372.882 603.974L372.569 600.312L372.208 598.891L371.234 597.395L368.982 594.92L368.275 593.301L370.873 591.429L368.697 587.724L362.128 581.008L360.998 578.927L358.618 571.954L357.848 570.809L355.83 569.47L355.06 568.596L354.856 567.66L354.998 565.627L354.552 564.687L353.265 562.711L351.17 557.98L350.016 556.184L348.125 554.769L343.807 552.992L341.931 551.805L336.122 542.461L332.441 537.84L329.23 537.593L328.94 539.431L329.937 541.326L330.455 542.955L328.721 543.972L326.845 543.407L322.309 540.153L320.095 539.393L318.77 538.509L315.426 534.23L314.5 532.657L314.319 531.66L314.5 528.126L314.177 527.176L312.396 526.734L311.479 525.927L309.674 521.794L309.484 517.942L310.89 514.27L313.996 510.679L315.944 507.316L316.485 502.813L315.906 498.177L314.5 494.401L310.999 490.625L306.306 488.159L301.133 486.834L296.236 486.43L290.93 484.502L287.392 479.799L278.006 457.413L274.614 451.656L268.192 442.958L257.267 415.94L245.573 394.898L238.524 385.854L229.959 378.159L226.036 373.651L223.704 366.483L219.253 358.632L216.332 348.334L213.662 349.075L211.643 347.217L208.166 341.546L198.576 332.948L186.725 317.487L182.493 309.289L182.013 307.959L181.832 306.315L182.155 304.957L183.599 302.582L183.937 301.147L183.215 299.152L179.676 293.761L167.25 278.912L160.248 274.077L158.443 272.471L154.943 268.116L150.972 261.575L146.497 257.119L140.868 246.65L139.244 242.361L138.702 238.984L138.607 232.966L137.729 229.831L136.503 227.65L131.63 222.478L128.936 217.994L125.136 207.786L122.082 203.501L120.686 202.561L117.703 201.378L116.548 200.594L115.717 199.416L115.057 197.146L113.565 194.025L112.915 189.256L111.494 186.9L103.842 178.284L101.51 174.104L100.09 172.503L97.7811 171.434L90.6134 165.71V166.86H89.6016L87.9676 164.632L89.8819 162.936L93.2117 161.473L95.7624 159.892L97.3251 160.647L97.1684 159.706L95.7624 157.089L94.8694 156.723L90.7796 155.83L89.6016 155.313H88.5899V156.457H87.7016L87.0984 155.422L86.2339 154.306L85.1889 153.408L84.0679 153.042L81.4316 153.151L80.0969 152.985L78.3632 151.171L71.4566 146.174L69.9889 147.271L68.2552 147.195H66.6924L67.1009 148.135L67.6566 148.952L68.3312 149.598L66.8396 148.819L65.1914 147.679L63.4719 147.067L61.7144 147.884L60.2087 148.872L55.7199 150.221L54.5039 150.909L53.6251 151.788L53.0979 153.028H52.0861V151.883H51.0744L49.1269 152.415L46.1296 151.85L43.1086 151.893L41.0757 154.272L40.6767 153.413L40.5579 153.398L39.9547 153.033V151.888H41.0757V150.634L40.5104 149.475L41.2561 148.52L42.6289 147.798L44.0016 147.309L42.5957 146.696L41.1659 146.497L39.6506 146.72L37.9644 147.304V148.458H39.0569V149.598L37.4086 150.159L36.3257 151.304L34.9291 154.277L34.4731 153.574L34.0172 153.337L33.5136 153.256L32.9959 153.037L33.5849 152.03L34.4494 151.061L35.6037 150.221L37.0334 149.598L36.9479 148.957L36.9242 148.254L37.0334 147.304L34.9387 147.209L33.2761 147.589L32.2074 148.653L31.9082 150.629L31.1006 150.149L30.8584 150.083L30.6399 150.287L29.8799 150.629L29.8181 150.092L29.8894 148.986L29.8751 148.454H29.0201V149.594H27.8421L27.0964 148.169L26.4124 147.432L25.6904 147.508L24.8259 148.454L23.4674 147.409L23.1302 146.919L22.2181 145.585L21.6909 144.815L20.7884 142.73L20.3561 143.148L19.7909 143.585L19.2019 144.164L18.6841 145.019L16.7604 143.561L16.2331 144.297L16.1382 145.969L15.6679 147.314L14.5517 147.998L12.5661 148.857L11.6161 149.608V150.643L14.7464 153.042V154.282L13.7821 154.348L13.3594 154.619L13.1409 154.985L12.8179 155.313L11.6161 154.277L10.9084 157.056L10.7754 159.217L9.82539 160.628L6.5764 161.141L6.82812 160.343L6.97065 160.219L7.21288 160.291L7.66888 159.925L6.5764 158.78L5.92564 156.381L5.63587 154.201L5.56463 150.149L4.48164 148.933L0.862135 150.472L1.52238 148.487L0.619873 147.333L2.78588 144.141L4.19187 142.953L5.47914 142.34L5.56463 141.509L6.49087 141.039L7.74013 139.856L8.59513 139.324L7.66888 138.179L8.10115 137.291L8.65688 136.621L9.45013 136.165L10.6044 135.885V136.664L10.2672 136.83L9.85862 136.783L9.59262 136.925L11.0604 137.704L12.2859 138.113L13.1741 137.647L13.6444 135.885H12.8131V134.74L11.7539 133.676L11.9724 132.565L13.1029 131.658L14.7369 131.206V130.066L14.2334 128.599L15.6631 120.889L16.2284 121.222L17.2496 121.645L17.7531 122.034L17.6819 121.502L17.7531 119.74L16.8981 120.319L16.5276 120.68L15.6631 119.745L18.6366 116.861L21.6434 111.313L23.9282 105.243L25.4909 97.3437L28.3789 92.9737L29.4619 87.9529L30.5212 85.1124L34.7629 77.7452L33.6371 70.1642L33.2334 62.2079L31.0199 54.6175L33.7416 44.2862L35.6559 38.8664L37.9549 34.4109V33.3612H37.0381L39.5509 28.9959L39.9119 26.9582L39.0569 25.0962V24.037L40.7289 18.8785L40.5341 17.5009H40.5626L53.0741 17.2302L58.1139 16.2707L63.2534 16.4417L75.2567 19.4389L96.2849 21.4482L99.9614 20.7879L102.503 19.4057L107.614 14.5654L112.71 11.9339L119.018 9.94844L149.338 4.11067L168.955 2.8662L180.559 0.685955L190.192 0.657471L219.167 7.81566L222.697 9.53045L229.351 14.0239L234.125 18.3749L272.201 68.3212L273.127 69.2712L274.134 69.8317L280.276 71.8267L283.834 72.05L286.261 71.9075L302.411 65.704L337.917 57.9661L349.621 57.9235L358.11 59.1917L380.515 66.7204L392.813 69.2854L418.297 70.7864L422.377 69.8459L425.892 68.0599L428.253 65.1434L430.11 61.733L436.029 46.2907L437.796 42.7757L440.047 39.4839L443.002 36.7669L452.958 30.3782L462.087 21.6714L465.327 20.4079L468.538 21.1394L471.264 23.4527L472.946 26.7397L473.611 30.5872L472.162 57.7192L472.575 72.5154L473.639 82.2292L475.245 89.4302L477.515 95.116L479.282 98.5455L481.557 102.046L484.26 105.328L493.983 113.57L500.842 117.403L517.083 123.06L526.212 124.974L555.738 127.976L561.053 127.782L565.965 126.238L569.86 124.195L574.681 122.937L578.12 123.815L583.032 126.675L586.195 127.905L588.931 128.181L595.439 128.029L599.619 138.07L601.842 140.635L605.105 142.849L608.634 143.309L612.277 142.692L616.044 141.3L631.529 133.401L635.771 132.137L640.868 131.373L644.601 131.563L647.266 132.408L649.327 133.387L655.108 138.084L657.673 141.647L660.124 143.138L663.663 144.544L711.277 155.916L719.304 159.065L724.857 162.129L728.135 165.772L728.686 166.551L731.968 169.871L736.504 173.03L745.41 177.395L762.767 191.745L771.493 200.428L773.44 203.957L775.022 207.567L791.058 272.894L792.663 276.143L794.977 279.321L797.299 281.444L802.914 285.439L820.826 295.005L824.156 297.879L827.386 301.803L828.027 305.218L827.524 308.723L826.194 312.077L823.88 315.44L821.064 318.589L802.914 334.487L796.269 343.46L791.789 352.528L783.277 379.285L780.48 384.562L777.953 388.091L775.73 389.754L770.728 382.386L768.163 380.211L764.795 378.159L761.465 377.712L700.015 387.269L685.242 387.331L677.832 386.372L672.218 384.462L654.386 370.73L635.671 363.895L630.446 361.239L627.045 358.1L624.594 351.431L622.946 348.115L619.521 345.17L616.747 344.914L614.98 346.79L614.776 349.725L615.488 352.974L615.854 356.157L615.165 358.845L611.446 360.513L608.031 360.213L604.426 359.04L593.51 353.791L588.599 352.338L584.979 352.062L581.863 352.67L579.802 353.692L566.492 364.313L562.635 366.754L558.028 367.946L555.016 367.034L553.639 364.55L553.662 361.353L554.076 357.891L554.052 354.523L553.021 351.412L550.499 348.661L541.441 342.881L539.032 340.259L537.926 337.347L537.674 334.687L537.721 333.409L537.812 332.687L537.788 331.87L537.512 329.927L536.182 327.5L533.684 325.624L530.615 324.555L527.4 324.047L512.466 323.415L506.072 322.209L501.802 320.024L498.458 317.079L490.245 304.425L487.305 298.81L484.441 291.875L480.294 276.647L479.002 273.92L476.917 271.061L472.998 268.163L470.238 267.356L467.673 267.531L440.009 282.565L436.703 283.729L433.245 284.256L429.939 284.114L423.774 282.988L419.413 281.154L406.916 273.241L400.332 270.419L395.739 269.507L391.73 269.621L388.377 270.666L350.438 288.655L333.443 292.934L330.294 294.469L327.729 297.005L326.788 299.936L327.406 302.615L329.928 304.325L333.096 304.558L342.753 302.715L345.503 302.601L347.265 302.886L349.93 303.916L352.543 305.688L354.766 308.12L355.958 310.006L357.226 313.008L359.473 323.178L359.815 327.396L359.516 336.625L356.4 359.168L356.675 366.113L357.293 370.036L358.347 373.675L359.744 377.142L361.715 380.548L364.19 383.845L367.382 386.904L370.659 389.103L374.174 390.623L391.151 395.625L394.338 397.468L396.974 400.351L398.47 404.365L398.656 408.293L397.943 411.741L396.789 414.363L387.731 429.34L385.028 436.071L384.363 439.434L384.111 442.83L384.41 446.198L385.394 449.67L393.996 467.06L396.129 473.8L397.639 480.455L398.565 483.319L399.686 485.286L402.023 484.687L407.372 480.298L410.488 479.106L413.789 479.609L440.199 494.857L442.56 496.633L443.5 497.598L443.914 498.229L446.184 507.212L447.467 510.684L449.286 514.004L451.808 517.106L471.027 533.289L473.739 536.562L475.848 539.664L478.161 544.247L482.659 556.626L487.861 576.633L489.176 579.872L489.656 580.347L490.597 580.751L492.934 581.411L502.267 581.853L505.383 582.513L507.383 583.639L509.283 585.601L510.404 588.527L510.727 591.771L505.502 628.945L507.336 682.653L506.742 684.966L505.288 688.035L502.353 692.215L498.938 694.965L495.356 696.665L491.599 697.33L484.512 697.007L477.833 695.839L474.556 695.668L471.316 696.243L468.063 698.195L464.899 701.529L460.952 706.56L457.356 710.046L453.751 712.473L450.245 713.827L446.958 714.753L441.296 715.523L429.155 715.499L426.22 716.245L423.194 717.76L420.757 720.344L419.152 723.246L418.145 726.286L416.34 735.772L416.026 736.827ZM363.406 593.301L364.959 594.578L365.691 595.305L365.353 595.457L364.703 595.172L363.582 594.987L363.449 595.666L364.052 596.716L362.874 596.535L359.962 594.626L359.216 592.84L359.468 591.733L358.038 591.581L356.219 592.099L355.207 590.736L354.485 588.498H353.151L351.526 589.657L351.203 588.527L352.31 585.463L353.73 583.786L355.535 583.772L357.578 584.071L359.321 585.15L360.751 588.356L361.701 588.237L362.024 587.073L362.636 587.881L363.406 593.301ZM350.885 593.505L353.279 593.4L353.735 594.141L351.027 595.614L349.883 596.521L348.32 598.298L346.843 601.276L344.615 602.891L341.499 600.815L338.696 597.68L336.003 595.543L330.061 589.168L329.676 588.755L329.144 587.791V587.183L329.434 587.244L329.733 586.902L329.458 585.948L328.037 584.323L326.342 581.91L326.403 580.723L327.966 581.103L329.41 582.333L332.118 585.72L333.381 586.708L336.089 588.199L341.276 590.455L343.755 591.116L345.608 591.329L346.98 592.137L347.655 593.301L344.577 593.419L344.121 595.528L345.299 597.466L347.066 597.015L348.871 595.011L350.885 593.505ZM337.167 574.733L335.761 574.272L333.861 572.41L334.151 570.092L335.979 568.672L338.098 568.952L339.708 570.719L339.637 572.624L338.074 574.13L337.167 574.733ZM328.422 580.49L327.002 579.426L326.304 579.241L325.629 578.989L324.836 577.816L324.75 576.177L323.439 575.726L321.368 575.365L320.984 574.79L321.587 574.994L321.43 574.267L320.167 572.505L317.929 571.023L315.284 571.185L314.082 571.916L313.431 572.543L312.301 572.909L312.339 571.384L313.792 569.133L316.091 568.472L318.87 569.465L326.185 574.343L327.002 575.597L327.771 577.516L330.023 578.889L332.331 579.749L335.642 581.787L340.886 586.142L342.188 587.615L341.969 588.199L341.39 588.698L341.57 589.41L340.777 588.983L338.502 587.197L336.53 585.957L335.015 585.577L334.412 584.537L333.628 582.732L332.255 582.053L331.305 582.461L329.956 582.019L328.422 580.49ZM344.762 572.063L344.567 567.394L344.377 566.368L344.392 564.501L345.342 563.233L346.786 562.668L348.059 563.29L348.757 564.891L348.852 566.411L348.467 567.598L347.783 567.651L346.881 566.943L346.714 567.228L347.099 568.434L347.004 568.995L346.667 568.81L347.679 571.109L348.738 575.469L348.087 576.956L346.429 574.41L345.465 573.731L344.762 572.063ZM312.59 568.292L312.424 569.27L311.545 571.17L310.306 571.992L309.318 571.493L307.37 570.073L295.533 564.012L292.332 563.233L291.344 565.532L289.876 564.772L287.073 562.05L285.183 559.827L284.257 556.365L285.473 553.5L289.13 549.691L290.74 547.663L291.966 546.888L292.208 547.938L291.344 549.829L288.864 553.567L289.054 555.087L290.099 556.445L291.12 557.224L292.009 557.258L292.731 557.552L293.491 558.621L294.683 559.3L295.908 559.747L299.732 563.718L301.68 565.147L303.675 565.314L304.891 565L305.29 565.399L305.399 566.558L305.902 567.917L307.261 568.515L308.558 568.368L308.776 568.249L308.296 568.064L308.391 567.351L309.075 566.691L310.301 566.872L312.59 568.292ZM292.066 542.214L291.838 540.903L291.443 537.431L291.804 530.624L294.16 524.972L297.889 521.438L298.948 521.001L296.977 522.967L295.367 525.528L294.151 528.349L293.719 531.551L295.006 534.429L297.832 537.141L298.953 537.621L299.989 537.783L299.917 538.875L298.644 541.041L298.165 543.179L298.345 544.114L298.597 545.022L299.727 545.905L301.437 545.516L301.955 545.81L301.148 547.178L299.656 547.919L297.804 547.577L294.844 545.183L293.187 544.114L292.066 542.214Z" fill="springgreen" stroke="#808080" stroke-linecap="round" stroke-linejoin="round"/>
</svg>
