<svg viewBox="0 0 3115 2566" fill="none" xmlns="http://www.w3.org/2000/svg">
<path d="M2400.57 1241.6L2411.38 1259.54L2418.42 1267.54L2425.85 1270.71L2434.72 1271.98L2443.08 1271.93L2450.77 1269.32L2460.79 1261.25L2461.14 1262.58L2468.7 1261.47L2470.09 1262.38L2471.3 1264.09L2472.6 1265.03L2474.26 1263.7L2474.42 1264.95L2474.25 1266.42L2473.67 1267.63L2472.71 1268.13L2471.88 1268.95L2472.17 1270.69L2472.85 1272.27L2473.25 1272.57L2472.8 1278.15L2473.66 1278.92L2476.28 1278.02L2478.28 1276.5L2482.34 1269.34L2484.42 1267.23L2486.31 1265.93L2487.48 1264.1L2487.4 1260.36L2489.57 1261.5L2492.29 1261.74L2494.57 1262.26L2495.55 1264.26L2496.27 1266.41L2498.07 1266.71L2500.37 1266.74L2502.62 1268.14V1269.35L2500.23 1270.46L2497.18 1271.41L2494.55 1272.82L2493.45 1275.41L2492.87 1275.42L2489.5 1279.14L2488.81 1280.46L2488.06 1282.6L2487.4 1283.68L2478.66 1290.18L2477.29 1292.1L2476.9 1292.88L2475 1295.55L2474.27 1296.99L2473.97 1298.58L2473.65 1302.18L2473.25 1303.73L2473.18 1304.66L2473.32 1305.75L2473.27 1306.67L2472.71 1307.06L2471.13 1306.97L2470.43 1307.12L2470.15 1307.61L2470.04 1311.11L2470.19 1312.92L2470.69 1313.7L2479.97 1314.54L2483.35 1313.7L2485.16 1312.57L2486.4 1311.5L2487.78 1310.7L2490 1310.38L2499.78 1312.43L2502.43 1314.46L2506.75 1319.33L2513.14 1321.29L2514.05 1327.53L2514 1331.71L2513.7 1342.09L2514.49 1346.3L2516.71 1350.11L2525.12 1361.08L2532.82 1371.11L2540.54 1381.14L2548.24 1391.17L2555.95 1401.18L2563.67 1411.19L2571.38 1421.19L2579.08 1431.2L2586.79 1441.2L2594.49 1451.19L2602.21 1461.19L2609.91 1471.18L2617.62 1481.16L2625.31 1491.13L2633.03 1501.1L2640.73 1511.07L2648.45 1521.04L2656.38 1531.25L2659.33 1533.85L2662.97 1535.04L2686.73 1538.22L2707.28 1540.96L2727.83 1543.71L2748.39 1546.45L2768.94 1549.19L2789.49 1551.94L2810.06 1554.68L2830.61 1557.42L2851.16 1560.16L2871.74 1562.9L2892.29 1565.65L2912.83 1568.38L2933.4 1571.12L2953.93 1573.87L2974.48 1576.6L2995.04 1579.33L3015.6 1582.08L3035.82 1584.77L3038.05 1584.37L3047.87 1571.53L3057.27 1587.25L3069.2 1607.24L3081.16 1627.21L3093.09 1647.17L3105.04 1667.1L3112.89 1680.2L3114.42 1683.69L3114.5 1687.35L3108.97 1705.34L3108.23 1707.74L3107.25 1710.89L3104.52 1719.78L3100.25 1733.58L3094.73 1751.47L3088.18 1772.63L3080.88 1796.21L3073.09 1821.41L3071.19 1827.53L3065.03 1847.39L3056.96 1873.36L3049.15 1898.47L3041.87 1921.93L3035.31 1942.93L3029.78 1960.68L3025.54 1974.34L3022.79 1983.13L3021.81 1986.23L3017.06 2001.43L2994.81 2009.32L2969.51 2018.3L2944.21 2027.25L2918.94 2036.21L2893.63 2045.17L2868.32 2054.12L2843.01 2063.07L2817.73 2072.03L2792.43 2080.97L2767.14 2089.91L2741.82 2098.85L2716.54 2107.79L2691.24 2116.73L2665.92 2125.65L2640.64 2134.58L2615.36 2143.51L2590.05 2152.44L2573.6 2158.22L2550.25 2161.55L2526.57 2164.91L2502.89 2168.29L2479.2 2171.65L2455.52 2175.02L2431.85 2178.39L2408.19 2181.76L2384.49 2185.12L2360.83 2188.5L2337.14 2191.86L2313.46 2195.22L2289.78 2198.59L2266.09 2201.95L2242.43 2205.32L2218.74 2208.68L2195.06 2212.04L2171.38 2215.41L2152.3 2218.12L2138.56 2223.17L2131.98 2226.58L2110.73 2237.52L2085.36 2250.56L2057.04 2265.14L2031.64 2278.19L2012.7 2287.94L2009.37 2290.28L1997.91 2304.75L1984.48 2321.58L1961.11 2350.99L1939.05 2378.7L1924.67 2396.74L1922.17 2401.53L1915.18 2420.86L1905.3 2448.2L1900.95 2454.05L1900.97 2453.94L1947.75 2074.36L1987.52 1763.57L2029.64 1418.56L2030.45 1382.51L2028.24 1362.83L2024.64 1351.31L2018.42 1337.12L2012.21 1326.76L2006.29 1319.06L1968.94 1281.39L1916.62 1243.6L1914 1240.53L1912.03 1237.25L1910.95 1234.73L1909.67 1227.46L1906.34 1007.83L1905.44 1002.58L1904.48 999.458L1903.08 996.432L1901.16 993.483L1899.07 991.35L1897.23 990.001L1849.94 970.972L1846.83 969.182L1844.13 966.118L1840.19 959.867L1815.76 935.932L1812.57 933.785L1809.18 932.711L1805.57 932.545L1783.53 936.511L1780.13 936.373L1776.74 935.846L1773.16 934.654L1769.74 933.11L1733.27 906.809L1723.89 901.437L1717.42 899.167L1710.9 897.837L1686.47 897.105L1680.12 895.756L1676.91 894.269L1670.49 889.871L1656.4 876.428L1647.24 865.166L1644.36 862.487L1641.14 860.782L1637.72 860.122L1626.95 859.167L1620.13 857.115L1578.27 832.828L1574.88 829.693L1571.3 825.029L1569.4 820.644L1565.4 806.247L1563.45 802.314L1560.89 798.832L1554.67 792.871L1542.04 783.571L1540.54 782.758L1538.64 780.611L1534.79 774.935L1533.5 771.567L1532.94 768.266L1532.98 765.198L1533.32 762.485L1534.45 757.612L1538.23 748.193L1541.32 742.645L1566.19 712.52L1573.45 701.923L1625.51 603.55L1634.36 590.208L1645.83 577.259L1660.42 563.793L1681.11 552.288L1751.1 525.817L1753.01 523.579L1755.61 523.024L1762.07 521.641L1768.55 520.259L1785.07 522.311L1801.57 524.358L1818.06 526.41L1834.6 528.472L1849.31 530.41L1864.04 532.357L1878.77 534.305L1893.49 536.248L1901.74 537.345H1901.75L1901.83 537.364L1901.84 537.369L1903.65 540.47L1910.77 552.668L1918.97 575.183L1919.66 579.435L1920.23 588.521L1921.65 593.656L1923.67 598.625L1925.9 602.439L1929.06 605.36L1932.45 607.759L1935.21 610.656L1936.44 615.121L1944.38 615.045L1970.66 614.765L1996.94 614.485L2023.23 614.214L2049.48 613.943L2052.97 617.648L2054.8 618.964L2058.62 620.731L2059.2 621.952L2060.55 629.31L2060.57 634.934L2059.27 638.686L2055.88 637.442L2055.16 638.548L2054.98 639.033L2054.8 639.736L2057.69 639.94L2060.14 639.313L2061.98 637.741L2062.95 635.143L2064.66 636.292L2064.58 637.798L2062.95 640.881L2062.05 645.27L2061.94 647.246L2062.7 651.207L2064.58 654.57L2076.92 668.255L2077.68 670.269L2075.55 673.485L2074.46 676.624L2074.33 679.911L2075.16 683.488L2076.63 686.153L2081.31 692.618L2082.3 694.356L2082.08 696.318L2081.9 696.95L2084.22 698.36L2089.28 700.65L2090.89 700.835L2095.94 700.65L2097.24 701.03L2100.2 702.664L2101.98 703.039L2102.58 703.49L2102.51 704.531L2102.03 705.69L2101.48 706.464L2100.53 706.901L2099.53 706.839L2098.45 706.464L2095.91 707.737L2095.25 708.806L2095.44 711.133L2096.86 713.366L2099.82 716.415L2103.21 719.113L2105.94 720.277L2106.01 721.018L2109.33 726.029L2115.29 731.962L2115.99 733.648L2114.68 737.016L2114.5 739.139L2114.62 741.106L2115.11 741.961L2114.79 743.143L2113.45 745.794L2111.58 748.558L2109.57 750.045L2110.6 748.088L2110.82 746.682L2110.5 742.583L2110.94 740.236L2111.8 738.892L2112.29 737.524L2111.59 735.116L2109.4 737.443L2107 743.656L2104.52 745.385L2107.23 738.18L2107.55 736.261L2106.82 733.097L2105.62 733.335L2104.37 735.605L2101.58 747.352L2101.49 750.045L2101.15 750.454L2100.65 751.556L2100.83 752.468L2102.5 752.33L2103.32 751.527L2104.36 748.729L2105.44 747.67V755.123L2106.03 756.895L2107.4 756.662L2108.8 755.242L2109.57 753.47L2110.61 755.303L2110.77 757.517L2110.5 760.3L2112.36 761.022L2113.78 760.196L2114.87 758.581L2115.63 756.895L2115.69 759.773L2115.38 760.794L2114.62 761.554L2115.34 763.07L2115.18 764.086L2114.22 764.637L2112.59 764.761L2114.1 768.413L2114.62 769.425L2111.02 767.611L2109.53 767.639L2108.48 769.425L2111.59 770.736L2114.25 770.575L2116.32 769.002L2117.66 766.015H2118.67L2119.68 768.39L2117.87 770.223L2117.26 773.496L2118.09 776.184L2120.69 776.265L2121.77 775.044L2121.12 773.876L2119.98 772.736L2119.68 771.61L2120.83 770.076L2122.42 769.207L2125.83 768.394L2128.7 768.124L2130.65 769.088L2135.91 773.99L2141.36 776.811L2142.81 778.802L2139.96 780.83L2142.06 781.832L2143.94 781.609L2144.83 780.436L2143.99 778.55L2146.48 779.676L2149.06 780.383L2154.68 780.83L2155.92 780.469L2158.54 778.901L2159.73 778.55L2161.28 778.74L2164.21 779.595L2165.81 779.785L2168.79 780.673L2171.07 782.796L2174.46 787.651L2175.53 788.587L2176.59 789.171L2177.56 789.874L2178.49 791.171L2178.86 792.439L2179.15 795.408L2179.58 796.752L2177.71 796.847L2176.61 796.035L2176.2 794.467L2176.47 792.306H2175.46L2172.36 796.049L2164.21 795.18L2161.31 798.001H2160.23L2159.22 795.142L2156.66 795.113L2151.05 798.001L2152.28 798.704L2155.53 799.63L2157.2 800.371L2158.51 801.345L2159.37 802.214L2160.41 802.998L2162.24 803.777L2163.2 805.069L2163.95 805.653L2164.77 805.383L2167.27 802.884L2167.29 802.537L2168.09 801.825L2168.42 800.856L2168.86 800.319L2169.84 800.889L2170.97 801.887L2172.35 802.537L2171.31 804.841L2169.91 805.991L2168.45 806.822L2167.29 808.223L2166.86 810.052L2166.77 814.374L2166.37 816.284L2167.95 815.852L2169.68 814.93L2171.39 813.686L2172.88 812.303L2174.57 811.71L2176.54 812.265L2179.59 814.013L2178.42 817.248L2178.86 820.445L2179.93 823.689L2180.51 827.081L2180.22 834.187L2181.04 837.174L2183.54 836.823L2183.38 839.853L2184.39 840.984L2185.97 840.618L2187.58 839.098L2186.84 836.609L2188.17 835.013L2190.47 834.866L2192.62 836.828L2193.53 835.588L2194.31 837.464L2193.88 839.141L2193.07 840.908L2192.62 843.079L2192.11 844.352L2190.84 844.893L2189.19 844.922L2187.59 844.679L2188.77 846.598L2192.35 847.32L2193.53 849.315L2195.02 848.418L2195.97 847.031L2197.67 843.649L2197.79 844.39L2197.92 844.485L2198.17 844.437L2198.68 844.675L2197.19 847.643L2198.42 848.137L2202.19 846.945L2204.49 847.363L2208.49 849.102L2210.87 849.311L2206.87 844.931L2205.65 842.328L2207.86 840.138L2209.69 840.062L2211.12 840.989L2212.42 842.091L2213.89 842.509L2215.05 841.996L2217.91 839.103L2217.4 841.739L2216.04 845.777L2215.92 848.175L2216.81 851.975L2217.61 854.07L2218.42 854.982L2221.19 856.288L2223.88 859.404L2232.42 872.856L2236.75 878.276L2238.04 879.288L2242.24 881.15L2243.6 882.252L2245.77 884.513L2247.3 885.686L2256.49 889.923L2262.23 894.151L2265.51 894.516L2268.94 894.322L2272.62 894.839L2277.18 897.49L2281.46 901.694L2288.86 911.802L2291.39 916.328L2302.16 924.147L2304.6 926.873L2305.1 931.115L2298.43 925.14L2294.85 922.864L2286.77 921.853L2284.67 921.14L2283.25 919.283L2282.11 913.179L2280.82 914.215L2279.47 917.017L2278.77 919.706L2278.65 921.772L2278.7 923.753L2279.18 925.572L2280.24 927.163L2281.72 928.735L2282.11 929.571L2281.5 939.689L2281.72 942.449L2285.7 955.022L2287.36 957.691L2289.8 960.09L2292.49 961.772L2305.17 966.18L2309.5 970.06L2312.11 975.675L2313.19 983.199L2313.11 1001.14L2312.55 1005.06L2311.04 1008.34L2308.14 1010.2L2308.07 1007.67L2306.91 1006.8L2305.34 1007.38L2304.03 1009.19L2304.98 1013.33L2304.59 1019.69L2303.41 1026.15L2302.08 1030.64L2299.78 1028.91L2299.13 1026.56L2299.19 1023.97L2298.96 1021.55L2297.93 1019.56L2296.6 1018.25L2295.21 1017.2L2294 1015.94L2293.2 1015.31H2292.51L2292.06 1014.91L2291.77 1010.35L2291.47 1009.24L2290.89 1007.96L2289.73 1006.33L2287.93 1004.53L2285.97 1003.45L2284.28 1004.01L2280.42 1011.5L2279.23 1012.55L2277.6 1013.58L2278.36 1015.79L2279.92 1017.94L2280.78 1018.74L2281.1 1019.94L2282.48 1022.32L2282.72 1023.9L2282.22 1024.31L2281.2 1024.67L2280.17 1025.35L2279.7 1026.6L2280.04 1029L2280.6 1031.33L2280.72 1033.7L2279.7 1036.25L2282.19 1037.12L2284.28 1035.81L2285.34 1033.34L2284.74 1030.63L2286.16 1031.06L2287.17 1031.89L2288.86 1034L2289.66 1034.38L2290.29 1034.21L2290.73 1034.34L2290.88 1035.63L2290.9 1036.63L2291.06 1037.15L2291.5 1037.35L2292.4 1037.36L2296.15 1038.28L2297.66 1040.49L2298.43 1043.41L2300.05 1046.35V1047.48L2297.1 1050.56L2298.66 1058.27L2302.15 1066.77L2305.1 1072.26L2313.99 1082.98L2317.72 1089.2L2319.24 1097H2318.31L2315.73 1089.19L2314.69 1087.94L2312.9 1087.53L2310.73 1086.51L2308.89 1085.24L2307.04 1082.47L2304.71 1080.62L2302.56 1080.36L2302.07 1083.56L2303.15 1085.85L2306.94 1088.62L2308.14 1090.28L2308.92 1088.63L2309.15 1087.94H2310.16L2315.78 1099.74L2332.62 1121.54L2336.51 1124.97L2336.07 1122.79L2335.1 1120.24L2334.69 1118.12L2335.99 1117.24L2337.55 1116.5L2338.23 1116.87L2338.83 1120.47L2339.58 1121.35L2340.3 1121.83L2340.62 1122.22L2341.81 1124.49L2344.56 1125.78L2349.61 1127.3L2350.89 1128.9L2353.75 1136.25L2352.64 1137.36L2354.45 1139.88L2356.44 1144.21L2358.1 1148.93L2358.8 1152.54L2358.63 1154.58L2357.86 1158.21L2357.69 1160.36L2358.01 1162.44L2358.7 1163.92L2359.38 1165.03L2360.21 1167.85L2362.34 1171.81L2362.72 1174.31L2361.8 1180.99L2362.99 1187.62L2364.28 1191.4L2365.84 1193.35L2366.97 1190.2L2370.8 1193.37L2374.82 1198.48L2376.49 1201.15L2378.98 1203.61L2381.9 1214.38L2385.62 1216.83L2388.55 1219.63L2389.83 1225.87L2390.16 1235.84L2390.78 1237.73L2392.04 1240.57L2393.6 1243.29L2395.19 1244.83L2397.38 1244.78L2400.57 1241.6ZM2216.91 812.897L2219.82 814.137L2227.7 816.412L2235.15 818.564L2232.43 819.604L2230.17 819.077L2227.99 818.013L2225.54 817.438L2223.1 817.771L2220.81 818.711L2218.72 820.127L2216.91 821.875L2215.73 820.597L2215.58 820.706L2214.89 820.839L2213.69 819.965L2212.9 819.604L2212.87 819.599V818.564L2214.85 817.709L2215.23 816.797L2214.6 815.776L2213.97 815.134L2213.38 814.545L2211.86 813.828L2210.24 814.085L2208.66 814.707L2207.28 815.058L2205.4 815.833L2203.54 817.794L2201.9 820.407L2200.77 823.114L2200.39 818.782L2203.13 814.517L2207.43 811.434L2211.87 810.612L2213.52 810.902L2214.79 811.51L2216.91 812.897Z" fill="#808080" stroke="#808080" stroke-linecap="round" stroke-linejoin="round"/>
<path d="M1214.33 272.295L1225.46 281.966L1225.47 281.976L1225.49 281.985L1225.5 281.995L1241.13 294.772L1254.17 305.436L1267.19 316.076L1280.21 326.716L1293.25 337.351L1310.17 351.154L1327.12 364.948L1344.06 378.733L1360.99 392.513L1368.16 398.346L1377.93 406.283L1394.87 420.034L1411.8 433.776L1428.72 447.513L1442.81 458.927L1456.91 470.342L1471.01 481.741L1485.08 493.142L1496.46 502.328L1497.4 502.689L1498.35 503.064L1499.27 503.44L1500.24 503.805L1513.76 505.026L1525.56 506.104L1537.32 507.164L1549.08 508.242L1560.85 509.306L1576.01 510.688L1591.15 512.056L1606.31 513.438L1621.46 514.806L1636.6 516.174L1651.76 517.557L1666.92 518.929L1682.06 520.302L1693.34 521.323L1704.58 522.34L1715.85 523.371L1727.12 524.387L1742.69 525.793L1749.15 524.416L1753.02 523.594L1751.11 525.831L1681.12 552.303L1660.43 563.807L1645.84 577.273L1634.37 590.222L1625.52 603.565L1573.46 701.937L1566.2 712.534L1541.33 742.659L1538.24 748.207L1534.46 757.626L1533.32 762.5L1532.99 765.212L1532.95 768.281L1533.5 771.582L1534.8 774.95L1538.65 780.626L1540.55 782.773L1534.41 791.565L1531.33 793.484L1527.48 795.175L1524.1 794.781L1520.96 793.356L1518.3 791.289L1515.98 788.463L1515.77 788.102L1515.02 787.276L1512.29 784.806L1510.27 779.97L1506.39 775.453L1481.92 753.261L1478.55 750.962L1471.8 747.248L1466.74 745.224L1421.16 738.289L1417.12 736.897L1412.03 734.375L1408.06 731.397L1404.53 728.024L1399.41 720.828L1386.98 687.792L1362.02 642.496L1359.42 639.175L1356.01 636.487L1352.14 635L1347.06 635.418L1342.91 637.19L1325.69 648.357L1319.7 651.297L1316.43 651.758L1312.49 651.392L1306.83 649.393L1291.09 641.128L1287.06 639.898L1281.96 639.47L1267.25 640.933L1263.38 640.506L1259.26 639.361L1254.19 636.126L1250.81 632.198L1248.47 627.187L1247.49 623.572L1247.08 621.254L1246.43 608.733L1246.09 607.374L1244.74 605.831L1241.66 604.158L1236.5 604.144L1232.21 605.094L1228.1 606.895L1216.17 613.597L1211.95 615.217L1207.59 616.304L1202.67 616.551L1197.32 615.744L1189.96 613.017L1184.92 609.887L1180.6 606.172L1162.64 584.56L1159.33 581.781L1155.97 579.639L1149.15 576.889L1098.69 565.033L1094.97 564.795L1078.89 565.778L1061.02 570.438L1057.28 571.004L1053.29 570.942L1048.13 570.092L1012.3 558.354L1007.39 557.58L1001.33 557.414L990.713 558.782L912.219 576.965L908.795 576.913L900.145 574.632L883.24 567.488L904.073 546.741L906.572 543.145L907.925 540.015L908.567 537.587L908.795 536.4L912.538 479.993L913.136 476.422L914.257 472.802L916.3 469.278L919.211 465.772L922.793 462.229L938.805 449.888L1062.26 372.724L1074.58 362.911L1081.19 356.056L1083.71 352.499L1084.44 349.117L1083.39 345.778L1080.66 342.709L1058.54 325.481L1051.41 318.493L1048.73 314.774L1044.58 307.165L1037.77 291.646L1036 288.806L1032.27 284.113L1029.26 280.954L1023.78 277.453L1019.33 275.915L1001.91 273.492L989.944 273.373L981.916 272.333L976.891 270.685L972.948 268.647L943.47 244.811L938.701 242.617L932.963 241.064L918.485 241.235L909.631 242.46L828.79 240.46L814.873 237.496L809.89 235.487L806.043 233.411L795.241 223.569L791.75 221.009L788.244 219.066L783.333 217.76L683.412 202.285L663.756 201.791L618.266 208.583L552.407 215.219L545.315 214.725L538.684 213.234L535.383 211.823L532.129 209.832L528.98 207.097L526.367 203.9L521.389 195.012L518.71 189.018L514.516 181.58L509.628 174.706L505.135 170.232L492.4 161.017L490.039 158.001L488.956 155.146L488.453 152.923L488.315 151.835L487.584 147.299L486.757 136.583L487.422 130.778L505.225 64.606L533.141 56.5073L566.372 46.86L599.589 37.1985L632.834 27.5418L649.625 22.6492L649.639 22.6588V22.6303L654.76 20.4595L672.316 3.7205L675.19 1.545L676.686 1.05575L677.113 0.917997L677.541 0.775503L677.954 0.632999L678.353 0.5L707.594 5.5255L736.821 10.5558L766.048 15.586L795.26 20.6068L807.116 22.635H807.149L807.164 22.6445L807.192 22.654L857.594 32.3963L865.555 35.5218L873.792 40.343L888.997 49.463L901.955 57.2482L914.941 65.005L927.913 72.7855L940.871 80.5518L953.844 88.3132L966.816 96.0605L979.774 103.812L992.76 111.569L1005.72 119.316L1018.68 127.059L1031.65 134.797L1044.64 142.535L1057.59 150.258L1070.55 157.986L1083.54 165.71L1096.5 173.433L1109.68 181.275L1119.48 189.811L1131.99 200.665L1144.47 211.514L1156.95 222.354L1169.45 233.188L1183.46 245.4L1197.46 257.594L1211.46 269.797L1214.33 272.295Z" fill="#808080" stroke="#808080" stroke-linecap="round" stroke-linejoin="round"/>
<path d="M392.157 152.343L391.867 152.03L372.629 131.096L353.392 110.149L359.063 108.448L390.014 99.1622L426.637 88.166L463.259 77.1555L471.933 74.5477L499.882 66.1449L505.211 64.6012L487.408 130.773L486.743 136.578L487.57 147.294L488.301 151.83L488.439 152.918L488.943 155.141L490.026 157.996L492.386 161.012L505.121 170.227L509.615 174.701L514.502 181.575L518.697 189.013L521.376 195.008L526.354 203.895L528.966 207.092L532.115 209.828L535.369 211.818L538.67 213.229L545.301 214.72L552.393 215.214L618.252 208.578L663.743 201.786L683.398 202.28L783.319 217.755L788.231 219.062L791.736 221.004L795.227 223.565L806.029 233.407L809.876 235.482L814.859 237.492L828.777 240.456L909.617 242.455L918.471 241.23L932.949 241.059L938.687 242.612L943.456 244.807L972.934 268.642L976.877 270.68L981.902 272.328L989.93 273.368L1001.9 273.487L1019.32 275.91L1023.76 277.449L1029.25 280.949L1032.25 284.108L1035.99 288.801L1037.76 291.642L1044.57 307.16L1048.72 314.769L1051.39 318.489L1058.53 325.476L1080.65 342.704L1083.37 345.773L1084.43 349.112L1083.69 352.494L1081.17 356.052L1074.57 362.906L1062.25 372.719L938.791 449.883L922.779 462.224L919.197 465.767L916.3 469.277L914.239 472.811L913.117 476.431L912.519 480.003L908.776 536.409L908.548 537.597L907.907 540.024L906.553 543.154L904.055 546.75L883.221 567.498L873.954 565.294L870.7 565.655L814.75 588.707L759.925 620.095L734.076 627.286L678.149 653.924L674.549 656.166L671.205 658.764L655.055 676.544L649.274 671.846L647.213 670.867L644.548 670.022L640.814 669.832L635.718 670.597L631.476 671.86L615.991 679.759L612.224 681.151L608.581 681.769L605.052 681.308L601.788 679.094L599.565 676.529L595.385 666.488L588.878 666.64L586.142 666.364L582.978 665.134L578.067 662.275L574.628 661.396L569.807 662.655L565.912 664.697L561 666.241L555.685 666.436L526.159 663.434L517.029 661.519L500.789 655.862L493.93 652.029L484.207 643.788L481.504 640.505L479.229 637.005L477.462 633.575L475.191 627.889L473.586 620.688L472.522 610.975L472.109 596.178L473.557 569.046L472.892 565.199L471.211 561.912L468.484 559.599L465.273 558.867L462.034 560.131L452.904 568.837L442.948 575.226L439.994 577.943L437.742 581.235L435.975 584.75L430.057 600.192L428.2 603.603L425.839 606.519L422.324 608.305L418.244 609.246L392.76 607.745L380.462 605.18L358.056 597.651L349.568 596.383L337.864 596.425L302.358 604.163L286.208 610.367L283.781 610.509L280.223 610.286L274.081 608.291L273.074 607.73L272.148 606.78L234.072 556.834L229.298 552.483L222.643 547.99L219.114 546.275L190.139 539.117L180.506 539.145L168.902 541.325L149.284 542.57L118.965 548.408L112.657 550.393L107.56 553.025L102.449 557.865L99.9081 559.247L96.2316 559.907L75.2034 557.898L63.2001 554.901L58.0606 554.73L53.0209 555.689L40.5094 555.96H40.4809L40.3621 555.105L37.9064 554.331V553.295L40.0819 549.571L42.4759 542.579L43.5826 535.407L41.9201 531.156V528.842L43.6159 525.698L45.0219 522.045L47.9811 506.902L48.6651 504.703L50.3134 500.908L50.0949 499.853L50.3134 497.435L51.7336 496.01L55.1489 494.082L54.1371 491.232L53.7524 487.508L54.3081 485.033L56.0419 485.978L56.2129 485.432L56.2366 484.962L56.4266 484.715L57.1486 484.819L56.0324 482.302L55.6334 479.433L56.2319 476.925L72.6289 479.808L90.1849 482.867L113.18 486.852L133.728 490.424L155.668 494.215L173.144 497.26L181.565 498.727L198.599 501.672L213.97 504.337L218.017 504.18L221.807 502.632L237.848 489.36L253.476 476.393L270.666 462.133L282.066 452.676L291.552 436.569L300.767 420.913L307.564 409.351L315.739 395.424L319.268 391.61L323.334 389.568L336.154 386.889L349.312 384.157L370.577 379.716L391.677 375.308L411.461 371.18L428.879 367.556L432.057 364.716L438.626 348.642L443.514 336.733L448.829 323.775L453.166 313.15L455.089 310.053L458.514 307.184L474.569 298.135L492.429 288.079L503.245 281.999L504.238 281.386L504.375 281.334L504.437 281.263L504.39 281.149L497.07 272.537L480.858 253.437L464.618 234.323L448.392 215.181L432.18 196.005L431.705 195.454L431.249 194.903L430.774 194.352L430.313 193.806L411.076 172.93L392.157 152.343Z" fill="#808080" stroke="#808080" stroke-linecap="round" stroke-linejoin="round"/>
<path d="M1901.01 2454.03L1900.87 2454.23L1884.01 2464.11L1865.88 2474.77L1861.51 2476.55L1856.7 2477.23L1837.22 2476.38L1835.15 2476.29L1833.28 2475.09L1820.78 2457.67L1809.84 2442.37L1800.29 2429.01L1794.81 2425.82L1761.96 2430.37L1737.53 2433.76L1701.66 2430.06L1673.7 2427.17L1636.96 2423.38L1605.63 2420.14L1598.88 2417.9L1574.84 2403.82L1566.46 2402.12L1541.61 2401.94L1537.94 2401.92L1519.69 2401.79L1489.74 2401.59L1486.52 2402.3L1477.25 2405.83L1473.09 2406.08L1462.94 2403.97L1453.92 2403.62L1439.62 2405.13L1428.26 2407.79L1425.45 2407.98L1419.22 2406.16L1416.21 2405.78L1414.03 2407.34L1411.87 2411.18L1409.63 2413.96L1406.8 2415.28L1402.96 2414.72L1397.28 2411.78L1394.76 2411.5L1391.57 2413.21L1389.32 2415.88L1387.42 2418.91L1385.12 2421.2L1381.63 2421.72L1379.89 2421.34L1379.01 2420.87L1378.52 2420.12L1377.93 2418.88L1378.31 2415.8V2414.1L1377.43 2413.69L1373.96 2414.73L1371.38 2414.85L1365.53 2414.33L1360 2414.96L1357.32 2414.93L1354.36 2413.88L1348.25 2409.02L1340.73 2400.55L1340.76 2395.69L1344.83 2380.11L1344.46 2371.88L1341.5 2362.38L1341.06 2358.65L1341.18 2354.38L1342.56 2348.19L1346.34 2313.74L1345.93 2307.2L1344.48 2300.85L1342.24 2293.93L1340.69 2287.12L1340.85 2283.22L1342.15 2278.87L1345.1 2273.24L1348.95 2268.2L1372.86 2242.83L1389.49 2228.7L1394.15 2223.72L1395.91 2221.11L1397.67 2217.89L1401.17 2209.49L1403.2 2205.71L1406.37 2202.21L1409.91 2199.8L1413.27 2198.37L1423.52 2196.26L1430.06 2193.95L1436.86 2190.55L1443.33 2186.2L1446.08 2183.47L1448.41 2180.48L1450.22 2177.41L1451.68 2173.57L1452.66 2169.29L1453.24 2163.43L1453.21 2158L1452.55 2151.02L1447.36 2131.17L1447.27 2127.39L1448.25 2123.26L1451.91 2117.58L1455.34 2114.6L1465.14 2109.4L1467.46 2107.54L1468.86 2105.6L1470.03 2102.06L1470.6 2096.97L1470.58 2077.26L1511.71 2103.12L1522.28 2108.36L1530.17 2111.3L1544.12 2114.7L1582.31 2117.33L1928.58 2079.85L1947.82 2074.34L1901.04 2453.92L1901.01 2454.03Z" fill="#808080" stroke="#808080" stroke-linecap="round" stroke-linejoin="round"/>
<path d="M1340.73 2400.56L1337.93 2397.41L1331.65 2393.67L1320.76 2388.94L1318.36 2388.32L1313.33 2388.12L1310.64 2387.49L1307.38 2387.94L1304.15 2389.18L1296.9 2393.75L1284.65 2375.13L1282.11 2371.96L1279.1 2369.33L1267.75 2365.29L1264.99 2363.1L1262.79 2360.21L1258.04 2350.33L1255.98 2347.09L1252.25 2343.37L1240.82 2334.04L1238.46 2330.05L1237.49 2326.26L1237.95 2319.83L1237.2 2316.91L1235.29 2314.54L1229.56 2313.41L1228.3 2313.66L1221.48 2317.6L1215.29 2322.23L1212.7 2324.98L1210.66 2327.88L1207.38 2334.11L1200.63 2359.72L1199.39 2362.71L1197.26 2365.03L1194.54 2366.1L1191.52 2366.09L1188.18 2364.76L1184.57 2362.35L1170.77 2348.11L1168.27 2344.26L1166.51 2340.68L1165.31 2337.45L1163.48 2334.15L1160.66 2331.2L1156.5 2328.98L1152.91 2328.16L1129.65 2327.83L1126.34 2326.94L1123.18 2325.26L1120.04 2321.44L1118.57 2318.27L1116.73 2312.61L1115.62 2310.96L1113.42 2308.52L1109.52 2306.23L1106.1 2305.28L1102.87 2305.08L1092.96 2306.38L1090.14 2305.62L1087.69 2303.34L1086.38 2299.12L1086.1 2295.5L1086.29 2291.96L1089.41 2273.28L1089.2 2270.15L1088.63 2267.29L1087.1 2264.85L1081.31 2263.23L1064.63 2264.55L1069.89 2244.79L1070.5 2240.4L1070.39 2236.32L1069.4 2231.64L1059.26 2200.8L1057.61 2197.75L1055.11 2195.2L1052.24 2193.57L1049.19 2192.46L1042.88 2191.27L1036.44 2190.74L1020.32 2191.01L1017.37 2190.21L1014.49 2188.59L1011.99 2185.98L1010.26 2182.91L1009.07 2179.68L1008.25 2176.44L1007.42 2169.95L1008.43 2133.52L1008.93 2130.73L1010.15 2129.11L1012.47 2130.3L1015.06 2132.3L1018.01 2133.82L1020.89 2133.89L1023.68 2132.51L1031.12 2126.88L1037.66 2123.01L1040.96 2121.88L1044.13 2121.32L1047.43 2121.21L1063.83 2123.01L1065.87 2122.9L1068.16 2122.42L1070.94 2121.21L1073.64 2119.2L1075.72 2116.47L1077.12 2113.44L1082.15 2097.51L1082.17 2093.63L1081.21 2089.81L1074.94 2079.21L1074.11 2076.11L1073.72 2071.92L1073.93 2068.21L1078.47 2047.77L1078.8 2044.62L1078.61 2041.44L1077.6 2038.07L1075.88 2034.95L1073.68 2032.28L1071.8 2030.94L1069.64 2030.04L1066.82 2029.56L1060.6 2029.89L1053.98 2032.59L1068.91 2000.11L1071.09 1992.33L1071.89 1981.08L1073.06 1976.85L1075.37 1972.61L1078.52 1969.6L1096.07 1957.28L1099.14 1954.29L1102.56 1949.49L1103.53 1945.57L1103.05 1941.93L1101.18 1939.07L1097.54 1935.29L1096.48 1930.52L1096.21 1926.42L1103.25 1902.19L1105.95 1906.69L1121.1 1937.89L1123.55 1941.03L1126.41 1943.56L1129.44 1945.34L1132.7 1946.38L1136.9 1946.08L1141.85 1944.48L1149.88 1939.98L1154.86 1936.41L1192.31 1902.31L1221.61 1886.33L1225.71 1882.93L1231.38 1877.16L1235.1 1874.64L1239.2 1872.85L1244.58 1871.81L1253.75 1871.61L1256 1871.21L1259 1870.27L1267.98 1866.38L1272.79 1864.96L1279.1 1864.23L1283.34 1864.44L1287.15 1865.27L1296.69 1868.56L1300.98 1868.2L1306.08 1866.5L1329.34 1852.72L1345.03 1846.62L1366.63 1866.04L1374.77 1875.6L1379.45 1883.21L1388.22 1894.99L1400.49 1908.52L1402.44 1912.32L1403.34 1915.72L1403.61 1918.62L1403.56 1921.63L1403.45 1922.28L1402.33 1925.53L1401.08 1928.3L1392.42 1942.01L1389.55 1948.03L1383.77 1975.01L1383.74 1978.92L1384.83 1983.85L1387.14 1987.69L1395.65 1997.76L1409.9 2021.61L1468 2075.4L1470.56 2077.24L1470.59 2096.95L1470.01 2102.04L1468.84 2105.59L1467.45 2107.52L1465.12 2109.39L1455.33 2114.58L1451.89 2117.56L1448.24 2123.24L1447.25 2127.37L1447.35 2131.16L1452.53 2151.01L1453.2 2157.98L1453.22 2163.41L1452.65 2169.27L1451.66 2173.55L1450.21 2177.39L1448.4 2180.46L1446.06 2183.45L1443.31 2186.18L1436.84 2190.53L1430.05 2193.94L1423.51 2196.24L1413.26 2198.35L1409.89 2199.78L1406.35 2202.2L1403.19 2205.69L1401.15 2209.47L1397.66 2217.87L1395.89 2221.09L1394.13 2223.7L1389.47 2228.68L1372.84 2242.81L1348.94 2268.18L1345.09 2273.22L1342.13 2278.85L1340.84 2283.2L1340.68 2287.1L1342.22 2293.91L1344.47 2300.83L1345.91 2307.19L1346.33 2313.72L1342.55 2348.17L1341.16 2354.36L1341.05 2358.63L1341.49 2362.36L1344.45 2371.86L1344.82 2380.09L1340.75 2395.67L1340.73 2400.56Z" fill="#808080" stroke="#808080" stroke-linecap="round" stroke-linejoin="round"/>
<path d="M1273.79 2517.1L1273.85 2517.34L1272.95 2520.22L1270.43 2520.7L1264.49 2518.88L1260.79 2518.18L1258.9 2518.99L1258.17 2521.11L1257.97 2524.37L1257.37 2527.29L1253.55 2537.37L1251.71 2540.01L1248.52 2542.42L1242.05 2546.26L1239.88 2547.04L1234.14 2548.11L1232.56 2548.79L1232 2550.81L1232.4 2553.15L1232.56 2555.64L1231.3 2558.11L1227.49 2560.77L1222.3 2563L1215.23 2565.5L1215.02 2565.08L1215.05 2559.5L1214.01 2557.9L1216.03 2552.88L1215.05 2549.94L1207.88 2541.82L1206.24 2538.33L1205.69 2535.38L1205.83 2528.62L1207.57 2522.04L1207.52 2519.22L1204.85 2518.56L1205.84 2517.41L1204.06 2515.73L1202.57 2513.36L1202.23 2511.15L1203.84 2510.03L1202.93 2508.49L1198.78 2504.77L1197.84 2503.65L1195.97 2500.87L1192.5 2496.98L1191.49 2496.25L1186.77 2493.64L1185.28 2493.46L1183.65 2494.33L1178.61 2487.27L1180.67 2480.47L1179.61 2477.98L1179.62 2470.39L1178.97 2467.75L1177.54 2466.82L1176.12 2466.11L1175.49 2464.05L1174.32 2462.7L1171.62 2462.48L1168.59 2462.66L1166.49 2462.47L1164.68 2460.84L1163.2 2458.35L1161.36 2454.03L1160.7 2451.76L1159.95 2446.46L1159.25 2444.33L1157.9 2443.13L1151.25 2440.2L1151.62 2442.87L1152.69 2445.33L1155.29 2449.71L1152.29 2451.61L1153.78 2461.73L1152.17 2464.58L1151.33 2461.37L1151.24 2450.76L1150.63 2447.59L1148.65 2441.57L1146.06 2420.57L1145.11 2416.86L1144.45 2414.11L1145.33 2406.39L1145.11 2403.1L1144.03 2399.65L1143.09 2398.21L1141.64 2397.62L1140.12 2397.54L1138.97 2397.23L1138.22 2396.48L1137.95 2395.12L1137.04 2393.35L1121.11 2379.59L1119.78 2379.15L1119.34 2379.99L1118.33 2378.65L1116.75 2375.4L1113.82 2371.26L1112.96 2368.65L1112.35 2367.44L1111.26 2366.93L1107.91 2367.63L1106.39 2367.27L1105.74 2365.33L1104.99 2364L1098.6 2357.3L1098.33 2357.61L1097.4 2358.03L1096.29 2358.36H1095.47L1094.05 2356.94L1089.5 2350.41L1087.99 2349.58L1079.23 2341.3L1076.03 2342.62L1070.49 2338.75L1067.13 2339.27L1065.75 2335.2L1063.16 2332.6L1059.98 2330.4L1057.02 2327.52L1050.81 2319.54L1049.87 2316.9L1050.09 2314.94L1050.52 2313.21L1050.28 2311.97L1048.39 2311.49L1047.31 2311.03L1047.09 2309.89L1047.16 2308.52L1046.93 2307.34L1040.7 2301.72L1038.42 2298.5L1039.76 2295.58L1038.96 2294.57L1038.98 2294.54L1039 2294.52L1041.68 2288.03L1043.21 2285.35L1045.51 2282.79L1048.33 2280.85L1057.44 2275.82L1060.1 2273.02L1061.92 2270.67L1064.62 2264.56L1081.3 2263.24L1087.08 2264.86L1088.62 2267.3L1089.19 2270.16L1089.39 2273.29L1086.28 2291.97L1086.09 2295.5L1086.37 2299.12L1087.68 2303.35L1090.13 2305.63L1092.94 2306.39L1102.86 2305.09L1106.09 2305.29L1109.51 2306.24L1113.41 2308.52L1115.61 2310.97L1116.71 2312.61L1118.56 2318.28L1120.02 2321.45L1123.16 2325.27L1126.33 2326.95L1129.63 2327.84L1152.89 2328.17L1156.49 2328.99L1160.64 2331.21L1163.47 2334.16L1165.3 2337.46L1166.49 2340.69L1168.25 2344.27L1170.76 2348.12L1184.56 2362.36L1188.17 2364.77L1191.51 2366.1L1194.52 2366.1L1197.25 2365.04L1199.38 2362.72L1200.62 2359.73L1207.37 2334.12L1210.65 2327.89L1212.69 2324.99L1215.27 2322.24L1221.47 2317.61L1228.28 2313.67L1229.54 2313.42L1235.27 2314.55L1237.18 2316.92L1237.94 2319.84L1237.48 2326.27L1238.45 2330.06L1240.81 2334.05L1252.23 2343.38L1255.97 2347.09L1258.03 2350.33L1262.78 2360.21L1264.98 2363.11L1267.74 2365.3L1279.09 2369.34L1282.09 2371.97L1284.63 2375.14L1296.89 2393.76L1291.14 2397.39L1278.25 2408.52L1271.15 2417.29L1270.73 2418.01L1279.18 2420.81L1282.08 2423.04L1283.61 2426.36L1283.09 2429.46L1279.77 2431.11L1276.39 2431.88L1272.48 2433.55L1269.42 2436L1268.52 2439.05L1268.66 2442.63L1267.81 2445.77L1264.71 2451.89L1263.84 2455.1L1264.44 2457.59L1265.6 2460.17L1266.44 2463.58L1266.42 2466.95L1265.78 2469.92L1263.4 2475.88L1262.4 2479.72L1262.98 2482.34L1266.1 2488.37L1267.89 2494.01L1269.59 2495.42L1275.08 2496.95L1276.6 2498.15L1277.6 2499.83L1277.8 2501.83L1277.17 2503.45L1276.06 2504.26L1274.7 2504.86L1273.37 2505.83L1271.24 2509.03L1271.57 2511.15L1272.91 2513.51L1273.79 2517.1ZM1126.08 2513.91L1126.06 2516.09L1125.64 2518.86L1124.62 2522.22L1124.99 2524.81L1126.34 2529.38L1124.87 2532.49L1124.92 2532.74L1121.56 2532.51L1117.44 2527.51L1114.08 2526.29L1110.91 2526.07L1109.34 2524.67L1113.52 2522.92L1115.91 2520.96L1114.95 2517.78L1111.2 2515.76L1107.43 2516.33L1103.06 2516.69L1100.08 2517.46L1097.29 2519.02L1094.9 2520.39L1091.93 2519.38L1088.59 2516.18L1086.23 2513.98L1082.86 2513.16L1078.91 2510.35L1075.36 2507.55L1073.59 2504.36L1072.63 2499.59L1070.06 2497.79L1067.48 2497.77L1065.72 2497.36L1066.1 2496.33L1065.92 2493L1063.75 2490.2L1062.38 2487.21L1062.6 2484.44L1064.79 2485.05L1065.57 2486.25L1067.35 2487.65L1073.1 2490.27L1076.26 2493.86L1077.83 2496.06L1078.4 2499.83L1078.31 2501.61L1080.94 2504.61L1083.5 2506.81L1084.49 2507.41L1089.85 2506.86L1091.61 2509.64L1094.59 2509.87L1097.57 2508.9L1100.15 2508.72L1101.92 2510.52L1101.91 2512.31L1103.69 2512.32L1108.07 2510.38L1103.92 2509.55L1101.74 2506.14L1103.53 2503.36L1104.63 2498.96L1105.6 2497.45L1107.72 2497.12L1108.65 2497.5L1109.83 2497.97L1113.9 2500.5L1114.08 2503.08L1116.04 2506.27L1115.75 2507.93L1119.39 2508.48L1120.35 2511.46L1126.08 2513.91ZM1086.53 2500.69L1084.36 2498.89L1082.2 2496.09L1078.46 2491.3L1075.32 2486.92L1074.12 2485.17V2485.15L1075.79 2483.68L1079.36 2483.47L1081.96 2482.67L1083.87 2481.04L1085.36 2478.31L1086.88 2478.44L1087.15 2478.46L1087.95 2475.39L1086.83 2471.67L1084.84 2470.77L1082.85 2469.86L1080.94 2469.7L1077.61 2468.97L1075.78 2468.81L1075.42 2468.13L1076.55 2466.88L1077.94 2466.31L1078.3 2467.65L1083.09 2468.12L1086.86 2469.65L1089.37 2472.61L1089.5 2473.24L1090.41 2477.33L1090.45 2480.27L1089.63 2483.64L1090.21 2486.43L1094.96 2487.66L1096.33 2491.04L1090.25 2491.13L1088.51 2493.39L1089.37 2496.02L1092.99 2497.28L1095.05 2498.54L1097.84 2499.78L1098.8 2503.55L1098.79 2505.34L1094.44 2502.73L1089.1 2501.1L1086.53 2500.69Z" fill="#808080" stroke="#808080" stroke-linecap="round" stroke-linejoin="round"/>
<path d="M415.968 1275.29L406.568 1261.52L397.467 1248.82L393.159 1243.06L392.94 1238.56L393.444 1237.37L393.562 1235.75L393.42 1234.14L392.94 1233L391.857 1232.46L389.943 1234.39L388.39 1234.61L385.791 1233.02L383.877 1230.4L381.341 1224.61L385.107 1224.68L388.428 1225.23L391.738 1225.33L395.467 1224.05L397.305 1221.32L397.524 1213.08L400.759 1206.18L400.326 1202.51L397.486 1195.67L396.55 1191.75L397.486 1182.13L397.22 1178.44L396.436 1174.95L395.173 1171.72L393.439 1168.71L390.66 1165.35L388.964 1163.73L387.378 1162.58L385.981 1161.29L384.599 1158.23L383.359 1156.94L380.414 1154.64L377.493 1151.41L374.942 1147.71L373.161 1144.06L372.824 1142.43L372.51 1138.77L372.149 1137.35L371.176 1135.85L368.924 1133.38L368.216 1131.76L370.815 1129.89L368.639 1126.18L362.07 1119.47L360.939 1117.39L358.56 1110.41L357.79 1109.27L355.771 1107.93L355.002 1107.06L354.798 1106.12L354.94 1104.09L354.494 1103.15L353.206 1101.17L351.112 1096.44L349.957 1094.64L348.067 1093.23L343.749 1091.45L341.873 1090.26L336.064 1080.92L332.382 1076.3L329.171 1076.05L328.882 1077.89L329.879 1079.79L330.397 1081.41L328.663 1082.43L326.787 1081.87L322.251 1078.61L320.037 1077.85L318.712 1076.97L315.368 1072.69L314.442 1071.12L314.261 1070.12L314.442 1066.59L314.119 1065.64L312.337 1065.19L311.421 1064.39L309.616 1060.25L309.426 1056.4L310.832 1052.73L313.938 1049.14L315.886 1045.78L316.427 1041.27L315.848 1036.64L314.442 1032.86L310.941 1029.08L306.248 1026.62L301.075 1025.29L296.178 1024.89L290.872 1022.96L287.333 1018.26L277.947 995.872L274.556 990.115L268.134 981.418L257.209 954.4L245.514 933.357L238.465 924.313L229.901 916.618L225.978 912.111L223.645 904.943L219.195 897.091L216.273 886.793L213.604 887.534L211.585 885.677L208.108 880.005L198.518 871.408L186.667 855.947L182.434 847.748L181.955 846.418L181.774 844.775L182.097 843.416L183.541 841.041L183.878 839.607L183.156 837.612L179.618 832.22L167.192 817.372L160.19 812.536L158.385 810.931L154.884 806.575L150.913 800.034L146.439 795.579L140.81 785.11L139.186 780.821L138.644 777.443L138.549 771.425L137.67 768.29L136.445 766.11L131.571 760.937L128.878 756.453L125.078 746.245L122.024 741.961L120.627 741.02L117.644 739.838L116.49 739.054L115.659 737.876L114.999 735.605L113.507 732.485L112.856 727.716L111.436 725.36L103.784 716.743L101.452 712.563L100.031 710.962L97.7229 709.894L90.5552 704.17V705.319H89.5434L87.9094 703.092L89.8237 701.396L93.1534 699.933L95.7041 698.351L97.2669 699.106L97.1102 698.166L95.7041 695.549L94.8112 695.183L90.7214 694.29L89.5434 693.772H88.5317V694.917H87.6434L87.0402 693.881L86.1757 692.765L85.1307 691.867L84.0097 691.502L81.3734 691.611L80.0387 691.445L78.3049 689.63L71.3984 684.633L69.9307 685.73L68.1969 685.654H66.6342L67.0427 686.595L67.5984 687.412L68.2729 688.058L66.7814 687.279L65.1332 686.139L63.4137 685.526L61.6561 686.343L60.1504 687.331L55.6617 688.68L54.4457 689.369L53.5669 690.248L53.0397 691.487H52.0279V690.343H51.0162L49.0687 690.875L46.0714 690.309L43.0504 690.352L41.0174 692.732L40.6184 691.872L40.4997 691.858L39.8964 691.492V690.347H41.0174V689.093L40.4522 687.934L41.1979 686.98L42.5707 686.258L43.9434 685.768L42.5374 685.156L41.1077 684.956L39.5924 685.179L37.9061 685.764V686.918H38.9987V688.058L37.3504 688.618L36.2674 689.763L34.8709 692.737L34.4149 692.034L33.9589 691.796L33.4554 691.715L32.9377 691.497L33.5267 690.49L34.3912 689.521L35.5454 688.68L36.9752 688.058L36.8897 687.417L36.8659 686.714L36.9752 685.764L34.8804 685.669L33.2179 686.049L32.1492 687.113L31.8499 689.089L31.0424 688.609L30.8002 688.542L30.5816 688.747L29.8217 689.089L29.7599 688.552L29.8312 687.445L29.8169 686.913H28.9619V688.053H27.7839L27.0382 686.628L26.3541 685.892L25.6321 685.968L24.7677 686.913L23.4092 685.868L23.0719 685.379L22.1599 684.044L21.6327 683.275L20.7302 681.189L20.2979 681.607L19.7327 682.044L19.1437 682.624L18.6259 683.479L16.7022 682.021L16.1749 682.757L16.0799 684.429L15.6096 685.773L14.4934 686.457L12.5079 687.317L11.5579 688.067V689.103L14.6881 691.502V692.741L13.7239 692.808L13.3011 693.079L13.0827 693.444L12.7597 693.772L11.5579 692.737L10.8501 695.515L10.7171 697.677L9.76716 699.087L6.51817 699.6L6.76989 698.802L6.91242 698.679L7.15465 698.75L7.61065 698.384L6.51817 697.24L5.86742 694.841L5.57764 692.661L5.5064 688.609L4.42341 687.393L0.803907 688.932L1.46416 686.946L0.561646 685.792L2.72765 682.6L4.13364 681.413L5.42091 680.8L5.5064 679.969L6.43265 679.498L7.6819 678.316L8.5369 677.784L7.61065 676.639L8.04292 675.751L8.59865 675.081L9.3919 674.625L10.5462 674.345V675.124L10.2089 675.29L9.80039 675.242L9.5344 675.385L11.0022 676.164L12.2277 676.572L13.1159 676.107L13.5862 674.345H12.7549V673.2L11.6957 672.136L11.9141 671.024L13.0447 670.117L14.6786 669.666V668.526L14.1752 667.058L15.6049 659.349L16.1702 659.681L17.1914 660.104L17.6949 660.494L17.6237 659.962L17.6949 658.199L16.8399 658.779L16.4694 659.14L15.6049 658.204L18.5784 655.321L21.5852 649.773L23.8699 643.702L25.4326 635.803L28.3207 631.433L29.4037 626.412L30.4629 623.572L34.7047 616.205L33.5789 608.624L33.1752 600.667L30.9617 593.077L33.6834 582.746L35.5976 577.326L37.8967 572.87V571.821H36.9799L39.4926 567.455L39.8537 565.418L38.9987 563.556V562.496L40.6707 557.338L40.4759 555.96H40.5044L53.0159 555.69L58.0557 554.73L63.1952 554.901L75.1984 557.898L96.2267 559.908L99.9032 559.247L102.444 557.865L107.555 553.025L112.652 550.393L118.96 548.408L149.279 542.57L168.897 541.326L180.501 539.145L190.134 539.117L219.109 546.275L222.638 547.99L229.293 552.483L234.067 556.834L272.143 606.781L273.069 607.731L274.076 608.291L280.218 610.286L283.776 610.509L286.203 610.367L302.353 604.163L337.859 596.426L349.563 596.383L358.051 597.651L380.457 605.18L392.755 607.745L418.239 609.246L422.319 608.305L425.834 606.519L428.195 603.603L430.052 600.193L435.97 584.75L437.737 581.235L439.989 577.943L442.943 575.226L452.899 568.838L462.029 560.131L465.268 558.867L468.479 559.599L471.206 561.912L472.887 565.199L473.552 569.047L472.104 596.179L472.517 610.975L473.581 620.689L475.186 627.89L477.457 633.575L479.224 637.005L481.499 640.506L484.202 643.788L493.925 652.029L500.784 655.862L517.024 661.52L526.154 663.434L555.68 666.436L560.995 666.241L565.907 664.697L569.802 662.655L574.623 661.396L578.062 662.275L582.973 665.134L586.137 666.365L588.873 666.64L595.38 666.488L599.56 676.53L601.783 679.095L605.047 681.308L608.576 681.769L612.219 681.151L615.986 679.76L631.471 671.86L635.713 670.597L640.809 669.832L644.543 670.022L647.208 670.868L649.269 671.846L655.05 676.544L657.615 680.106L660.066 681.598L663.605 683.004L711.219 694.375L719.246 697.525L724.799 700.588L728.076 704.232L728.628 705.011L731.91 708.331L736.446 711.49L745.352 715.855L762.709 730.205L771.434 738.888L773.382 742.417L774.964 746.027L791 811.354L792.605 814.603L794.918 817.78L797.241 819.904L802.856 823.898L820.768 833.465L824.098 836.339L827.328 840.262L827.969 843.677L827.466 847.183L826.136 850.536L823.822 853.899L821.006 857.049L802.856 872.947L796.21 881.92L791.731 890.987L783.219 917.744L780.421 923.021L777.894 926.551L775.671 928.213L770.67 920.846L768.105 918.67L764.737 916.618L761.407 916.172L699.956 925.729L685.184 925.791L677.774 924.831L672.159 922.922L654.328 909.189L635.613 902.354L630.388 899.699L626.987 896.559L624.536 889.89L622.888 886.575L619.463 883.63L616.689 883.373L614.922 885.249L614.718 888.185L615.43 891.434L615.796 894.616L615.107 897.305L611.388 898.972L607.973 898.673L604.367 897.5L593.452 892.251L588.54 890.797L584.921 890.522L581.805 891.13L579.743 892.151L566.434 902.772L562.577 905.214L557.969 906.406L554.958 905.494L553.58 903.01L553.604 899.813L554.017 896.35L553.994 892.982L552.963 889.871L550.441 887.121L541.382 881.34L538.974 878.718L537.867 875.806L537.616 873.146L537.663 871.869L537.753 871.147L537.73 870.33L537.454 868.387L536.124 865.96L533.626 864.083L530.557 863.015L527.341 862.506L512.407 861.875L506.014 860.668L501.744 858.483L498.4 855.538L490.187 842.884L487.247 837.27L484.382 830.335L480.236 815.106L478.944 812.38L476.858 809.52L472.94 806.623L470.18 805.815L467.615 805.991L439.951 821.025L436.645 822.188L433.187 822.716L429.881 822.573L423.715 821.447L419.355 819.614L406.858 811.7L400.274 808.879L395.681 807.967L391.672 808.081L388.318 809.126L350.38 827.114L333.385 831.394L330.235 832.928L327.67 835.465L326.73 838.395L327.347 841.074L329.87 842.784L333.038 843.017L342.695 841.174L345.445 841.06L347.207 841.345L349.872 842.376L352.484 844.148L354.707 846.58L355.9 848.465L357.168 851.467L359.415 861.637L359.757 865.855L359.457 875.084L356.341 897.628L356.617 904.572L357.234 908.496L358.289 912.134L359.685 915.602L361.657 919.008L364.131 922.304L367.323 925.363L370.601 927.562L374.116 929.082L391.092 934.084L394.28 935.927L396.916 938.81L398.412 942.824L398.597 946.752L397.885 950.201L396.731 952.823L387.672 967.8L384.97 974.53L384.305 977.893L384.053 981.29L384.352 984.657L385.335 988.13L393.938 1005.52L396.07 1012.26L397.581 1018.91L398.507 1021.78L399.628 1023.75L401.965 1023.15L407.314 1018.76L410.43 1017.57L413.731 1018.07L440.141 1033.32L442.502 1035.09L443.442 1036.06L443.855 1036.69L446.126 1045.67L447.408 1049.14L449.228 1052.46L451.75 1055.57L470.968 1071.75L473.681 1075.02L475.79 1078.12L478.103 1082.71L482.601 1095.09L487.802 1115.09L489.118 1118.33L489.598 1118.81L490.538 1119.21L492.875 1119.87L502.209 1120.31L505.325 1120.97L507.325 1122.1L509.225 1124.06L510.346 1126.99L510.669 1130.23L505.444 1167.4L507.277 1221.11L506.684 1223.43L505.23 1226.49L502.295 1230.67L498.879 1233.42L495.298 1235.12L491.541 1235.79L484.454 1235.47L477.775 1234.3L474.498 1234.13L471.258 1234.7L468.004 1236.65L464.841 1239.99L460.894 1245.02L457.298 1248.51L453.693 1250.93L450.187 1252.29L446.9 1253.21L441.238 1253.98L429.097 1253.96L426.162 1254.7L423.136 1256.22L420.699 1258.8L419.094 1261.71L418.087 1264.75L416.282 1274.23L415.968 1275.29ZM363.348 1131.76L364.901 1133.04L365.632 1133.76L365.295 1133.92L364.644 1133.63L363.523 1133.45L363.39 1134.13L363.994 1135.18L362.816 1134.99L359.904 1133.09L359.158 1131.3L359.41 1130.19L357.98 1130.04L356.161 1130.56L355.149 1129.2L354.427 1126.96H353.092L351.468 1128.12L351.145 1126.99L352.252 1123.92L353.672 1122.25L355.477 1122.23L357.519 1122.53L359.263 1123.61L360.692 1126.82L361.642 1126.7L361.965 1125.53L362.578 1126.34L363.348 1131.76ZM350.827 1131.96L353.221 1131.86L353.677 1132.6L350.969 1134.07L349.824 1134.98L348.262 1136.76L346.784 1139.74L344.557 1141.35L341.441 1139.27L338.638 1136.14L335.945 1134L330.003 1127.63L329.618 1127.21L329.086 1126.25V1125.64L329.376 1125.7L329.675 1125.36L329.399 1124.41L327.979 1122.78L326.283 1120.37L326.345 1119.18L327.908 1119.56L329.352 1120.79L332.059 1124.18L333.323 1125.17L336.03 1126.66L341.217 1128.91L343.697 1129.58L345.549 1129.79L346.922 1130.6L347.597 1131.76L344.519 1131.88L344.063 1133.99L345.241 1135.93L347.008 1135.47L348.813 1133.47L350.827 1131.96ZM337.109 1113.19L335.703 1112.73L333.803 1110.87L334.092 1108.55L335.921 1107.13L338.04 1107.41L339.65 1109.18L339.579 1111.08L338.016 1112.59L337.109 1113.19ZM328.364 1118.95L326.944 1117.89L326.245 1117.7L325.571 1117.45L324.778 1116.28L324.692 1114.64L323.381 1114.19L321.31 1113.82L320.925 1113.25L321.529 1113.45L321.372 1112.73L320.108 1110.96L317.871 1109.48L315.225 1109.64L314.024 1110.38L313.373 1111L312.242 1111.37L312.28 1109.84L313.734 1107.59L316.033 1106.93L318.812 1107.92L326.127 1112.8L326.944 1114.06L327.713 1115.98L329.965 1117.35L332.273 1118.21L335.584 1120.25L340.828 1124.6L342.129 1126.07L341.911 1126.66L341.331 1127.16L341.512 1127.87L340.719 1127.44L338.443 1125.66L336.472 1124.42L334.957 1124.04L334.354 1123L333.57 1121.19L332.197 1120.51L331.247 1120.92L329.898 1120.48L328.364 1118.95ZM344.704 1110.52L344.509 1105.85L344.319 1104.83L344.333 1102.96L345.283 1101.69L346.727 1101.13L348 1101.75L348.699 1103.35L348.794 1104.87L348.409 1106.06L347.725 1106.11L346.822 1105.4L346.656 1105.69L347.041 1106.89L346.946 1107.45L346.609 1107.27L347.62 1109.57L348.68 1113.93L348.029 1115.42L346.371 1112.87L345.407 1112.19L344.704 1110.52ZM312.532 1106.75L312.366 1107.73L311.487 1109.63L310.247 1110.45L309.259 1109.95L307.312 1108.53L295.475 1102.47L292.273 1101.69L291.285 1103.99L289.818 1103.23L287.015 1100.51L285.125 1098.29L284.198 1094.82L285.414 1091.96L289.072 1088.15L290.682 1086.12L291.908 1085.35L292.15 1086.4L291.285 1088.29L288.806 1092.03L288.996 1093.55L290.041 1094.9L291.062 1095.68L291.95 1095.72L292.672 1096.01L293.432 1097.08L294.625 1097.76L295.85 1098.21L299.674 1102.18L301.621 1103.61L303.616 1103.77L304.832 1103.46L305.231 1103.86L305.341 1105.02L305.844 1106.38L307.203 1106.97L308.499 1106.83L308.718 1106.71L308.238 1106.52L308.333 1105.81L309.017 1105.15L310.243 1105.33L312.532 1106.75ZM292.007 1080.67L291.779 1079.36L291.385 1075.89L291.746 1069.08L294.102 1063.43L297.831 1059.9L298.89 1059.46L296.919 1061.43L295.309 1063.99L294.093 1066.81L293.66 1070.01L294.948 1072.89L297.774 1075.6L298.895 1076.08L299.93 1076.24L299.859 1077.33L298.586 1079.5L298.106 1081.64L298.287 1082.57L298.539 1083.48L299.669 1084.36L301.379 1083.98L301.897 1084.27L301.089 1085.64L299.598 1086.38L297.745 1086.04L294.786 1083.64L293.128 1082.57L292.007 1080.67Z" fill="#808080" stroke="#808080" stroke-linecap="round" stroke-linejoin="round"/>
<path d="M602.382 1456.51L601.945 1453.19L601.389 1448.67L600.52 1445.14L600.178 1442.27L597.698 1439.62L596.606 1437.83L596.135 1435.16L595.931 1432.53L592.635 1434.41L591.181 1433.47H589.975L590.117 1436.17L591.514 1437.58L595.233 1438.96V1440.08L590.288 1439.61L587.044 1436.57L586.92 1428.73L580.361 1420.21L576.888 1409.13L575.853 1405.45L575.202 1401.46L574.119 1397.71L571.811 1394.8L570.343 1394.05L568.742 1393.69L566.272 1392.85L564.876 1391.23L564.192 1388.91L563.009 1386.08L561.213 1383.74L558.781 1382.98L556.387 1382.29L554.383 1381.17L552.934 1380.04L551.49 1377.32L549.091 1374.48L547.918 1373.5L545.481 1371.73L542.46 1370.79L540.038 1370.47L536.518 1368.12L534.609 1366.69L531.692 1363.94L528.88 1360.38L525.854 1358.03L523.332 1355.69L518.9 1351.4L517.708 1350.8L516.497 1350.49L515.181 1351.09L513.965 1351.88L510.635 1349.58L508.327 1347.72L502.242 1343.83L497.644 1340.28L498.504 1338.35L501.059 1336.55L504.703 1335.97L503.254 1334.5L501.064 1335.21L498.266 1336.65L497.183 1334.58L498.893 1331.8L499.511 1329.26L497.934 1328.64L496.96 1329.84L495.141 1330.2L494.286 1331.77L495.131 1332.62L495.611 1334.08L495.844 1336.14L495.958 1337.6L495.103 1338.57L491.835 1337.33L487.346 1338.52L480.625 1333.36L478.592 1331.49L472.854 1326.93L471.533 1323.66L469.6 1322.32L467.059 1321.09L464.399 1319.63L462.228 1317.56L459.326 1315.61L455.811 1315.72L454.129 1315.53L451.916 1317.2L451.436 1319.34L452.272 1322.61L445.974 1322.83L444.406 1320.41L440.05 1318.34L436.654 1319.42L433.391 1316.02L431.339 1312.37L428.076 1307.76L422.865 1303.26L421.174 1297.8L422.637 1294.53L423.729 1294.89L426.641 1296.84L427.862 1294.3L426.893 1291.26L415.977 1275.29L416.296 1274.22L418.101 1264.74L419.108 1261.7L420.713 1258.79L423.15 1256.21L426.176 1254.69L429.111 1253.95L441.252 1253.97L446.914 1253.2L450.201 1252.28L453.707 1250.92L457.312 1248.5L460.908 1245.01L464.855 1239.98L468.018 1236.64L471.272 1234.69L474.512 1234.12L477.789 1234.29L484.468 1235.46L491.555 1235.78L495.312 1235.12L498.893 1233.41L502.309 1230.66L505.244 1226.48L506.698 1223.42L507.291 1221.1L505.458 1167.39L510.683 1130.22L510.36 1126.98L509.239 1124.05L507.339 1122.09L505.339 1120.96L502.223 1120.3L492.889 1119.86L490.552 1119.2L489.612 1118.8L489.132 1118.32L487.816 1115.08L482.615 1095.08L478.117 1082.7L475.804 1078.11L473.695 1075.01L470.982 1071.74L451.764 1055.56L449.242 1052.45L447.422 1049.13L446.14 1045.66L443.869 1036.68L443.456 1036.05L442.516 1035.08L440.155 1033.31L413.745 1018.06L410.444 1017.56L407.328 1018.75L401.979 1023.14L399.642 1023.74L398.521 1021.77L397.595 1018.9L396.084 1012.25L393.952 1005.51L385.349 988.12L384.366 984.648L384.067 981.28L384.319 977.884L384.984 974.521L387.686 967.79L396.745 952.813L397.899 950.191L398.611 946.743L398.426 942.814L396.93 938.801L394.294 935.917L391.106 934.074L374.13 929.073L370.615 927.553L367.337 925.353L364.145 922.294L361.671 918.998L359.699 915.592L358.303 912.125L357.248 908.486L356.631 904.563L356.355 897.618L359.471 875.075L359.771 865.845L359.429 861.627L357.182 851.458L355.914 848.456L354.721 846.57L352.498 844.138L349.886 842.366L347.221 841.335L345.459 841.05L342.709 841.164L333.052 843.007L329.884 842.775L327.361 841.065L326.744 838.386L327.684 835.455L330.249 832.918L333.399 831.384L350.394 827.104L388.332 809.116L391.686 808.071L395.695 807.957L400.288 808.869L406.872 811.691L419.369 819.604L423.729 821.438L429.895 822.563L433.201 822.706L436.659 822.179L439.965 821.015L467.629 805.981L470.194 805.805L472.954 806.613L476.872 809.51L478.958 812.37L480.25 815.096L484.396 830.325L487.261 837.26L490.201 842.874L498.414 855.528L501.758 858.473L506.028 860.658L512.421 861.865L527.355 862.497L530.571 863.005L533.64 864.074L536.138 865.95L537.468 868.377L537.744 870.32L537.767 871.137L537.677 871.859L537.63 873.137L537.881 875.797L538.988 878.708L541.396 881.33L550.455 887.111L552.977 889.861L554.008 892.973L554.031 896.34L553.618 899.803L553.594 903L554.972 905.484L557.983 906.396L562.591 905.204L566.448 902.762L579.757 892.141L581.819 891.12L584.935 890.512L588.554 890.788L593.466 892.241L604.381 897.49L607.987 898.663L611.402 898.962L615.121 897.295L615.81 894.607L615.444 891.424L614.732 888.175L614.936 885.24L616.703 883.363L619.477 883.62L622.902 886.565L624.55 889.88L627.001 896.549L630.402 899.689L635.627 902.344L654.342 909.18L672.173 922.912L677.788 924.821L685.198 925.781L699.97 925.719L761.421 916.162L764.751 916.609L768.119 918.661L770.684 920.836L775.685 928.203L778.345 935.257L778.963 938.44L779.405 942.596L779.267 946.301L777.951 952.295L777.31 954.257L771.971 964.099L770.161 969.177L770.361 973.157L771.928 976.644L774.702 979.185L777.866 980.487L781.243 980.776L788.33 979.299L791.835 979.465L795.065 982.14L796.424 985.474L796.904 989.027L788.691 1044.29L788.577 1049.3L789.171 1053.26L793.826 1071.35L796.424 1087.8L795.094 1131.34L795.887 1135.83L797.569 1139.77L799.54 1142.74L801.924 1145.21L803.653 1146.51L806.332 1147.88L809.472 1148.87L812.802 1149.36L816.217 1149.23L819.68 1148.64L856.388 1135.68L863.798 1134.37L881.416 1134.81L887.795 1134.22L890.821 1133.62L893.732 1132.74L895.732 1131.92L898.411 1130.44L901.275 1128.27L904.287 1125.43L915.112 1111.9L918.48 1108.9L922.451 1106.42L927.491 1104.54L931.671 1103.59L957.245 1102.51L998.513 1109.01L1011.27 1112.61L1014.85 1113.9L1034.34 1118.56L1040.88 1120.88L1043.76 1122.91L1046.03 1126.06L1047.24 1130.07L1047.72 1133.91L1044.92 1176.28L1045.5 1179.93L1046.78 1183.63L1049.74 1188.13L1052.9 1190.84L1056.3 1192.69L1075.45 1197.81L1077.86 1199.04L1079.54 1200.18L1079.81 1200.47L1082.36 1204.99L1084.86 1211.34L1092.61 1241.98L1095.46 1248.68L1097.36 1251.55L1099.82 1253.93L1112.75 1263.57L1112.78 1269.24L1111.01 1276.36L1109.03 1281.08L1108.69 1281.69L1101.83 1290.68L1099.56 1294.48L1098.71 1297.09L1098.51 1299.49L1098.79 1300.75L1100.89 1306.08L1101.03 1309.88L1100.5 1316.1L1097.87 1328.33L1096.06 1355.98L1096.51 1370.96L1077.16 1368.05L1067.84 1368.59L1064.47 1370.07L1061.56 1372.25L1059.56 1375.18L1058.85 1378.5L1059.15 1381.88L1062.98 1392.46L1063.64 1395.81L1063.99 1399.24L1063.71 1406.34L1062.63 1410.31L1060.65 1414.61L1056.78 1420.62L1053.14 1424.25L1049.56 1426.99L1023.27 1438.56L1004.12 1449.43L997.553 1454.28L992.984 1459.19L991.426 1463.12L992.342 1466.49L994.941 1469.28L998.171 1471.7L1014.27 1480.43L1016.7 1483.07L1017.62 1486.63L1016.13 1491.1L1013.29 1494.17L1009.87 1496.12L992.684 1502.51L988.742 1505.15L984.196 1508.85L963.576 1529.61L921.463 1562.93L915.563 1569.7L904.966 1586.16L901.152 1590.3L897.646 1591.92L894.041 1592.13L871.384 1585.08L867.826 1584.63L863.309 1585.48L857.205 1589.32L842.157 1602.12L839.065 1603.94L838.376 1604.24L834.609 1605.19L831.355 1605.52H827.912L818.369 1604.14L817.704 1603.96L814.749 1602.07L812.982 1599.42L812.355 1596.3L812.754 1593.06L814.246 1586.65L815.115 1579.68L815.001 1576.22L814.27 1572.81L812.826 1569.59L810.503 1566.5L807.686 1563.84L805.026 1561.85L800.528 1559.57L790.733 1556.56L787.845 1555.22L785.865 1552.66L785.385 1549.48L786.164 1546.18L794.305 1526.96L795.108 1524.06L796.101 1516.37L795.963 1511.47L795.426 1508.54L794.372 1505.51L792.629 1502.64L789.95 1500.42L786.824 1499.47L783.594 1499.28L769.781 1501.01L738.222 1510.91L726.979 1513.01L723.587 1511.48L721.982 1508.83L721.478 1502.24L720.761 1499.12L719.203 1496.45L716.429 1494.88L711.997 1494.75L696.237 1497.6L690.437 1498.06L685.592 1497.18L682.015 1494.88L678.686 1491.94L667.129 1478.22L655.225 1467.77L653.292 1465.68L647.036 1455.62L644.144 1452.86L640.272 1451.69L635.75 1452.1L625.338 1454.52L606.918 1455.92L602.382 1456.51Z" fill="#808080" stroke="#808080" stroke-linecap="round" stroke-linejoin="round"/>
<path d="M1038.96 2294.58L1037.19 2292.36L1036.13 2290.65L1035.72 2288.63L1035.07 2287.73L1033.77 2287.27L1032.94 2286.31L1033.62 2283.9L1030.61 2283.58L1027.75 2282.83L1028.17 2282.16L1028.4 2281.65L1028.75 2281.2L1029.58 2280.7L1028.67 2278.84L1027.34 2277.96L1025.66 2277.92L1023.61 2278.59L1024.56 2277.13L1025.28 2275.63L1025.43 2274.26L1024.62 2273.18L1025.54 2271.08L1024.67 2270.02L1022.77 2269.74L1020.49 2269.99L1020.96 2267.86L1020.46 2264.89L1019.36 2261.93L1018.01 2259.88L1017.33 2258.02L1016.42 2252.11L1016.01 2250.85L1015.68 2249.52L1015.46 2241.17L1015.11 2240.27L1014.69 2239.59L1014.01 2239.19L1012.93 2239.05L1012.15 2238.47L1011.87 2237.15L1011.78 2235.69L1011.51 2234.69L1006.16 2230.99L1005.35 2230L1005.11 2228.37L1004.38 2226.44L1003.26 2224.82L1000.96 2223.79L1000.1 2223.02L999.439 2222.26L999.211 2221.92L998.294 2222.23L996.755 2223.84L996.176 2224.14L994.565 2223.53L992.931 2222.52L991.392 2221.24L990.2 2219.79L986.243 2210.96L984.571 2208.56L982.695 2206.52L981.759 2204.71L981.617 2202.58L982.049 2199.55L985.574 2189.31L986.091 2186.12L986.538 2184.89L987.321 2184.34L987.502 2183.44L986.096 2181.23L985.483 2181.11L982.211 2179.34L982.054 2179.1L976.002 2177.59L974.473 2172.69L974.387 2171.77L971.523 2167.96L970.863 2167.45L970.753 2165.83L970.972 2164.14L971.875 2161.05L972.596 2159.33L973.318 2158.14L973.86 2156.92L974.173 2154.06L974.895 2150.81L976.786 2146.99L975.499 2144.66L972.782 2142.86L969.856 2141.63L963.467 2139.76L960.831 2137.91L959.315 2133.59L957.221 2130.28L956.632 2128.81L956.703 2127.07L957.81 2123.46L957.715 2121.94L956.85 2119.08L956.632 2117.49L956.029 2116.13L953.321 2114.65L952.684 2113.27L952.034 2109.95L950.433 2108.24L948.158 2107.03L944.163 2103.79L944.429 2103.31L944.624 2101.4L944.286 2099.83L942.843 2097.39L942.505 2096.05L942.277 2094.39L941.47 2091.88L941.565 2090.12L942.562 2088.54L943.935 2087.28L944.657 2086.13L943.612 2084.87L943.973 2083.18L943.66 2081.55L942.843 2080.22L942.505 2078.34L929.861 2073.83L926.36 2071.93L918.855 2064.13L915.269 2062.19V2061.21L916.869 2061.43L920.299 2063.35L921.211 2056.92L920.826 2049.06L919.767 2045.65L912.97 2035.77L910.096 2033.84L902.491 2032.94L899.541 2033.04L898.207 2034.55L899.917 2038.52L897.703 2036.68L895.789 2033.39L894.564 2030.26L894.43 2028.85L892.312 2027.51L886.298 2018.65L881.729 2015.81L880.765 2014.81L880.907 2013.68L882.76 2009.53L881.872 2006.71L880.114 2005.04L875.616 2003.09L870.058 1999.67L868.723 1999.18L867.365 1997.03L866.068 1996.54L864.719 1995.79L861.038 1990.59L859.846 1989.99L856.203 1989.07L854.929 1988.92L852.198 1988.18L849.201 1986.42L842.451 1980.98L837.169 1974.96L838.157 1972.68L835.654 1970.95L831.783 1969.85L827.223 1969.16L826.358 1968.37L824.976 1966.35L822.667 1964.25L821.342 1962.74L821.485 1962.04L819.946 1961.08L815.253 1956.73L812.859 1955.58L809.538 1955.65L805.871 1956.29L802.912 1957.38L801.672 1958.71L798.134 1957.39L791.816 1953.56L788.534 1952.16L788.714 1954.16L789.579 1955.28L790.781 1956.06L792.006 1957.11L792.714 1957.44L794.144 1958.42L795.032 1959.42L794.082 1959.89L791.493 1959.2L777.034 1950.29L774.954 1948.49L773.016 1947.56L770.08 1946.72L767.387 1945.44L765.102 1940.66L762.551 1938.17L754.6 1931.97L750.596 1927.97L741.813 1913.68L738.901 1911.22V1910.05L740.378 1910.14L741.547 1909.93L742.402 1909.24L742.943 1907.89L740.668 1907.48L738.792 1906.39L735.362 1903.08L734.398 1901.34L733.519 1896.72L732.836 1894.94L727.891 1889.33L727.444 1886.7L729.824 1882.98L724.699 1881.23L722.651 1880.92L723.012 1882.15L723.696 1883.04L724.599 1883.68L725.658 1884.16L722.761 1883.23L719.512 1881.36L717.574 1878.98L718.609 1876.5L717.236 1875.82L716.624 1874.86L716.757 1873.67L717.597 1872.28L718.248 1873.5L719.379 1874.38L720.88 1875L722.647 1875.42L721.925 1873.53L721.706 1872.67L721.635 1871.69L721.345 1870.19L720.647 1870.14L719.65 1870.43L718.604 1870.02L716.619 1867.15L715.812 1867.09L715.569 1870.02L712.415 1868.01L708.183 1864.61L705.138 1860.68L705.39 1857.06L706.003 1857.87L707.124 1858.87L708.169 1859.21L708.492 1858.14L707.988 1856.26L707.157 1855.55L706.074 1855.18L704.882 1854.36L703.461 1853.66L701.922 1853.93L700.36 1854.56L698.93 1854.9L698.892 1854.27L694.731 1847.84L693.795 1845.55L693.372 1842.89L693.287 1839.08L692.807 1837.65L690.788 1836.26L690.342 1834.8L690.161 1832.9L689.606 1832.22L688.642 1831.89L682.409 1827.46L680.775 1825.62L679.835 1821.27L678.462 1818.16L678.139 1816.32L678.462 1815.52L679.868 1813.51L680.158 1812.53L679.137 1810.24L673.594 1801.6L671.56 1800.36L666.939 1792.93L678.643 1782.64L680.291 1778.79L680.486 1773.72L679.355 1769.13L677.132 1766.72V1765.84L678.719 1764.44L678.5 1762.32L676.106 1757.06L674.23 1760.45L672.715 1760.87L671.318 1759.09L669.969 1755.87L671.062 1754.88L668.644 1751.39L668.117 1746.73L668.335 1741.78L668.036 1737.42L666.449 1733.11L666.739 1730.75L669.518 1729.72L670.311 1728.81L671.057 1726.65L671.128 1724.16L669.974 1722.21L668.844 1725.53L668.074 1726.92L666.943 1727.65L664.872 1727.74L664.393 1726.98L664.431 1725.72L663.927 1724.37L662.977 1723.51L662.326 1723.03L661.723 1722.41L660.977 1721.12L660.531 1719.65L660.312 1717.01L659.88 1715.68L659.59 1715.61L657.857 1714.59L657.557 1714.06L657.149 1712.85L656.85 1712.32L651.838 1705.95L647.559 1696.42L644.846 1683L645.055 1679.95L648.969 1678.48L652.969 1683.61L655.847 1683.65L656.489 1680.12V1677.02L656.85 1675.32L657.462 1674.71L659.448 1673.27L659.88 1672.46L660.179 1669.44L661.576 1663.11L661.899 1659.87H660.973L658.868 1665.33L657.857 1662.99L658.36 1661.25L659.334 1659.53L659.876 1657.2V1650.65L660.968 1646.35L665.827 1640.7L667.342 1633.93L668.387 1632.35L669.722 1631.02L671.057 1629.34L673.08 1624.87L675.617 1622.28L676.097 1621.61V1619.59L675.304 1617.76L673.86 1616.72L671.983 1617.13L670.986 1618.68L669.964 1623.24L669.01 1624.88L665.381 1625.57L665.229 1620.99L667.129 1614.31L665.97 1605.56L667.048 1596.62L665.937 1592.24L664.792 1590.1L660.702 1584.47L656.84 1575.5L653.966 1570.71L652.884 1568.19L653.268 1566.25L657.168 1562.63L656.926 1561.38L649.829 1553.44L646.941 1551.05L645.654 1551.83L646.195 1552.72L648.794 1555.47L649.782 1556.91L650.261 1558.62L650.418 1560.25L650.779 1561.84L651.791 1563.47L650.698 1564.57L648.751 1560.07L644.633 1553.65L640.605 1549.13L632.976 1535.24L633 1533.06L637.322 1535.43L642.12 1546.11L644.732 1546.95L646.343 1547.95L647.763 1547.72L648.917 1546.57L649.782 1544.75L648.243 1542.91L645.739 1538.07L644.2 1537.09L643.118 1536.62L641.916 1535.44L641.004 1533.83L640.605 1532.09L639.317 1529.55L636.358 1528.32L632.99 1527.49L630.511 1526.11L627.537 1526.72L625.371 1524.16L622.341 1517.34L623.989 1515.71L625.238 1513.57L626.079 1511.22L626.378 1508.97L626.013 1504.37L625.314 1501.9L625.186 1499.91L623.457 1499.12L622.122 1501.57L620.275 1498.07L617.7 1494.55L614.974 1489.2L612.337 1486.06L611.231 1482.52L609.421 1480.07L609.008 1477.89L607.725 1475.11L607.749 1472.78L606.633 1467.97L604.633 1464.16L602.743 1459.51L602.344 1456.48L606.884 1455.93L625.305 1454.53L635.717 1452.11L640.239 1451.7L644.11 1452.87L647.003 1455.63L653.259 1465.68L655.192 1467.78L667.095 1478.23L678.652 1491.95L681.982 1494.89L685.559 1497.19L690.404 1498.07L696.203 1497.61L711.964 1494.76L716.396 1494.89L719.17 1496.46L720.728 1499.13L721.445 1502.25L721.948 1508.84L723.554 1511.49L726.945 1513.02L738.189 1510.92L769.748 1501.02L783.561 1499.29L786.791 1499.48L789.916 1500.43L792.595 1502.64L794.338 1505.52L795.393 1508.55L795.93 1511.48L796.067 1516.38L795.075 1524.07L794.272 1526.97L786.13 1546.19L785.352 1549.49L785.831 1552.67L787.812 1555.23L790.7 1556.57L800.494 1559.58L804.993 1561.86L807.653 1563.85L810.469 1566.51L812.792 1569.6L814.236 1572.82L814.968 1576.23L815.082 1579.68L814.212 1586.66L812.721 1593.07L812.322 1596.31L812.949 1599.43L814.716 1602.08L817.67 1603.97L818.336 1604.15L827.878 1605.53H831.322L834.576 1605.2L838.342 1604.25L839.031 1603.95L842.123 1602.13L857.171 1589.33L863.275 1585.49L867.792 1584.64L871.35 1585.09L894.008 1592.14L897.613 1591.93L901.118 1590.31L904.933 1586.17L915.53 1569.71L921.429 1562.94L963.543 1529.62L984.163 1508.86L988.708 1505.16L992.651 1502.52L1009.83 1496.13L1013.25 1494.18L1016.09 1491.11L1017.58 1486.64L1016.67 1483.07L1014.24 1480.44L998.137 1471.71L994.907 1469.29L992.309 1466.5L991.392 1463.13L992.95 1459.2L997.52 1454.29L1004.08 1449.44L1023.24 1438.57L1049.52 1427L1053.1 1424.26L1056.75 1420.63L1060.62 1414.62L1062.6 1410.32L1063.68 1406.35L1063.95 1399.25L1063.61 1395.82L1062.95 1392.47L1059.11 1381.89L1058.81 1378.51L1059.53 1375.19L1061.53 1372.26L1064.44 1370.08L1067.81 1368.6L1077.12 1368.06L1096.48 1370.97L1094.97 1386.28L1095.42 1396.41L1096.5 1399.67L1098.24 1401.97L1099.87 1403.45L1105.34 1406.72L1108.48 1409.15L1111.49 1412.35L1114.31 1417.29L1122.13 1442.84L1125.96 1451.22L1127.29 1455.29L1131.65 1478.25L1150.69 1523.85L1152.16 1526.09L1154.27 1528.54L1157.09 1530.95L1160.27 1532.9L1163.54 1534.39L1166.7 1535.41L1172.07 1536.33L1194.99 1535.9L1227.22 1538.58L1233.89 1539.97L1237.45 1541.25L1241.11 1543.2L1245.16 1546.5L1247.24 1549.95L1247.88 1553.24L1247.29 1556.15L1245.07 1563.16L1244.24 1579.47L1244.38 1583.29L1245.34 1587.48L1248.6 1593.33L1251.72 1596.26L1255.02 1598.35L1261.42 1600.54L1264.84 1600.89L1268.3 1600.57L1285.76 1595.76L1288.99 1595.33L1292.3 1595.45L1309.87 1598.83L1313.06 1599.81L1315.86 1601.33L1318.07 1603.83L1318.21 1604.48L1314.12 1627.92L1314.1 1634.57L1321.48 1687.87L1321.39 1691L1320.94 1694.48L1319.97 1697.77L1318.55 1700.96L1316.76 1704L1312.31 1709.89L1310.45 1712.88L1309.29 1715.96L1308.98 1719.25L1310.83 1745.83L1309.79 1752.62L1303.88 1775.79L1303.65 1778.97L1303.83 1782.3L1304.7 1785.52L1306.42 1788.79L1345.03 1846.63L1329.34 1852.74L1306.08 1866.52L1300.98 1868.21L1296.7 1868.58L1287.16 1865.29L1283.35 1864.46L1279.1 1864.25L1272.8 1864.97L1267.98 1866.39L1259.01 1870.29L1256.01 1871.23L1253.76 1871.62L1244.58 1871.82L1239.21 1872.86L1235.1 1874.66L1231.39 1877.17L1225.72 1882.95L1221.62 1886.34L1192.32 1902.33L1154.86 1936.42L1149.88 1939.99L1141.85 1944.5L1136.9 1946.1L1132.7 1946.39L1129.45 1945.35L1126.42 1943.57L1123.55 1941.05L1121.1 1937.91L1105.96 1906.7L1103.25 1902.2L1094.95 1894.97L1092.08 1893.92L1088.41 1893.36L1085.17 1894.22L1071.43 1901.98L1068.22 1903.41L1065.01 1904.36L1049.19 1904.49L1044.36 1905.18L1040.4 1906.19L1033.15 1909.17L1028.73 1910.51L1025.65 1910.39L1023.73 1909.75L1021.5 1907.82L1019.57 1905.1L1017.85 1901.98L1013.27 1888.97L1010.88 1885.78L1007.67 1883.05L1003.23 1881.02L999.591 1880.39L996.038 1880.79L992.846 1882.12L989.91 1884.42L987.597 1887.01L986.125 1889.33L985.298 1891.18L984.567 1893.86L984.315 1896.83L984.519 1900.28L985.74 1906.83L988.352 1916.25L988.694 1920.96L988.628 1922.56L987.621 1926.73L977.133 1945.49L973.052 1955.83L971.219 1958.97L967.657 1962.12L964.199 1963.73L960.755 1964.73L946.353 1967L941.831 1968.34L938.05 1970.22L934.744 1972.81L923.439 1984.5L921.42 1987.47L920.983 1990.49L921.947 1993.36L924.308 1995.87L927.22 1997.41L938.306 2000.65L938.971 2001.14L940.211 2002.3L942.021 2004.81L943.417 2007.89L944.296 2011.27L944.495 2014.66L942.824 2030.77L943.028 2034.1L945.74 2044.28L946.129 2047.52L945.26 2060.52L945.445 2063.56L946.134 2066.75L947.74 2069.81L950.01 2072.2L951.706 2073.49L963.087 2079.61L966.616 2082.9L975.907 2095.4L979.075 2097.95L982.605 2099.61L986.533 2100.41L989.996 2100.45L993.34 2099.96L996.508 2098.97L999.51 2097.48L1002.24 2095.15L1004.06 2092.31L1005.2 2089.26L1008.68 2072.42L1018.18 2047.28L1022.17 2040.45L1023.89 2038.29L1025.4 2037.07L1027.95 2035.8L1030.94 2035.3L1044.79 2035.31L1049.93 2034.58L1053.99 2032.61L1060.61 2029.91L1066.83 2029.58L1069.66 2030.06L1071.81 2030.95L1073.7 2032.29L1075.89 2034.96L1077.62 2038.09L1078.63 2041.45L1078.81 2044.64L1078.49 2047.79L1073.94 2068.22L1073.74 2071.94L1074.13 2076.12L1074.95 2079.23L1081.22 2089.82L1082.18 2093.64L1082.16 2097.52L1077.13 2113.45L1075.74 2116.49L1073.65 2119.22L1070.95 2121.23L1068.17 2122.43L1065.88 2122.92L1063.84 2123.02L1047.44 2121.23L1044.14 2121.34L1040.97 2121.89L1037.67 2123.02L1031.13 2126.9L1023.7 2132.52L1020.9 2133.9L1018.03 2133.83L1015.07 2132.32L1012.48 2130.32L1010.16 2129.12L1008.94 2130.75L1008.44 2133.53L1007.43 2169.96L1008.26 2176.46L1009.09 2179.69L1010.28 2182.92L1012 2185.99L1014.5 2188.61L1017.39 2190.22L1020.33 2191.03L1036.46 2190.75L1042.9 2191.28L1049.2 2192.47L1052.25 2193.58L1055.13 2195.21L1057.63 2197.77L1059.27 2200.81L1069.41 2231.65L1070.4 2236.33L1070.52 2240.41L1069.9 2244.81L1064.65 2264.56L1061.94 2270.67L1060.12 2273.03L1057.46 2275.82L1048.36 2280.86L1045.54 2282.8L1043.24 2285.36L1041.7 2288.04L1039.03 2294.52L1039.01 2294.55L1038.96 2294.58Z" fill="#808080" stroke="#808080" stroke-linecap="round" stroke-linejoin="round"/>
<path d="M1486.95 834.42L1486.06 832.244L1484.52 826.411L1484.32 822.944L1484.46 819.467L1484.94 816.184L1486.49 810.988L1488.86 805.772L1492.87 799.056L1496.7 794.197L1501.41 789.751L1503.36 788.235L1503.68 788.055L1512.28 784.815L1515.01 787.285L1515.76 788.112L1515.97 788.473L1518.29 791.299L1520.95 793.365L1524.09 794.79L1527.47 795.185L1531.32 793.494L1534.4 791.575L1540.54 782.782L1542.04 783.595L1554.67 792.895L1560.89 798.856L1563.45 802.338L1565.4 806.271L1569.4 820.668L1571.3 825.053L1574.88 829.717L1578.27 832.852L1620.13 857.139L1626.95 859.191L1637.73 860.146L1641.14 860.806L1644.36 862.511L1647.24 865.19L1656.4 876.452L1670.49 889.895L1676.91 894.293L1680.12 895.78L1686.47 897.129L1710.9 897.861L1717.42 899.191L1723.89 901.461L1733.27 906.833L1769.74 933.134L1773.16 934.678L1776.74 935.87L1780.13 936.397L1783.53 936.535L1805.57 932.569L1809.18 932.735L1812.57 933.809L1815.76 935.956L1840.19 959.891L1844.13 966.142L1846.83 969.206L1849.94 970.996L1897.23 990.025L1899.08 991.374L1901.23 993.469L1903.16 996.418L1904.55 999.444L1905.52 1002.57L1906.41 1007.81L1909.74 1227.44L1911.02 1234.71L1912.1 1237.24L1914.07 1240.52L1916.69 1243.59L1969.01 1281.38L2006.36 1319.05L2012.28 1326.74L2018.49 1337.11L2024.71 1351.3L2028.31 1362.82L2030.52 1382.49L2029.71 1418.55L1987.6 1763.56L1947.82 2074.35L1928.58 2079.85L1582.31 2117.34L1544.12 2114.7L1530.17 2111.31L1522.28 2108.37L1511.71 2103.12L1470.58 2077.26L1468.01 2075.43L1409.9 2021.63L1395.66 1997.78L1387.14 1987.71L1384.83 1983.87L1383.75 1978.94L1383.78 1975.03L1389.55 1948.05L1392.43 1942.03L1401.09 1928.32L1402.33 1925.55L1403.46 1922.3L1403.57 1921.65L1403.62 1918.64L1403.34 1915.74L1402.45 1912.34L1400.49 1908.54L1388.22 1895.01L1379.46 1883.22L1374.77 1875.62L1366.63 1866.06L1345.03 1846.64L1306.42 1788.79L1304.7 1785.53L1303.83 1782.3L1303.65 1778.98L1303.88 1775.8L1309.79 1752.62L1310.83 1745.84L1308.98 1719.26L1309.29 1715.97L1310.46 1712.88L1312.31 1709.89L1316.76 1704L1318.55 1700.97L1319.97 1697.77L1320.94 1694.49L1321.39 1691L1321.48 1687.87L1314.1 1634.57L1314.12 1627.92L1318.21 1604.49L1318.07 1603.83L1315.86 1601.33L1313.06 1599.82L1309.88 1598.84L1292.3 1595.46L1288.99 1595.33L1285.76 1595.76L1268.3 1600.57L1264.84 1600.9L1261.43 1600.55L1255.02 1598.36L1251.72 1596.26L1248.6 1593.33L1245.34 1587.48L1244.38 1583.3L1244.24 1579.48L1245.07 1563.17L1247.29 1556.15L1247.88 1553.25L1247.24 1549.95L1245.16 1546.5L1241.11 1543.2L1237.45 1541.26L1233.89 1539.98L1227.22 1538.59L1194.99 1535.91L1172.07 1536.34L1166.7 1535.42L1163.54 1534.4L1160.27 1532.9L1157.09 1530.95L1154.27 1528.54L1152.16 1526.1L1150.69 1523.86L1131.65 1478.25L1127.29 1455.3L1125.96 1451.22L1122.13 1442.84L1114.31 1417.29L1111.49 1412.36L1108.48 1409.15L1105.34 1406.73L1099.87 1403.45L1098.24 1401.98L1096.5 1399.68L1095.42 1396.42L1094.97 1386.29L1096.48 1370.97L1096.03 1356L1097.84 1328.34L1100.47 1316.12L1101 1309.89L1100.86 1306.09L1098.75 1300.77L1098.48 1299.51L1098.68 1297.11L1099.53 1294.5L1101.8 1290.7L1108.66 1281.71L1109 1281.1L1110.98 1276.38L1112.75 1269.26L1112.72 1263.59L1115.52 1257.38L1125.34 1242.5L1127.38 1240.48L1131.35 1237.36L1134.76 1235.76L1138.23 1235.21L1141.42 1235.8L1157.11 1243.87L1163.65 1246.27L1174.15 1248.9L1200.87 1251.76L1208.24 1251.56L1229.23 1248.41L1236.25 1248.83L1247.78 1252.08L1250.65 1252.12L1253.75 1251.33L1257.21 1249.6L1260.77 1246.56L1263.77 1242.51L1266.13 1236.44L1266.29 1232.13L1265.22 1228.26L1261.37 1221.57L1259.92 1218.27L1259.27 1214.96L1260.01 1211.03L1262.03 1206.53L1276.34 1187.44L1290.31 1173.24L1293.96 1170.72L1297.44 1169.06L1346.81 1157.25L1352.75 1154.5L1356.42 1151.81L1364.35 1144.27L1374.84 1137.45L1377.96 1134.28L1380.87 1129.7L1386.34 1118.64L1390.33 1113.18L1392.64 1110.74L1394.57 1109.15L1397 1107.58L1399.94 1106.13L1403.18 1105.09L1406.54 1104.43L1413.4 1104.38L1444.88 1108.58L1480.06 1106.04L1493.55 1107.27L1496.69 1106.88L1499.42 1105.73L1501.1 1103.22L1502.16 1100.19L1502.87 1096.75L1503.17 1092.04L1502.96 1086.27L1501.6 1076.48L1500.01 1070.65L1498.02 1065.88L1493.9 1058.45L1492.89 1054.56L1493.51 1049.88L1495.18 1042.23L1494.33 1037.09L1494.08 1036.39L1482.84 1021.23L1469.7 999.202L1466.21 994.713L1454.49 983.042L1452.06 979.784L1450.43 976.445L1449.76 973.105L1449.7 969.614L1452.85 948.187L1452.73 940.886L1451.63 933.405L1452.07 929.614L1454.79 925.9L1458.09 923.91L1461.66 922.793L1467.41 921.601L1469.18 920.642L1471.7 918.357L1482.48 902.511L1488.01 896.298L1494.64 890.223L1498.31 887.624L1502 885.629L1509.19 882.965L1512.58 881.283L1515.51 878.941L1517.47 876.167L1518.52 873.626L1519.08 871.455L1519.1 871.099L1519.15 868.515L1518.8 865.551L1517.96 862.122L1516.59 858.564L1514.7 854.997L1512.18 851.591L1509.24 848.47L1503.14 843.207L1496.51 838.671L1486.95 834.42Z" fill="#808080" stroke="#808080" stroke-linecap="round" stroke-linejoin="round"/>
<path d="M1486.95 834.419L1496.52 838.675L1503.15 843.212L1509.25 848.475L1512.19 851.595L1514.71 855.001L1516.6 858.568L1517.97 862.126L1518.81 865.556L1519.16 868.52L1519.11 871.104L1519.08 871.46L1518.53 873.631L1517.48 876.172L1515.52 878.946L1512.59 881.288L1509.2 882.969L1502.01 885.634L1498.32 887.629L1494.65 890.227L1488.02 896.302L1482.49 902.515L1471.71 918.361L1469.19 920.646L1467.42 921.606L1461.67 922.798L1458.1 923.914L1454.8 925.904L1452.08 929.619L1451.64 933.409L1452.74 940.891L1452.86 948.191L1449.71 969.619L1449.77 973.11L1450.44 976.449L1452.07 979.788L1454.5 983.047L1466.22 994.718L1469.71 999.206L1482.85 1021.23L1494.09 1036.39L1494.34 1037.09L1495.19 1042.23L1493.52 1049.89L1492.9 1054.56L1493.9 1058.45L1498.03 1065.88L1500.02 1070.66L1501.61 1076.49L1502.97 1086.28L1503.18 1092.05L1502.88 1096.75L1502.17 1100.2L1501.11 1103.22L1499.43 1105.74L1496.7 1106.88L1493.56 1107.27L1480.07 1106.04L1444.88 1108.58L1413.41 1104.38L1406.55 1104.43L1403.18 1105.09L1399.95 1106.13L1397.01 1107.58L1394.58 1109.16L1392.65 1110.75L1390.34 1113.18L1386.35 1118.64L1380.88 1129.71L1377.97 1134.28L1374.85 1137.45L1364.36 1144.27L1356.43 1151.81L1352.76 1154.51L1346.82 1157.26L1297.45 1169.07L1293.97 1170.73L1290.32 1173.25L1276.35 1187.45L1262.04 1206.53L1260.01 1211.04L1259.28 1214.96L1259.92 1218.27L1261.38 1221.57L1265.23 1228.27L1266.3 1232.14L1266.14 1236.44L1263.78 1242.51L1260.78 1246.57L1257.22 1249.61L1253.76 1251.34L1250.66 1252.12L1247.79 1252.09L1236.26 1248.84L1229.24 1248.41L1208.24 1251.56L1200.88 1251.77L1174.16 1248.9L1163.66 1246.28L1157.12 1243.88L1141.43 1235.8L1138.24 1235.21L1134.77 1235.77L1131.36 1237.36L1127.39 1240.49L1125.35 1242.51L1115.53 1257.38L1112.73 1263.59L1099.79 1253.95L1097.34 1251.56L1095.44 1248.7L1092.59 1242L1084.83 1211.36L1082.34 1205L1079.79 1200.49L1079.51 1200.2L1077.83 1199.06L1075.43 1197.83L1056.27 1192.71L1052.88 1190.85L1049.71 1188.15L1046.76 1183.65L1045.48 1179.95L1044.9 1176.3L1047.7 1133.93L1047.22 1130.09L1046 1126.08L1043.73 1122.92L1040.86 1120.9L1034.32 1118.58L1014.82 1113.91L1011.25 1112.63L1016.98 1107.37L1022.92 1105.38L1031.77 1104.34L1036.91 1102.95L1060.56 1089.98L1066.13 1087.63L1070.79 1086.27L1085.05 1084.83L1088.45 1083.82L1091.07 1081.58L1091.87 1078.91L1091.46 1076.36L1090.59 1074.29L1083.7 1061.42L1082.65 1057.83L1082.31 1054.24L1083.13 1050.4L1085.06 1046.71L1088.8 1042.65L1092.35 1041.02L1095.48 1040.67L1098 1041.35L1109.65 1045.91L1113.19 1046.72L1116.58 1046.9L1119.43 1045.98L1121.22 1043.47L1121.7 1040.53L1121.65 1037.97L1121.49 1036.54L1118.85 1023.13L1118.63 1019.85L1118.87 1016.5L1119.5 1013.13L1121.88 1006.15L1125.21 999.344L1127.34 996.665L1130.24 995.226L1133.47 995.169L1136.98 995.554L1140.62 995.25L1147.64 993.559L1150.53 991.934L1152.53 988.989L1153.56 985.498L1156.06 979.622L1160.26 972.421L1177.6 952.409L1216.52 920.779L1234.26 909.289L1268.07 894.773L1273.14 891.158L1276.29 887.42L1278.46 883.653L1284.58 870.486L1289.82 863.77L1297.02 856.782L1308.05 849.572L1364.14 820.758L1371.39 817.937L1374.85 817.144L1378.27 816.887L1381.6 817.381L1385 818.569L1388.34 820.502L1393.78 825.071L1404.33 836.519L1423.21 851.776L1429.7 855.775L1433.35 856.877L1448.65 857.599L1458.56 859.718L1461.84 859.87L1464.86 859.176L1467.49 857.576L1469.34 855.889L1480.81 840.148L1486.95 834.419Z" fill="#808080" stroke="#808080" stroke-linecap="round" stroke-linejoin="round"/>
<path d="M1486.95 834.419L1480.82 840.134L1469.36 855.875L1467.5 857.561L1464.88 859.162L1461.85 859.856L1458.57 859.704L1448.66 857.585L1433.37 856.863L1429.71 855.761L1423.22 851.762L1404.34 836.505L1393.79 825.057L1388.36 820.488L1385.01 818.554L1381.61 817.367L1378.29 816.873L1374.87 817.129L1371.4 817.923L1364.15 820.744L1308.07 849.558L1297.04 856.768L1289.83 863.755L1284.6 870.472L1278.48 883.639L1276.3 887.406L1273.15 891.144L1268.08 894.759L1234.27 909.275L1216.54 920.765L1177.62 952.395L1160.27 972.407L1156.08 979.608L1153.58 985.484L1152.55 988.975L1150.55 991.92L1147.66 993.544L1140.64 995.235L1136.99 995.539L1133.48 995.155L1130.25 995.212L1127.35 996.651L1125.22 999.33L1121.89 1006.13L1119.51 1013.11L1118.88 1016.48L1118.64 1019.83L1118.87 1023.11L1121.5 1036.53L1121.67 1037.95L1121.71 1040.52L1121.23 1043.46L1119.45 1045.97L1116.6 1046.89L1113.21 1046.7L1109.67 1045.89L1098.02 1041.34L1095.49 1040.65L1092.37 1041.01L1088.82 1042.64L1085.07 1046.7L1083.15 1050.39L1082.32 1054.22L1082.66 1057.81L1083.72 1061.41L1090.6 1074.28L1091.47 1076.35L1091.88 1078.89L1091.08 1081.56L1088.47 1083.81L1085.07 1084.82L1070.8 1086.25L1066.14 1087.61L1060.58 1089.96L1036.93 1102.94L1031.79 1104.33L1022.93 1105.37L1016.99 1107.36L1011.26 1112.61L998.504 1109.02L957.236 1102.52L931.662 1103.6L927.482 1104.55L922.442 1106.43L918.471 1108.91L915.103 1111.9L904.278 1125.43L901.266 1128.27L898.402 1130.44L895.723 1131.92L893.723 1132.75L890.812 1133.62L887.786 1134.23L881.407 1134.82L863.789 1134.37L856.379 1135.68L819.671 1148.64L816.208 1149.24L812.793 1149.37L809.463 1148.87L806.323 1147.89L803.644 1146.52L801.915 1145.22L799.531 1142.75L797.56 1139.77L795.878 1135.83L795.085 1131.35L796.415 1087.8L793.817 1071.36L789.162 1053.27L788.568 1049.31L788.682 1044.3L796.895 989.032L796.415 985.479L795.056 982.144L791.826 979.47L788.321 979.304L781.234 980.781L777.857 980.491L774.693 979.19L771.919 976.649L770.352 973.162L770.152 969.182L771.962 964.104L777.301 954.262L777.942 952.3L779.258 946.306L779.396 942.601L778.954 938.444L778.336 935.262L775.676 928.208L777.899 926.546L780.426 923.016L783.224 917.739L791.736 890.982L796.215 881.915L802.861 872.942L821.01 857.044L823.827 853.894L826.14 850.531L827.47 847.178L827.974 843.672L827.333 840.257L824.103 836.334L820.773 833.46L802.861 823.893L797.246 819.899L794.923 817.775L792.61 814.598L791.005 811.349L774.969 746.022L773.387 742.412L771.439 738.883L762.714 730.2L745.357 715.85L736.451 711.485L731.915 708.326L728.632 705.006L728.081 704.227L724.804 700.583L719.251 697.52L711.224 694.37L663.61 682.999L660.071 681.593L657.62 680.101L655.055 676.539L671.205 658.76L674.549 656.161L678.149 653.919L734.076 627.281L759.925 620.09L814.75 588.702L870.7 565.65L873.954 565.289L883.221 567.493L900.126 574.637L908.776 576.917L912.201 576.969L990.695 558.786L1001.31 557.418L1007.37 557.585L1012.28 558.359L1048.11 570.096L1053.27 570.946L1057.26 571.008L1061 570.443L1078.87 565.783L1094.95 564.8L1098.67 565.037L1149.13 576.893L1155.95 579.644L1159.31 581.786L1162.62 584.565L1180.58 606.177L1184.9 609.892L1189.94 613.022L1197.3 615.748L1202.65 616.556L1207.57 616.309L1211.94 615.221L1216.15 613.601L1228.09 606.899L1232.19 605.099L1236.48 604.149L1241.64 604.163L1244.72 605.835L1246.07 607.379L1246.42 608.737L1247.06 621.258L1247.47 623.576L1248.45 627.191L1250.79 632.202L1254.17 636.131L1259.24 639.365L1263.36 640.51L1267.23 640.938L1281.94 639.475L1287.04 639.902L1291.07 641.132L1306.81 649.397L1312.47 651.397L1316.42 651.763L1319.68 651.302L1325.67 648.362L1342.89 637.195L1347.04 635.423L1352.12 635.005L1355.99 636.492L1359.4 639.18L1362 642.5L1386.96 687.796L1399.39 720.833L1404.51 728.029L1408.04 731.401L1412.01 734.38L1417.1 736.902L1421.14 738.294L1466.72 745.229L1471.78 747.252L1478.53 750.967L1481.9 753.266L1506.37 775.458L1510.25 779.975L1512.27 784.81L1503.67 788.05L1503.35 788.23L1501.4 789.746L1496.69 794.192L1492.86 799.051L1488.85 805.767L1486.49 810.983L1484.93 816.179L1484.45 819.462L1484.31 822.939L1484.51 826.406L1486.05 832.239L1486.95 834.419Z" fill="#808080" stroke="#808080" stroke-linecap="round" stroke-linejoin="round"/>
<path d="M1103.26 1902.21L1096.21 1926.44L1096.49 1930.54L1097.54 1935.31L1101.18 1939.08L1103.05 1941.95L1103.53 1945.59L1102.56 1949.51L1099.15 1954.31L1096.07 1957.3L1078.53 1969.62L1075.38 1972.63L1073.06 1976.87L1071.9 1981.1L1071.09 1992.35L1068.92 2000.13L1053.98 2032.61L1049.92 2034.58L1044.78 2035.32L1030.93 2035.3L1027.94 2035.81L1025.39 2037.08L1023.88 2038.29L1022.16 2040.45L1018.17 2047.28L1008.67 2072.42L1005.19 2089.27L1004.05 2092.31L1002.23 2095.16L999.501 2097.48L996.499 2098.97L993.331 2099.97L989.987 2100.45L986.524 2100.41L982.596 2099.62L979.066 2097.95L975.898 2095.41L966.607 2082.91L963.078 2079.61L951.697 2073.5L950.001 2072.21L947.731 2069.82L946.125 2066.75L945.436 2063.56L945.251 2060.52L946.12 2047.52L945.731 2044.28L943.019 2034.1L942.814 2030.77L944.486 2014.66L944.287 2011.28L943.408 2007.89L942.012 2004.81L940.202 2002.3L938.962 2001.14L938.297 2000.65L927.211 1997.41L924.299 1995.87L921.938 1993.36L920.974 1990.49L921.411 1987.47L923.43 1984.5L934.735 1972.81L938.041 1970.22L941.822 1968.34L946.344 1967L960.746 1964.73L964.189 1963.73L967.647 1962.13L971.21 1958.98L973.043 1955.84L977.124 1945.5L987.612 1926.74L988.619 1922.57L988.685 1920.97L988.343 1916.25L985.731 1906.84L984.51 1900.29L984.306 1896.84L984.557 1893.87L985.289 1891.18L986.115 1889.33L987.588 1887.01L989.901 1884.43L992.837 1882.12L996.029 1880.79L999.582 1880.4L1003.22 1881.02L1007.66 1883.06L1010.87 1885.78L1013.26 1888.97L1017.84 1901.98L1019.56 1905.11L1021.49 1907.82L1023.72 1909.75L1025.64 1910.4L1028.72 1910.51L1033.14 1909.17L1040.39 1906.2L1044.36 1905.18L1049.18 1904.5L1065 1904.37L1068.21 1903.41L1071.43 1901.99L1085.16 1894.22L1088.4 1893.36L1092.07 1893.93L1094.94 1894.97L1103.26 1902.21Z" fill="#808080" stroke="#808080" stroke-linecap="round" stroke-linejoin="round"/>
</svg>
